TwilioSansMono-MediumItalic.ufo
<glyph name="exclam" format="2">
	<unicode hex="0021"/>
	<advance width="600"/>
	<outline>
		<contour>
			<point x="252" y="212" type="line"/>
			<point x="332" y="212" type="line"/>
			<point x="400" y="547" type="line"/>
			<point x="420" y="684" type="line"/>
			<point x="297" y="684" type="line"/>
			<point x="278" y="548" type="line"/>
		</contour>
		<contour>
			<point x="267" y="-12" type="curve" smooth="yes"/>
			<point x="320" y="-12"/>
			<point x="343" y="8"/>
			<point x="349" y="53" type="curve" smooth="yes"/>
			<point x="356" y="103"/>
			<point x="332" y="129"/>
			<point x="276" y="129" type="curve" smooth="yes"/>
			<point x="224" y="129"/>
			<point x="200" y="108"/>
			<point x="194" y="64" type="curve" smooth="yes"/>
			<point x="187" y="13"/>
			<point x="211" y="-12"/>
		</contour>
	</outline>
</glyph>
<glyph name="numbersign" format="2">
	<unicode hex="0023"/>
	<advance width="600"/>
	<outline>
		<contour>
			<point x="29" y="249" type="line"/>
			<point x="17" y="163" type="line"/>
			<point x="116" y="163" type="line"/>
			<point x="77" y="0" type="line"/>
			<point x="167" y="0" type="line"/>
			<point x="205" y="163" type="line"/>
			<point x="333" y="163" type="line"/>
			<point x="295" y="0" type="line"/>
			<point x="384" y="0" type="line"/>
			<point x="423" y="163" type="line"/>
			<point x="532" y="163" type="line"/>
			<point x="543" y="249" type="line"/>
			<point x="443" y="249" type="line"/>
			<point x="489" y="445" type="line"/>
			<point x="595" y="445" type="line"/>
			<point x="607" y="531" type="line"/>
			<point x="510" y="531" type="line"/>
			<point x="546" y="684" type="line"/>
			<point x="456" y="684" type="line"/>
			<point x="420" y="531" type="line"/>
			<point x="292" y="531" type="line"/>
			<point x="328" y="684" type="line"/>
			<point x="239" y="684" type="line"/>
			<point x="203" y="531" type="line"/>
			<point x="92" y="531" type="line"/>
			<point x="81" y="445" type="line"/>
			<point x="182" y="445" type="line"/>
			<point x="136" y="249" type="line"/>
		</contour>
		<contour>
			<point x="226" y="249" type="line"/>
			<point x="272" y="445" type="line"/>
			<point x="400" y="445" type="line"/>
			<point x="354" y="249" type="line"/>
		</contour>
	</outline>
</glyph>
<glyph name="percent" format="2">
	<unicode hex="0025"/>
	<advance width="600"/>
	<outline>
		<contour>
			<point x="188" y="338" type="curve" smooth="yes"/>
			<point x="273" y="338"/>
			<point x="329" y="396"/>
			<point x="344" y="507" type="curve" smooth="yes"/>
			<point x="360" y="620"/>
			<point x="321" y="696"/>
			<point x="220" y="696" type="curve" smooth="yes"/>
			<point x="134" y="696"/>
			<point x="78" y="636"/>
			<point x="63" y="527" type="curve" smooth="yes"/>
			<point x="47" y="409"/>
			<point x="89" y="338"/>
		</contour>
		<contour>
			<point x="405" y="415" type="line"/>
			<point x="492" y="415" type="line"/>
			<point x="636" y="684" type="line"/>
			<point x="530" y="684" type="line"/>
		</contour>
		<contour>
			<point x="190" y="397" type="curve" smooth="yes"/>
			<point x="148" y="397"/>
			<point x="131" y="443"/>
			<point x="142" y="523" type="curve" smooth="yes"/>
			<point x="153" y="601"/>
			<point x="178" y="637"/>
			<point x="217" y="637" type="curve" smooth="yes"/>
			<point x="260" y="637"/>
			<point x="276" y="589"/>
			<point x="265" y="511" type="curve" smooth="yes"/>
			<point x="254" y="433"/>
			<point x="230" y="397"/>
		</contour>
		<contour>
			<point x="403" y="-12" type="curve" smooth="yes"/>
			<point x="488" y="-12"/>
			<point x="545" y="46"/>
			<point x="560" y="157" type="curve" smooth="yes"/>
			<point x="575" y="270"/>
			<point x="537" y="346"/>
			<point x="435" y="346" type="curve" smooth="yes"/>
			<point x="349" y="346"/>
			<point x="293" y="286"/>
			<point x="279" y="177" type="curve" smooth="yes"/>
			<point x="263" y="59"/>
			<point x="305" y="-12"/>
		</contour>
		<contour>
			<point x="405" y="47" type="curve" smooth="yes"/>
			<point x="363" y="47"/>
			<point x="347" y="93"/>
			<point x="358" y="173" type="curve" smooth="yes"/>
			<point x="369" y="251"/>
			<point x="393" y="287"/>
			<point x="432" y="287" type="curve" smooth="yes"/>
			<point x="475" y="287"/>
			<point x="491" y="239"/>
			<point x="480" y="161" type="curve" smooth="yes"/>
			<point x="469" y="83"/>
			<point x="445" y="47"/>
		</contour>
		<contour>
			<point x="-14" y="0" type="line"/>
			<point x="93" y="0" type="line"/>
			<point x="219" y="269" type="line"/>
			<point x="131" y="269" type="line"/>
		</contour>
	</outline>
</glyph>
<glyph name="quotesingle" format="2">
	<unicode hex="0027"/>
	<advance width="600"/>
	<outline>
		<contour>
			<point x="292" y="489" type="line"/>
			<point x="371" y="489" type="line"/>
			<point x="434" y="750" type="line"/>
			<point x="304" y="750" type="line"/>
		</contour>
	</outline>
</glyph>
<glyph name="parenleft" format="2">
	<unicode hex="0028"/>
	<advance width="600"/>
	<outline>
		<contour>
			<point x="407" y="-168" type="curve"/>
			<point x="451" y="-77" type="line"/>
			<point x="291" y="-9"/>
			<point x="243" y="132"/>
			<point x="272" y="333" type="curve" smooth="yes"/>
			<point x="299" y="531"/>
			<point x="382" y="654"/>
			<point x="564" y="705" type="curve"/>
			<point x="542" y="798" type="line"/>
			<point x="309" y="735"/>
			<point x="201" y="575"/>
			<point x="169" y="343" type="curve" smooth="yes"/>
			<point x="136" y="100"/>
			<point x="203" y="-78"/>
		</contour>
	</outline>
</glyph>
<glyph name="slash" format="2">
	<unicode hex="002F"/>
	<advance width="600"/>
	<outline>
		<contour>
			<point x="499" y="792" type="line"/>
			<point x="3" y="-163" type="line"/>
			<point x="115" y="-163" type="line"/>
			<point x="612" y="792" type="line"/>
		</contour>
	</outline>
</glyph>
<glyph name="two" format="2">
	<unicode hex="0032"/>
	<advance width="600"/>
	<outline>
		<contour>
			<point x="31" y="0" type="line"/>
			<point x="492" y="0" type="line"/>
			<point x="505" y="100" type="line"/>
			<point x="213" y="100" type="line"/>
			<point x="269" y="135" type="line" smooth="yes"/>
			<point x="413" y="226"/>
			<point x="548" y="327"/>
			<point x="548" y="501" type="curve" smooth="yes"/>
			<point x="548" y="623"/>
			<point x="474" y="698"/>
			<point x="332" y="698" type="curve" smooth="yes"/>
			<point x="239" y="698"/>
			<point x="168" y="664"/>
			<point x="121" y="630" type="curve"/>
			<point x="106" y="522" type="line"/>
			<point x="166" y="570"/>
			<point x="234" y="601"/>
			<point x="306" y="601" type="curve" smooth="yes"/>
			<point x="390" y="601"/>
			<point x="433" y="556"/>
			<point x="433" y="482" type="curve" smooth="yes"/>
			<point x="433" y="353"/>
			<point x="317" y="276"/>
			<point x="175" y="178" type="curve" smooth="yes"/>
			<point x="44" y="87" type="line"/>
		</contour>
	</outline>
</glyph>
<glyph name="three" format="2">
	<unicode hex="0033"/>
	<advance width="600"/>
	<outline>
		<contour>
			<point x="258" y="-14" type="curve" smooth="yes"/>
			<point x="420" y="-14"/>
			<point x="524" y="80"/>
			<point x="524" y="236" type="curve" smooth="yes"/>
			<point x="524" y="338"/>
			<point x="469" y="405"/>
			<point x="335" y="413" type="curve"/>
			<point x="564" y="592" type="line"/>
			<point x="577" y="684" type="line"/>
			<point x="128" y="684" type="line"/>
			<point x="115" y="591" type="line"/>
			<point x="419" y="591" type="line"/>
			<point x="167" y="386" type="line"/>
			<point x="156" y="311" type="line"/>
			<point x="185" y="321"/>
			<point x="228" y="329"/>
			<point x="270" y="329" type="curve" smooth="yes"/>
			<point x="375" y="329"/>
			<point x="411" y="287"/>
			<point x="411" y="221" type="curve" smooth="yes"/>
			<point x="411" y="134"/>
			<point x="351" y="80"/>
			<point x="253" y="80" type="curve" smooth="yes"/>
			<point x="185" y="80"/>
			<point x="114" y="105"/>
			<point x="52" y="161" type="curve"/>
			<point x="38" y="62" type="line"/>
			<point x="87" y="22"/>
			<point x="160" y="-14"/>
		</contour>
	</outline>
</glyph>
<glyph name="four" format="2">
	<unicode hex="0034"/>
	<advance width="600"/>
	<outline>
		<contour>
			<point x="330" y="0" type="line"/>
			<point x="441" y="0" type="line"/>
			<point x="460" y="141" type="line"/>
			<point x="535" y="141" type="line"/>
			<point x="548" y="233" type="line"/>
			<point x="474" y="233" type="line"/>
			<point x="538" y="687" type="line"/>
			<point x="370" y="687" type="line"/>
			<point x="28" y="234" type="line"/>
			<point x="15" y="142" type="line"/>
			<point x="350" y="142" type="line"/>
		</contour>
		<contour>
			<point x="141" y="233" type="line"/>
			<point x="414" y="597" type="line"/>
			<point x="363" y="233" type="line"/>
		</contour>
	</outline>
</glyph>
<glyph name="six" format="2">
	<unicode hex="0036"/>
	<advance width="600"/>
	<outline>
		<contour>
			<point x="288" y="-14" type="curve" smooth="yes"/>
			<point x="443" y="-14"/>
			<point x="545" y="92"/>
			<point x="545" y="262" type="curve" smooth="yes"/>
			<point x="545" y="378"/>
			<point x="479" y="448"/>
			<point x="363" y="448" type="curve" smooth="yes"/>
			<point x="285" y="448"/>
			<point x="222" y="414"/>
			<point x="176" y="332" type="curve"/>
			<point x="205" y="520"/>
			<point x="258" y="606"/>
			<point x="386" y="606" type="curve" smooth="yes"/>
			<point x="461" y="606"/>
			<point x="530" y="579"/>
			<point x="574" y="545" type="curve"/>
			<point x="587" y="640" type="line"/>
			<point x="548" y="669"/>
			<point x="473" y="698"/>
			<point x="377" y="698" type="curve" smooth="yes"/>
			<point x="177" y="698"/>
			<point x="91" y="557"/>
			<point x="64" y="367" type="curve" smooth="yes"/>
			<point x="62" y="353" type="line" smooth="yes"/>
			<point x="30" y="132"/>
			<point x="79" y="-14"/>
		</contour>
		<contour>
			<point x="293" y="77" type="curve" smooth="yes"/>
			<point x="216" y="77"/>
			<point x="169" y="124"/>
			<point x="169" y="206" type="curve" smooth="yes"/>
			<point x="169" y="304"/>
			<point x="223" y="365"/>
			<point x="312" y="365" type="curve" smooth="yes"/>
			<point x="388" y="365"/>
			<point x="431" y="324"/>
			<point x="431" y="243" type="curve" smooth="yes"/>
			<point x="431" y="140"/>
			<point x="379" y="77"/>
		</contour>
	</outline>
</glyph>
<glyph name="nine" format="2">
	<unicode hex="0039"/>
	<advance width="600"/>
	<outline>
		<contour>
			<point x="244" y="-13" type="curve" smooth="yes"/>
			<point x="444" y="-13"/>
			<point x="529" y="113"/>
			<point x="559" y="319" type="curve" smooth="yes"/>
			<point x="561" y="333" type="line" smooth="yes"/>
			<point x="594" y="568"/>
			<point x="537" y="698"/>
			<point x="337" y="698" type="curve" smooth="yes"/>
			<point x="182" y="698"/>
			<point x="78" y="592"/>
			<point x="78" y="426" type="curve" smooth="yes"/>
			<point x="78" y="304"/>
			<point x="147" y="233"/>
			<point x="264" y="233" type="curve" smooth="yes"/>
			<point x="340" y="233"/>
			<point x="403" y="268"/>
			<point x="446" y="350" type="curve"/>
			<point x="418" y="159"/>
			<point x="366" y="81"/>
			<point x="238" y="81" type="curve" smooth="yes"/>
			<point x="164" y="81"/>
			<point x="97" y="107"/>
			<point x="49" y="154" type="curve"/>
			<point x="36" y="56" type="line"/>
			<point x="78" y="15"/>
			<point x="156" y="-13"/>
		</contour>
		<contour>
			<point x="312" y="319" type="curve" smooth="yes"/>
			<point x="240" y="319"/>
			<point x="191" y="356"/>
			<point x="191" y="441" type="curve" smooth="yes"/>
			<point x="191" y="544"/>
			<point x="243" y="607"/>
			<point x="331" y="607" type="curve" smooth="yes"/>
			<point x="408" y="607"/>
			<point x="453" y="562"/>
			<point x="453" y="478" type="curve" smooth="yes"/>
			<point x="453" y="380"/>
			<point x="397" y="319"/>
		</contour>
	</outline>
</glyph>
<glyph name="greater" format="2">
	<unicode hex="003E"/>
	<advance width="600"/>
	<outline>
		<contour>
			<point x="39" y="30" type="line"/>
			<point x="526" y="238" type="line"/>
			<point x="543" y="360" type="line"/>
			<point x="115" y="569" type="line"/>
			<point x="100" y="464" type="line"/>
			<point x="443" y="302" type="line"/>
			<point x="55" y="143" type="line"/>
		</contour>
	</outline>
</glyph>
<glyph name="B" format="2">
	<unicode hex="0042"/>
	<advance width="600"/>
	<outline>
		<contour>
			<point x="383" y="685" type="curve" smooth="yes"/>
			<point x="131" y="685" type="line"/>
			<point x="35" y="0" type="line"/>
			<point x="321" y="0" type="line" smooth="yes"/>
			<point x="454" y="0"/>
			<point x="543" y="76"/>
			<point x="543" y="201" type="curve" smooth="yes"/>
			<point x="543" y="283"/>
			<point x="500" y="331"/>
			<point x="409" y="349" type="curve"/>
			<point x="513" y="364"/>
			<point x="577" y="427"/>
			<point x="577" y="524" type="curve" smooth="yes"/>
			<point x="577" y="616"/>
			<point x="522" y="685"/>
		</contour>
		<contour>
			<point x="355" y="596" type="line" smooth="yes"/>
			<point x="428" y="596"/>
			<point x="461" y="564"/>
			<point x="461" y="503" type="curve" smooth="yes"/>
			<point x="461" y="430"/>
			<point x="412" y="390"/>
			<point x="334" y="390" type="curve" smooth="yes"/>
			<point x="200" y="390" type="line"/>
			<point x="230" y="596" type="line"/>
		</contour>
		<contour>
			<point x="315" y="301" type="line" smooth="yes"/>
			<point x="398" y="301"/>
			<point x="426" y="263"/>
			<point x="426" y="204" type="curve" smooth="yes"/>
			<point x="426" y="133"/>
			<point x="383" y="92"/>
			<point x="303" y="92" type="curve" smooth="yes"/>
			<point x="159" y="92" type="line"/>
			<point x="189" y="301" type="line"/>
		</contour>
	</outline>
	<anchor name="top" x="373" y="684"/>
	<anchor name="bottom" x="287" y="0"/>
</glyph>
<glyph name="C" format="2">
	<unicode hex="0043"/>
	<advance width="600"/>
	<outline>
		<contour>
			<point x="367" y="-12" type="curve" smooth="yes"/>
			<point x="426" y="-12"/>
			<point x="469" y="-1"/>
			<point x="504" y="14" type="curve"/>
			<point x="518" y="110" type="line"/>
			<point x="477" y="92"/>
			<point x="433" y="83"/>
			<point x="386" y="83" type="curve" smooth="yes"/>
			<point x="220" y="83"/>
			<point x="167" y="218"/>
			<point x="189" y="370" type="curve" smooth="yes"/>
			<point x="190" y="377" type="line" smooth="yes"/>
			<point x="211" y="521"/>
			<point x="288" y="600"/>
			<point x="421" y="600" type="curve" smooth="yes"/>
			<point x="478" y="600"/>
			<point x="534" y="586"/>
			<point x="579" y="556" type="curve"/>
			<point x="593" y="653" type="line"/>
			<point x="553" y="676"/>
			<point x="490" y="695"/>
			<point x="415" y="695" type="curve" smooth="yes"/>
			<point x="215" y="695"/>
			<point x="101" y="571"/>
			<point x="75" y="392" type="curve" smooth="yes"/>
			<point x="73" y="378" type="line" smooth="yes"/>
			<point x="44" y="175"/>
			<point x="123" y="-12"/>
		</contour>
	</outline>
	<anchor name="top" x="428" y="684"/>
	<anchor name="bottom" x="330" y="0"/>
</glyph>
<glyph name="D" format="2">
	<unicode hex="0044"/>
	<advance width="600"/>
	<outline>
		<contour>
			<point x="28" y="0" type="line"/>
			<point x="267" y="0" type="line" smooth="yes"/>
			<point x="434" y="0"/>
			<point x="535" y="97"/>
			<point x="564" y="300" type="curve" smooth="yes"/>
			<point x="566" y="319" type="line" smooth="yes"/>
			<point x="597" y="543"/>
			<point x="512" y="684"/>
			<point x="327" y="684" type="curve" smooth="yes"/>
			<point x="124" y="684" type="line"/>
		</contour>
		<contour>
			<point x="308" y="591" type="line" smooth="yes"/>
			<point x="419" y="591"/>
			<point x="475" y="512"/>
			<point x="451" y="331" type="curve" smooth="yes"/>
			<point x="450" y="319" type="line" smooth="yes"/>
			<point x="430" y="170"/>
			<point x="373" y="93"/>
			<point x="265" y="93" type="curve" smooth="yes"/>
			<point x="154" y="93" type="line"/>
			<point x="224" y="591" type="line"/>
		</contour>
	</outline>
	<anchor name="center" x="168" y="342"/>
	<anchor name="bottom" x="280" y="0"/>
	<anchor name="top" x="327" y="684"/>
</glyph>
<glyph name="H" format="2">
	<unicode hex="0048"/>
	<advance width="600"/>
	<outline>
		<contour>
			<point x="31" y="0" type="line"/>
			<point x="143" y="0" type="line"/>
			<point x="185" y="299" type="line"/>
			<point x="425" y="299" type="line"/>
			<point x="383" y="0" type="line"/>
			<point x="495" y="0" type="line"/>
			<point x="591" y="684" type="line"/>
			<point x="479" y="684" type="line"/>
			<point x="438" y="394" type="line"/>
			<point x="198" y="394" type="line"/>
			<point x="239" y="684" type="line"/>
			<point x="127" y="684" type="line"/>
		</contour>
	</outline>
	<anchor name="center" x="337" y="528"/>
	<anchor name="bottom" x="284" y="0"/>
	<anchor name="top" x="359" y="684"/>
</glyph>
<glyph name="I" format="2">
	<unicode hex="0049"/>
	<advance width="600"/>
	<outline>
		<contour>
			<point x="41" y="0" type="line"/>
			<point x="484" y="0" type="line"/>
			<point x="498" y="91" type="line"/>
			<point x="332" y="91" type="line"/>
			<point x="403" y="593" type="line"/>
			<point x="568" y="593" type="line"/>
			<point x="581" y="684" type="line"/>
			<point x="137" y="684" type="line"/>
			<point x="124" y="593" type="line"/>
			<point x="290" y="593" type="line"/>
			<point x="219" y="91" type="line"/>
			<point x="54" y="91" type="line"/>
		</contour>
	</outline>
	<anchor name="ogonek" x="484" y="0"/>
	<anchor name="bottom" x="12497" y="0"/>
	<anchor name="top" x="359" y="684"/>
</glyph>
<glyph name="J" format="2">
	<unicode hex="004A"/>
	<advance width="600"/>
	<outline>
		<contour>
			<point x="230" y="-13" type="curve" smooth="yes"/>
			<point x="381" y="-13"/>
			<point x="479" y="50"/>
			<point x="501" y="204" type="curve" smooth="yes"/>
			<point x="567" y="684" type="line"/>
			<point x="141" y="684" type="line"/>
			<point x="127" y="586" type="line"/>
			<point x="441" y="586" type="line"/>
			<point x="391" y="230" type="line" smooth="yes"/>
			<point x="374" y="116"/>
			<point x="315" y="81"/>
			<point x="220" y="81" type="curve" smooth="yes"/>
			<point x="158" y="81"/>
			<point x="104" y="99"/>
			<point x="63" y="122" type="curve"/>
			<point x="49" y="29" type="line"/>
			<point x="91" y="5"/>
			<point x="154" y="-13"/>
		</contour>
	</outline>
	<anchor name="top" x="360" y="684"/>
	<anchor name="bottom" x="83" y="0"/>
</glyph>
<glyph name="K" format="2">
	<unicode hex="004B"/>
	<advance width="600"/>
	<outline>
		<contour>
			<point x="36" y="0" type="line"/>
			<point x="149" y="0" type="line"/>
			<point x="174" y="180" type="line"/>
			<point x="296" y="322" type="line"/>
			<point x="416" y="0" type="line"/>
			<point x="541" y="0" type="line"/>
			<point x="393" y="397" type="line"/>
			<point x="623" y="684" type="line"/>
			<point x="489" y="684" type="line"/>
			<point x="193" y="316" type="line"/>
			<point x="245" y="684" type="line"/>
			<point x="132" y="684" type="line"/>
		</contour>
	</outline>
	<anchor name="top" x="396" y="684"/>
	<anchor name="bottom" x="281" y="0"/>
</glyph>
<glyph name="L" format="2">
	<unicode hex="004C"/>
	<advance width="600"/>
	<outline>
		<contour>
			<point x="56" y="0" type="line"/>
			<point x="507" y="0" type="line"/>
			<point x="522" y="103" type="line"/>
			<point x="183" y="103" type="line"/>
			<point x="264" y="684" type="line"/>
			<point x="152" y="684" type="line"/>
		</contour>
	</outline>
	<anchor name="center" x="159" y="330"/>
	<anchor name="caron" x="393" y="684"/>
	<anchor name="top" x="208" y="684"/>
	<anchor name="bottom" x="281" y="0"/>
</glyph>
<glyph name="M" format="2">
	<unicode hex="004D"/>
	<advance width="600"/>
	<outline>
		<contour>
			<point x="14" y="0" type="line"/>
			<point x="117" y="0" type="line"/>
			<point x="158" y="294" type="line" smooth="yes"/>
			<point x="168" y="370"/>
			<point x="181" y="477"/>
			<point x="184" y="558" type="curve"/>
			<point x="191" y="558" type="line"/>
			<point x="235" y="170" type="line"/>
			<point x="339" y="170" type="line"/>
			<point x="490" y="558" type="line"/>
			<point x="500" y="558" type="line"/>
			<point x="478" y="476"/>
			<point x="463" y="386"/>
			<point x="451" y="295" type="curve" smooth="yes"/>
			<point x="410" y="0" type="line"/>
			<point x="512" y="0" type="line"/>
			<point x="608" y="684" type="line"/>
			<point x="448" y="684" type="line"/>
			<point x="306" y="297" type="line"/>
			<point x="302" y="297" type="line"/>
			<point x="267" y="684" type="line"/>
			<point x="110" y="684" type="line"/>
		</contour>
	</outline>
</glyph>
<glyph name="P" format="2">
	<unicode hex="0050"/>
	<advance width="600"/>
	<outline>
		<contour>
			<point x="40" y="0" type="line"/>
			<point x="152" y="0" type="line"/>
			<point x="183" y="216" type="line"/>
			<point x="337" y="216" type="line" smooth="yes"/>
			<point x="488" y="216"/>
			<point x="594" y="314"/>
			<point x="594" y="476" type="curve" smooth="yes"/>
			<point x="594" y="601"/>
			<point x="516" y="684"/>
			<point x="371" y="684" type="curve" smooth="yes"/>
			<point x="136" y="684" type="line"/>
		</contour>
		<contour>
			<point x="351" y="592" type="line" smooth="yes"/>
			<point x="443" y="592"/>
			<point x="479" y="536"/>
			<point x="479" y="466" type="curve" smooth="yes"/>
			<point x="479" y="366"/>
			<point x="422" y="308"/>
			<point x="329" y="308" type="curve" smooth="yes"/>
			<point x="195" y="308" type="line"/>
			<point x="235" y="592" type="line"/>
		</contour>
	</outline>
	<anchor name="top" x="394" y="684"/>
	<anchor name="bottom" x="146" y="0"/>
</glyph>
<glyph name="Q" format="2">
	<unicode hex="0051"/>
	<advance width="600"/>
	<outline>
		<contour>
			<point x="290" y="-67" type="curve" smooth="yes"/>
			<point x="439" y="-123" type="line"/>
			<point x="498" y="-40" type="line"/>
			<point x="328" y="17" type="line"/>
			<point x="449" y="32"/>
			<point x="531" y="126"/>
			<point x="558" y="315" type="curve" smooth="yes"/>
			<point x="560" y="329" type="line" smooth="yes"/>
			<point x="592" y="561"/>
			<point x="521" y="698"/>
			<point x="342" y="698" type="curve" smooth="yes"/>
			<point x="187" y="698"/>
			<point x="94" y="571"/>
			<point x="66" y="377" type="curve" smooth="yes"/>
			<point x="64" y="363" type="line" smooth="yes"/>
			<point x="29" y="119"/>
			<point x="102" y="5"/>
		</contour>
		<contour>
			<point x="284" y="79" type="curve" smooth="yes"/>
			<point x="187" y="79"/>
			<point x="152" y="172"/>
			<point x="179" y="356" type="curve" smooth="yes"/>
			<point x="180" y="363" type="line" smooth="yes"/>
			<point x="204" y="531"/>
			<point x="255" y="607"/>
			<point x="338" y="607" type="curve" smooth="yes"/>
			<point x="434" y="607"/>
			<point x="469" y="513"/>
			<point x="443" y="330" type="curve" smooth="yes"/>
			<point x="442" y="323" type="line" smooth="yes"/>
			<point x="418" y="154"/>
			<point x="369" y="79"/>
		</contour>
	</outline>
	<anchor name="top" x="341" y="684"/>
	<anchor name="bottom" x="251" y="5"/>
</glyph>
<glyph name="W" format="2">
	<unicode hex="0057"/>
	<advance width="600"/>
	<outline>
		<contour>
			<point x="50" y="0" type="line"/>
			<point x="201" y="0" type="line"/>
			<point x="313" y="394" type="line"/>
			<point x="321" y="394" type="line"/>
			<point x="325" y="0" type="line"/>
			<point x="476" y="0" type="line"/>
			<point x="630" y="684" type="line"/>
			<point x="523" y="684" type="line"/>
			<point x="408" y="122" type="line"/>
			<point x="400" y="122" type="line"/>
			<point x="397" y="532" type="line"/>
			<point x="276" y="532" type="line"/>
			<point x="159" y="122" type="line"/>
			<point x="150" y="122" type="line"/>
			<point x="192" y="684" type="line"/>
			<point x="88" y="684" type="line"/>
		</contour>
	</outline>
	<anchor name="top" x="359" y="684"/>
</glyph>
<glyph name="Y" format="2">
	<unicode hex="0059"/>
	<advance width="600"/>
	<outline>
		<contour>
			<point x="202" y="0" type="line"/>
			<point x="316" y="0" type="line"/>
			<point x="348" y="230" type="line"/>
			<point x="636" y="684" type="line"/>
			<point x="512" y="684" type="line"/>
			<point x="310" y="349" type="line"/>
			<point x="204" y="684" type="line"/>
			<point x="82" y="684" type="line"/>
			<point x="235" y="230" type="line"/>
		</contour>
	</outline>
	<anchor name="top" x="358" y="684"/>
	<anchor name="bottom" x="263" y="0"/>
</glyph>
<glyph name="Z" format="2">
	<unicode hex="005A"/>
	<advance width="600"/>
	<outline>
		<contour>
			<point x="19" y="0" type="line"/>
			<point x="507" y="0" type="line"/>
			<point x="520" y="94" type="line"/>
			<point x="175" y="94" type="line"/>
			<point x="588" y="588" type="line"/>
			<point x="602" y="684" type="line"/>
			<point x="131" y="684" type="line"/>
			<point x="117" y="591" type="line"/>
			<point x="459" y="591" type="line"/>
			<point x="32" y="88" type="line"/>
		</contour>
	</outline>
	<anchor name="top" x="366" y="684"/>
	<anchor name="bottom" x="261" y="0"/>
</glyph>
<glyph name="backslash" format="2">
	<unicode hex="005C"/>
	<advance width="600"/>
	<outline>
		<contour>
			<point x="373" y="-163" type="line"/>
			<point x="477" y="-163" type="line"/>
			<point x="242" y="792" type="line"/>
			<point x="138" y="792" type="line"/>
		</contour>
	</outline>
</glyph>
<glyph name="bracketright" format="2">
	<unicode hex="005D"/>
	<advance width="600"/>
	<outline>
		<contour>
			<point x="50" y="-163" type="line"/>
			<point x="356" y="-163" type="line"/>
			<point x="491" y="792" type="line"/>
			<point x="185" y="792" type="line"/>
			<point x="173" y="710" type="line"/>
			<point x="375" y="710" type="line"/>
			<point x="264" y="-81" type="line"/>
			<point x="62" y="-81" type="line"/>
		</contour>
	</outline>
</glyph>
<glyph name="asciicircum" format="2">
	<unicode hex="005E"/>
	<advance width="600"/>
	<outline>
		<contour>
			<point x="65" y="233" type="line"/>
			<point x="168" y="233" type="line"/>
			<point x="335" y="492" type="line"/>
			<point x="426" y="233" type="line"/>
			<point x="527" y="233" type="line"/>
			<point x="396" y="579" type="line"/>
			<point x="293" y="579" type="line"/>
		</contour>
	</outline>
</glyph>
<glyph name="underscore" format="2">
	<unicode hex="005F"/>
	<advance width="600"/>
	<outline>
		<contour>
			<point x="-19" y="-90" type="line"/>
			<point x="-31" y="-176" type="line"/>
			<point x="508" y="-176" type="line"/>
			<point x="520" y="-90" type="line"/>
		</contour>
	</outline>
</glyph>
<glyph name="grave" format="2">
	<unicode hex="0060"/>
	<advance width="600"/>
	<outline>
		<contour>
			<point x="257" y="750" type="line"/>
			<point x="342" y="603" type="line"/>
			<point x="430" y="603" type="line"/>
			<point x="381" y="750" type="line"/>
		</contour>
	</outline>
	<anchor name="_top" x="377" y="523"/>
</glyph>
<glyph name="a" format="2">
	<unicode hex="0061"/>
	<advance width="600"/>
	<outline>
		<contour>
			<point x="204" y="-14" type="curve" smooth="yes"/>
			<point x="283" y="-14"/>
			<point x="336" y="28"/>
			<point x="375" y="90" type="curve"/>
			<point x="363" y="0" type="line"/>
			<point x="470" y="0" type="line"/>
			<point x="516" y="322" type="line" smooth="yes"/>
			<point x="537" y="475"/>
			<point x="453" y="537"/>
			<point x="318" y="537" type="curve" smooth="yes"/>
			<point x="243" y="537"/>
			<point x="173" y="518"/>
			<point x="122" y="492" type="curve"/>
			<point x="108" y="395" type="line"/>
			<point x="168" y="432"/>
			<point x="232" y="448"/>
			<point x="295" y="448" type="curve" smooth="yes"/>
			<point x="381" y="448"/>
			<point x="417" y="406"/>
			<point x="407" y="328" type="curve"/>
			<point x="295" y="312" type="line" smooth="yes"/>
			<point x="137" y="289"/>
			<point x="57" y="230"/>
			<point x="57" y="114" type="curve" smooth="yes"/>
			<point x="58" y="36"/>
			<point x="112" y="-14"/>
		</contour>
		<contour>
			<point x="252" y="67" type="curve" smooth="yes"/>
			<point x="200" y="67"/>
			<point x="165" y="94"/>
			<point x="165" y="139" type="curve" smooth="yes"/>
			<point x="164" y="195"/>
			<point x="206" y="226"/>
			<point x="301" y="241" type="curve" smooth="yes"/>
			<point x="396" y="255" type="line"/>
			<point x="387" y="193" type="line" smooth="yes"/>
			<point x="376" y="119"/>
			<point x="325" y="67"/>
		</contour>
	</outline>
	<anchor name="ogonek" x="470" y="0"/>
	<anchor name="bottom" x="259" y="-2"/>
	<anchor name="top" x="338" y="524"/>
</glyph>
<glyph name="c" format="2">
	<unicode hex="0063"/>
	<advance width="600"/>
	<outline>
		<contour>
			<point x="355" y="-12" type="curve" smooth="yes"/>
			<point x="402" y="-12"/>
			<point x="443" y="-4"/>
			<point x="475" y="11" type="curve"/>
			<point x="487" y="101" type="line"/>
			<point x="456" y="86"/>
			<point x="414" y="78"/>
			<point x="376" y="78" type="curve" smooth="yes"/>
			<point x="249" y="78"/>
			<point x="187" y="156"/>
			<point x="204" y="282" type="curve" smooth="yes"/>
			<point x="205" y="289" type="line" smooth="yes"/>
			<point x="220" y="391"/>
			<point x="282" y="444"/>
			<point x="388" y="444" type="curve" smooth="yes"/>
			<point x="450" y="444"/>
			<point x="495" y="431"/>
			<point x="531" y="407" type="curve"/>
			<point x="543" y="497" type="line"/>
			<point x="504" y="521"/>
			<point x="442" y="535"/>
			<point x="378" y="535" type="curve" smooth="yes"/>
			<point x="214" y="535"/>
			<point x="113" y="441"/>
			<point x="93" y="299" type="curve" smooth="yes"/>
			<point x="91" y="285" type="line" smooth="yes"/>
			<point x="65" y="106"/>
			<point x="167" y="-12"/>
		</contour>
	</outline>
	<anchor name="top" x="399" y="523"/>
	<anchor name="bottom" x="323" y="0"/>
</glyph>
<glyph name="i" format="2">
	<unicode hex="0069"/>
	<advance width="600"/>
	<outline>
		<contour>
			<point x="373" y="623" type="curve" smooth="yes"/>
			<point x="425" y="623"/>
			<point x="446" y="643"/>
			<point x="451" y="684" type="curve" smooth="yes"/>
			<point x="456" y="726"/>
			<point x="435" y="747"/>
			<point x="382" y="747" type="curve" smooth="yes"/>
			<point x="329" y="747"/>
			<point x="308" y="727"/>
			<point x="304" y="686" type="curve" smooth="yes"/>
			<point x="299" y="644"/>
			<point x="319" y="623"/>
		</contour>
		<contour>
			<point x="43" y="0" type="line"/>
			<point x="511" y="0" type="line"/>
			<point x="524" y="89" type="line"/>
			<point x="351" y="89" type="line"/>
			<point x="412" y="523" type="line"/>
			<point x="118" y="523" type="line"/>
			<point x="105" y="434" type="line"/>
			<point x="288" y="434" type="line"/>
			<point x="240" y="89" type="line"/>
			<point x="57" y="89" type="line"/>
		</contour>
	</outline>
	<anchor name="ogonek" x="511" y="0"/>
</glyph>
<glyph name="j" format="2">
	<unicode hex="006A"/>
	<advance width="600"/>
	<outline>
		<contour>
			<point x="464" y="623" type="curve" smooth="yes"/>
			<point x="516" y="623"/>
			<point x="538" y="643"/>
			<point x="542" y="684" type="curve" smooth="yes"/>
			<point x="547" y="726"/>
			<point x="526" y="747"/>
			<point x="474" y="747" type="curve" smooth="yes"/>
			<point x="421" y="747"/>
			<point x="399" y="727"/>
			<point x="395" y="686" type="curve" smooth="yes"/>
			<point x="390" y="644"/>
			<point x="411" y="623"/>
		</contour>
		<contour>
			<point x="179" y="-204" type="curve" smooth="yes"/>
			<point x="309" y="-204"/>
			<point x="408" y="-157"/>
			<point x="429" y="-7" type="curve" smooth="yes"/>
			<point x="503" y="523" type="line"/>
			<point x="120" y="523" type="line"/>
			<point x="107" y="434" type="line"/>
			<point x="380" y="434" type="line"/>
			<point x="321" y="15" type="line" smooth="yes"/>
			<point x="308" y="-77"/>
			<point x="259" y="-112"/>
			<point x="163" y="-112" type="curve" smooth="yes"/>
			<point x="111" y="-112"/>
			<point x="64" y="-98"/>
			<point x="33" y="-83" type="curve"/>
			<point x="20" y="-171" type="line"/>
			<point x="53" y="-189"/>
			<point x="114" y="-204"/>
		</contour>
	</outline>
</glyph>
<glyph name="k" format="2">
	<unicode hex="006B"/>
	<advance width="600"/>
	<outline>
		<contour>
			<point x="52" y="0" type="line"/>
			<point x="163" y="0" type="line"/>
			<point x="193" y="215" type="line"/>
			<point x="387" y="0" type="line"/>
			<point x="523" y="0" type="line"/>
			<point x="344" y="194" type="line"/>
			<point x="463" y="203"/>
			<point x="546" y="278"/>
			<point x="546" y="393" type="curve" smooth="yes"/>
			<point x="546" y="478"/>
			<point x="490" y="537"/>
			<point x="399" y="537" type="curve" smooth="yes"/>
			<point x="326" y="537"/>
			<point x="267" y="500"/>
			<point x="224" y="428" type="curve"/>
			<point x="269" y="750" type="line"/>
			<point x="158" y="750" type="line"/>
		</contour>
		<contour>
			<point x="342" y="451" type="curve" smooth="yes"/>
			<point x="400" y="451"/>
			<point x="433" y="419"/>
			<point x="433" y="367" type="curve" smooth="yes"/>
			<point x="433" y="292"/>
			<point x="379" y="246"/>
			<point x="281" y="246" type="curve" smooth="yes"/>
			<point x="198" y="246" type="line"/>
			<point x="207" y="311" type="line" smooth="yes"/>
			<point x="219" y="393"/>
			<point x="266" y="451"/>
		</contour>
	</outline>
	<anchor name="bottom" x="268" y="0"/>
</glyph>
<glyph name="l" format="2">
	<unicode hex="006C"/>
	<advance width="600"/>
	<outline>
		<contour>
			<point x="34" y="0" type="line"/>
			<point x="501" y="0" type="line"/>
			<point x="514" y="89" type="line"/>
			<point x="341" y="89" type="line"/>
			<point x="435" y="750" type="line"/>
			<point x="142" y="750" type="line"/>
			<point x="129" y="661" type="line"/>
			<point x="312" y="661" type="line"/>
			<point x="230" y="89" type="line"/>
			<point x="47" y="89" type="line"/>
		</contour>
	</outline>
	<anchor name="center" x="325" y="373"/>
	<anchor name="caron" x="548" y="750"/>
	<anchor name="top" x="379" y="733"/>
	<anchor name="bottom" x="272" y="-1"/>
</glyph>
<glyph name="n" format="2">
	<unicode hex="006E"/>
	<advance width="600"/>
	<outline>
		<contour>
			<point x="47" y="0" type="line"/>
			<point x="158" y="0" type="line"/>
			<point x="201" y="304" type="line" smooth="yes"/>
			<point x="205" y="332"/>
			<point x="211" y="359"/>
			<point x="228" y="384" type="curve" smooth="yes"/>
			<point x="248" y="417"/>
			<point x="279" y="445"/>
			<point x="331" y="445" type="curve" smooth="yes"/>
			<point x="395" y="445"/>
			<point x="431" y="403"/>
			<point x="418" y="311" type="curve" smooth="yes"/>
			<point x="373" y="0" type="line"/>
			<point x="484" y="0" type="line"/>
			<point x="531" y="330" type="line" smooth="yes"/>
			<point x="550" y="464"/>
			<point x="493" y="537"/>
			<point x="390" y="537" type="curve" smooth="yes"/>
			<point x="313" y="537"/>
			<point x="254" y="494"/>
			<point x="213" y="419" type="curve"/>
			<point x="227" y="523" type="line"/>
			<point x="120" y="523" type="line"/>
		</contour>
	</outline>
	<anchor name="top" x="338" y="523"/>
	<anchor name="bottom" x="264" y="0"/>
</glyph>
<glyph name="r" format="2">
	<unicode hex="0072"/>
	<advance width="600"/>
	<outline>
		<contour>
			<point x="34" y="0" type="line"/>
			<point x="468" y="0" type="line"/>
			<point x="481" y="89" type="line"/>
			<point x="294" y="89" type="line"/>
			<point x="320" y="271" type="line" smooth="yes"/>
			<point x="332" y="352"/>
			<point x="388" y="425"/>
			<point x="479" y="425" type="curve" smooth="yes"/>
			<point x="514" y="425"/>
			<point x="542" y="418"/>
			<point x="561" y="409" type="curve"/>
			<point x="577" y="518" type="line"/>
			<point x="564" y="525"/>
			<point x="544" y="531"/>
			<point x="514" y="531" type="curve" smooth="yes"/>
			<point x="435" y="531"/>
			<point x="376" y="484"/>
			<point x="334" y="391" type="curve"/>
			<point x="352" y="523" type="line"/>
			<point x="109" y="523" type="line"/>
			<point x="96" y="434" type="line"/>
			<point x="232" y="434" type="line"/>
			<point x="183" y="89" type="line"/>
			<point x="46" y="89" type="line"/>
		</contour>
	</outline>
	<anchor name="top" x="377" y="523"/>
	<anchor name="bottom" x="225" y="0"/>
</glyph>
<glyph name="u" format="2">
	<unicode hex="0075"/>
	<advance width="600"/>
	<outline>
		<contour>
			<point x="554" y="523" type="line"/>
			<point x="443" y="523" type="line"/>
			<point x="400" y="217" type="line" smooth="yes"/>
			<point x="395" y="182"/>
			<point x="384" y="152"/>
			<point x="368" y="128" type="curve" smooth="yes"/>
			<point x="346" y="96"/>
			<point x="314" y="77"/>
			<point x="270" y="77" type="curve" smooth="yes"/>
			<point x="203" y="77"/>
			<point x="170" y="119"/>
			<point x="182" y="205" type="curve" smooth="yes"/>
			<point x="227" y="523" type="line"/>
			<point x="116" y="523" type="line"/>
			<point x="69" y="187" type="line" smooth="yes"/>
			<point x="51" y="59"/>
			<point x="105" y="-14"/>
			<point x="211" y="-14" type="curve" smooth="yes"/>
			<point x="288" y="-14"/>
			<point x="349" y="28"/>
			<point x="388" y="101" type="curve"/>
			<point x="373" y="0" type="line"/>
			<point x="480" y="0" type="line"/>
		</contour>
	</outline>
	<anchor name="ogonek" x="480" y="0"/>
	<anchor name="bottom" x="273" y="0"/>
	<anchor name="top" x="335" y="523"/>
</glyph>
<glyph name="y" format="2">
	<unicode hex="0079"/>
	<advance width="600"/>
	<outline>
		<contour>
			<point x="221" y="-204" type="curve" smooth="yes"/>
			<point x="354" y="-204"/>
			<point x="461" y="-141"/>
			<point x="484" y="28" type="curve" smooth="yes"/>
			<point x="552" y="523" type="line"/>
			<point x="442" y="523" type="line"/>
			<point x="403" y="239" type="line" smooth="yes"/>
			<point x="402" y="231"/>
			<point x="400" y="223"/>
			<point x="398" y="215" type="curve"/>
			<point x="398" y="214" type="line"/>
			<point x="392" y="190"/>
			<point x="383" y="168"/>
			<point x="371" y="150" type="curve" smooth="yes"/>
			<point x="349" y="118"/>
			<point x="317" y="99"/>
			<point x="274" y="99" type="curve" smooth="yes"/>
			<point x="206" y="99"/>
			<point x="174" y="142"/>
			<point x="186" y="227" type="curve" smooth="yes"/>
			<point x="228" y="523" type="line"/>
			<point x="116" y="523" type="line"/>
			<point x="71" y="203" type="line" smooth="yes"/>
			<point x="53" y="75"/>
			<point x="120" y="9"/>
			<point x="216" y="9" type="curve" smooth="yes"/>
			<point x="294" y="9"/>
			<point x="345" y="46"/>
			<point x="385" y="115" type="curve"/>
			<point x="376" y="42" type="line" smooth="yes"/>
			<point x="362" y="-65"/>
			<point x="310" y="-115"/>
			<point x="215" y="-115" type="curve" smooth="yes"/>
			<point x="143" y="-115"/>
			<point x="85" y="-88"/>
			<point x="44" y="-53" type="curve"/>
			<point x="31" y="-146" type="line"/>
			<point x="69" y="-175"/>
			<point x="135" y="-204"/>
		</contour>
	</outline>
	<anchor name="top" x="335" y="523"/>
</glyph>
<glyph name="z" format="2">
	<unicode hex="007A"/>
	<advance width="600"/>
	<outline>
		<contour>
			<point x="50" y="0" type="line"/>
			<point x="476" y="0" type="line"/>
			<point x="488" y="89" type="line"/>
			<point x="205" y="89" type="line"/>
			<point x="535" y="437" type="line"/>
			<point x="547" y="523" type="line"/>
			<point x="128" y="523" type="line"/>
			<point x="116" y="434" type="line"/>
			<point x="392" y="434" type="line"/>
			<point x="62" y="84" type="line"/>
		</contour>
	</outline>
	<anchor name="top" x="338" y="523"/>
	<anchor name="bottom" x="263" y="0"/>
</glyph>
<glyph name="braceleft" format="2">
	<unicode hex="007B"/>
	<advance width="600"/>
	<outline>
		<contour>
			<point x="115" y="265" type="line"/>
			<point x="195" y="265" type="line" smooth="yes"/>
			<point x="243" y="265"/>
			<point x="259" y="236"/>
			<point x="259" y="208" type="curve" smooth="yes"/>
			<point x="259" y="132"/>
			<point x="125" y="86"/>
			<point x="125" y="-36" type="curve" smooth="yes"/>
			<point x="125" y="-106"/>
			<point x="171" y="-163"/>
			<point x="280" y="-163" type="curve" smooth="yes"/>
			<point x="436" y="-163" type="line"/>
			<point x="447" y="-81" type="line"/>
			<point x="325" y="-81" type="line" smooth="yes"/>
			<point x="269" y="-81"/>
			<point x="241" y="-60"/>
			<point x="241" y="-17" type="curve" smooth="yes"/>
			<point x="241" y="71"/>
			<point x="372" y="112"/>
			<point x="372" y="215" type="curve" smooth="yes"/>
			<point x="372" y="263"/>
			<point x="332" y="301"/>
			<point x="276" y="313" type="curve"/>
			<point x="333" y="321"/>
			<point x="404" y="353"/>
			<point x="404" y="434" type="curve" smooth="yes"/>
			<point x="404" y="511"/>
			<point x="331" y="571"/>
			<point x="331" y="638" type="curve" smooth="yes"/>
			<point x="331" y="693"/>
			<point x="370" y="710"/>
			<point x="431" y="710" type="curve" smooth="yes"/>
			<point x="558" y="710" type="line"/>
			<point x="570" y="792" type="line"/>
			<point x="394" y="792" type="line" smooth="yes"/>
			<point x="287" y="792"/>
			<point x="221" y="736"/>
			<point x="221" y="651" type="curve" smooth="yes"/>
			<point x="221" y="566"/>
			<point x="294" y="499"/>
			<point x="294" y="434" type="curve" smooth="yes"/>
			<point x="294" y="394"/>
			<point x="265" y="362"/>
			<point x="218" y="362" type="curve" smooth="yes"/>
			<point x="129" y="362" type="line"/>
		</contour>
	</outline>
</glyph>
<glyph name="bar" format="2">
	<unicode hex="007C"/>
	<advance width="600"/>
	<outline>
		<contour>
			<point x="323" y="792" type="line"/>
			<point x="188" y="-163" type="line"/>
			<point x="292" y="-163" type="line"/>
			<point x="426" y="792" type="line"/>
		</contour>
	</outline>
</glyph>
<glyph name="asciitilde" format="2">
	<unicode hex="007E"/>
	<advance width="600"/>
	<outline>
		<contour>
			<point x="56" y="203" type="curve"/>
			<point x="145" y="203" type="line"/>
			<point x="154" y="278"/>
			<point x="174" y="318"/>
			<point x="214" y="318" type="curve" smooth="yes"/>
			<point x="278" y="318"/>
			<point x="303" y="199"/>
			<point x="402" y="199" type="curve" smooth="yes"/>
			<point x="482" y="199"/>
			<point x="535" y="252"/>
			<point x="556" y="411" type="curve"/>
			<point x="467" y="410" type="line"/>
			<point x="457" y="336"/>
			<point x="441" y="300"/>
			<point x="402" y="300" type="curve" smooth="yes"/>
			<point x="340" y="300"/>
			<point x="308" y="417"/>
			<point x="208" y="417" type="curve" smooth="yes"/>
			<point x="118" y="417"/>
			<point x="75" y="340"/>
		</contour>
	</outline>
</glyph>
<glyph name="cent" format="2">
	<unicode hex="00A2"/>
	<advance width="600"/>
	<outline>
		<contour>
			<point x="252" y="-93" type="line"/>
			<point x="337" y="-93" type="line"/>
			<point x="355" y="-12" type="line" smooth="yes"/>
			<point x="402" y="-12"/>
			<point x="443" y="-4"/>
			<point x="475" y="11" type="curve"/>
			<point x="487" y="101" type="line"/>
			<point x="456" y="86"/>
			<point x="414" y="78"/>
			<point x="376" y="78" type="curve" smooth="yes"/>
			<point x="371" y="78" type="line"/>
			<point x="449" y="439" type="line"/>
			<point x="481" y="433"/>
			<point x="508" y="422"/>
			<point x="531" y="407" type="curve"/>
			<point x="543" y="497" type="line"/>
			<point x="523" y="509"/>
			<point x="497" y="519"/>
			<point x="468" y="525" type="curve"/>
			<point x="487" y="615" type="line"/>
			<point x="401" y="615" type="line"/>
			<point x="385" y="535" type="line"/>
			<point x="378" y="535" type="line" smooth="yes"/>
			<point x="214" y="535"/>
			<point x="113" y="441"/>
			<point x="93" y="299" type="curve" smooth="yes"/>
			<point x="91" y="285" type="line" smooth="yes"/>
			<point x="69" y="135"/>
			<point x="138" y="27"/>
			<point x="271" y="-3" type="curve"/>
		</contour>
		<contour>
			<point x="204" y="282" type="curve" smooth="yes"/>
			<point x="205" y="289" type="line" smooth="yes"/>
			<point x="219" y="384"/>
			<point x="274" y="437"/>
			<point x="367" y="443" type="curve"/>
			<point x="293" y="92" type="line"/>
			<point x="223" y="120"/>
			<point x="191" y="188"/>
		</contour>
	</outline>
</glyph>
<glyph name="currency" format="2">
	<unicode hex="00A4"/>
	<advance width="600"/>
	<outline>
		<contour>
			<point x="81" y="61" type="line"/>
			<point x="171" y="147" type="line"/>
			<point x="201" y="124"/>
			<point x="242" y="111"/>
			<point x="289" y="111" type="curve" smooth="yes"/>
			<point x="331" y="111"/>
			<point x="370" y="122"/>
			<point x="403" y="142" type="curve"/>
			<point x="471" y="53" type="line"/>
			<point x="541" y="111" type="line"/>
			<point x="468" y="203" type="line"/>
			<point x="497" y="244"/>
			<point x="514" y="295"/>
			<point x="518" y="355" type="curve" smooth="yes"/>
			<point x="521" y="399"/>
			<point x="515" y="437"/>
			<point x="500" y="469" type="curve"/>
			<point x="595" y="559" type="line"/>
			<point x="538" y="620" type="line"/>
			<point x="448" y="534" type="line"/>
			<point x="418" y="557"/>
			<point x="379" y="569"/>
			<point x="333" y="569" type="curve" smooth="yes"/>
			<point x="292" y="569"/>
			<point x="254" y="559"/>
			<point x="221" y="540" type="curve"/>
			<point x="152" y="629" type="line"/>
			<point x="83" y="570" type="line"/>
			<point x="155" y="480" type="line"/>
			<point x="125" y="440"/>
			<point x="106" y="387"/>
			<point x="102" y="325" type="curve" smooth="yes"/>
			<point x="99" y="282"/>
			<point x="105" y="244"/>
			<point x="119" y="213" type="curve"/>
			<point x="24" y="123" type="line"/>
		</contour>
		<contour>
			<point x="297" y="197" type="curve" smooth="yes"/>
			<point x="227" y="197"/>
			<point x="188" y="244"/>
			<point x="192" y="327" type="curve" smooth="yes"/>
			<point x="196" y="425"/>
			<point x="243" y="483"/>
			<point x="324" y="483" type="curve" smooth="yes"/>
			<point x="393" y="483"/>
			<point x="432" y="435"/>
			<point x="428" y="353" type="curve" smooth="yes"/>
			<point x="424" y="255"/>
			<point x="377" y="197"/>
		</contour>
	</outline>
</glyph>
<glyph name="brokenbar" format="2">
	<unicode hex="00A6"/>
	<advance width="600"/>
	<outline>
		<contour>
			<point x="323" y="792" type="line"/>
			<point x="270" y="418" type="line"/>
			<point x="374" y="418" type="line"/>
			<point x="426" y="792" type="line"/>
		</contour>
		<contour>
			<point x="246" y="244" type="line"/>
			<point x="188" y="-163" type="line"/>
			<point x="292" y="-163" type="line"/>
			<point x="349" y="244" type="line"/>
		</contour>
	</outline>
</glyph>
<glyph name="section" format="2">
	<unicode hex="00A7"/>
	<advance width="600"/>
	<outline>
		<contour>
			<point x="273" y="-85" type="curve" smooth="yes"/>
			<point x="391" y="-85"/>
			<point x="477" y="-16"/>
			<point x="477" y="98" type="curve" smooth="yes"/>
			<point x="477" y="145"/>
			<point x="455" y="184"/>
			<point x="414" y="209" type="curve"/>
			<point x="478" y="225"/>
			<point x="530" y="266"/>
			<point x="530" y="336" type="curve" smooth="yes"/>
			<point x="530" y="419"/>
			<point x="448" y="442"/>
			<point x="348" y="460" type="curve" smooth="yes"/>
			<point x="280" y="471"/>
			<point x="236" y="481"/>
			<point x="236" y="537" type="curve" smooth="yes"/>
			<point x="236" y="588"/>
			<point x="275" y="620"/>
			<point x="343" y="620" type="curve" smooth="yes"/>
			<point x="414" y="620"/>
			<point x="486" y="597"/>
			<point x="532" y="563" type="curve"/>
			<point x="544" y="646" type="line"/>
			<point x="504" y="672"/>
			<point x="438" y="698"/>
			<point x="343" y="698" type="curve" smooth="yes"/>
			<point x="224" y="698"/>
			<point x="136" y="631"/>
			<point x="136" y="519" type="curve" smooth="yes"/>
			<point x="136" y="459"/>
			<point x="162" y="421"/>
			<point x="202" y="399" type="curve"/>
			<point x="132" y="382"/>
			<point x="83" y="344"/>
			<point x="83" y="275" type="curve" smooth="yes"/>
			<point x="83" y="190"/>
			<point x="165" y="169"/>
			<point x="271" y="152" type="curve" smooth="yes"/>
			<point x="333" y="142"/>
			<point x="377" y="127"/>
			<point x="377" y="79" type="curve" smooth="yes"/>
			<point x="377" y="26"/>
			<point x="338" y="-5"/>
			<point x="270" y="-5" type="curve" smooth="yes"/>
			<point x="202" y="-5"/>
			<point x="130" y="21"/>
			<point x="76" y="62" type="curve"/>
			<point x="65" y="-22" type="line"/>
			<point x="110" y="-56"/>
			<point x="181" y="-85"/>
		</contour>
		<contour>
			<point x="323" y="237" type="curve" smooth="yes"/>
			<point x="259" y="247"/>
			<point x="172" y="256"/>
			<point x="172" y="314" type="curve" smooth="yes"/>
			<point x="172" y="354"/>
			<point x="205" y="378"/>
			<point x="258" y="378" type="curve"/>
			<point x="260" y="378"/>
			<point x="261" y="377"/>
			<point x="263" y="377" type="curve"/>
			<point x="262" y="378" type="line"/>
			<point x="272" y="378"/>
			<point x="281" y="377"/>
			<point x="292" y="375" type="curve" smooth="yes"/>
			<point x="360" y="366"/>
			<point x="442" y="356"/>
			<point x="443" y="300" type="curve" smooth="yes"/>
			<point x="443" y="253"/>
			<point x="401" y="223"/>
		</contour>
	</outline>
</glyph>
<glyph name="guillemetleft" format="2">
	<unicode hex="00AB"/>
	<advance width="600"/>
	<outline>
		<contour>
			<point x="302" y="77" type="line"/>
			<point x="173" y="285" type="line"/>
			<point x="362" y="497" type="line"/>
			<point x="243" y="497" type="line"/>
			<point x="57" y="287" type="line"/>
			<point x="187" y="77" type="line"/>
		</contour>
		<contour>
			<point x="516" y="77" type="line"/>
			<point x="387" y="285" type="line"/>
			<point x="576" y="497" type="line"/>
			<point x="456" y="497" type="line"/>
			<point x="271" y="287" type="line"/>
			<point x="401" y="77" type="line"/>
		</contour>
	</outline>
</glyph>
<glyph name="macron" format="2">
	<unicode hex="00AF"/>
	<advance width="600"/>
	<outline>
		<contour>
			<point x="205" y="633" type="line"/>
			<point x="499" y="633" type="line"/>
			<point x="509" y="704" type="line"/>
			<point x="215" y="704" type="line"/>
		</contour>
	</outline>
	<anchor name="_top" x="338" y="523"/>
</glyph>
<glyph name="degree" format="2">
	<unicode hex="00B0"/>
	<advance width="600"/>
	<outline>
		<contour>
			<point x="325" y="297" type="curve" smooth="yes"/>
			<point x="441" y="297"/>
			<point x="527" y="394"/>
			<point x="527" y="512" type="curve" smooth="yes"/>
			<point x="527" y="620"/>
			<point x="454" y="696"/>
			<point x="344" y="696" type="curve" smooth="yes"/>
			<point x="226" y="696"/>
			<point x="140" y="605"/>
			<point x="140" y="485" type="curve" smooth="yes"/>
			<point x="140" y="376"/>
			<point x="211" y="297"/>
		</contour>
		<contour>
			<point x="325" y="374" type="curve" smooth="yes"/>
			<point x="260" y="374"/>
			<point x="219" y="422"/>
			<point x="219" y="490" type="curve" smooth="yes"/>
			<point x="219" y="566"/>
			<point x="273" y="619"/>
			<point x="340" y="619" type="curve" smooth="yes"/>
			<point x="409" y="619"/>
			<point x="449" y="574"/>
			<point x="449" y="506" type="curve" smooth="yes"/>
			<point x="449" y="430"/>
			<point x="397" y="374"/>
		</contour>
	</outline>
</glyph>
<glyph name="paragraph" format="2">
	<unicode hex="00B6"/>
	<advance width="600"/>
	<outline>
		<contour>
			<point x="260" y="0" type="line"/>
			<point x="346" y="0" type="line"/>
			<point x="430" y="601" type="line"/>
			<point x="501" y="601" type="line"/>
			<point x="416" y="0" type="line"/>
			<point x="502" y="0" type="line"/>
			<point x="599" y="684" type="line"/>
			<point x="308" y="684" type="line" smooth="yes"/>
			<point x="153" y="684"/>
			<point x="66" y="588"/>
			<point x="66" y="443" type="curve" smooth="yes"/>
			<point x="66" y="314"/>
			<point x="145" y="244"/>
			<point x="282" y="244" type="curve" smooth="yes"/>
			<point x="296" y="244" type="line"/>
		</contour>
	</outline>
</glyph>
<glyph name="cedilla" format="2">
	<unicode hex="00B8"/>
	<advance width="600"/>
	<outline>
		<contour>
			<point x="221" y="-224" type="curve" smooth="yes"/>
			<point x="297" y="-224"/>
			<point x="343" y="-187"/>
			<point x="344" y="-123" type="curve" smooth="yes"/>
			<point x="345" y="-76"/>
			<point x="319" y="-51"/>
			<point x="267" y="-47" type="curve"/>
			<point x="295" y="0" type="line"/>
			<point x="231" y="0" type="line"/>
			<point x="177" y="-92" type="line"/>
			<point x="190" y="-90"/>
			<point x="201" y="-89"/>
			<point x="212" y="-89" type="curve" smooth="yes"/>
			<point x="249" y="-89"/>
			<point x="269" y="-99"/>
			<point x="269" y="-124" type="curve" smooth="yes"/>
			<point x="269" y="-153"/>
			<point x="248" y="-165"/>
			<point x="212" y="-165" type="curve" smooth="yes"/>
			<point x="184" y="-165"/>
			<point x="159" y="-157"/>
			<point x="139" y="-146" type="curve"/>
			<point x="131" y="-203" type="line"/>
			<point x="151" y="-215"/>
			<point x="186" y="-224"/>
		</contour>
	</outline>
	<anchor name="_bottom" x="262" y="0"/>
</glyph>
<glyph name="guillemetright" format="2">
	<unicode hex="00BB"/>
	<advance width="600"/>
	<outline>
		<contour>
			<point x="246" y="77" type="line"/>
			<point x="364" y="77" type="line"/>
			<point x="551" y="287" type="line"/>
			<point x="421" y="497" type="line"/>
			<point x="306" y="497" type="line"/>
			<point x="435" y="290" type="line"/>
		</contour>
		<contour>
			<point x="31" y="77" type="line"/>
			<point x="150" y="77" type="line"/>
			<point x="336" y="287" type="line"/>
			<point x="206" y="497" type="line"/>
			<point x="91" y="497" type="line"/>
			<point x="220" y="290" type="line"/>
		</contour>
	</outline>
</glyph>
<glyph name="Ccedilla" format="2">
	<unicode hex="00C7"/>
	<advance width="600"/>
	<outline>
		<contour>
			<point x="289" y="-224" type="curve" smooth="yes"/>
			<point x="365" y="-224"/>
			<point x="411" y="-187"/>
			<point x="412" y="-123" type="curve" smooth="yes"/>
			<point x="413" y="-76"/>
			<point x="387" y="-51"/>
			<point x="335" y="-47" type="curve"/>
			<point x="356" y="-12" type="line"/>
			<point x="367" y="-12" type="line" smooth="yes"/>
			<point x="426" y="-12"/>
			<point x="469" y="-1"/>
			<point x="504" y="14" type="curve"/>
			<point x="518" y="110" type="line"/>
			<point x="477" y="92"/>
			<point x="433" y="83"/>
			<point x="386" y="83" type="curve" smooth="yes"/>
			<point x="220" y="83"/>
			<point x="167" y="218"/>
			<point x="189" y="370" type="curve" smooth="yes"/>
			<point x="190" y="377" type="line" smooth="yes"/>
			<point x="211" y="521"/>
			<point x="288" y="600"/>
			<point x="421" y="600" type="curve" smooth="yes"/>
			<point x="478" y="600"/>
			<point x="534" y="586"/>
			<point x="579" y="556" type="curve"/>
			<point x="593" y="653" type="line"/>
			<point x="553" y="676"/>
			<point x="490" y="695"/>
			<point x="415" y="695" type="curve" smooth="yes"/>
			<point x="215" y="695"/>
			<point x="101" y="571"/>
			<point x="75" y="392" type="curve" smooth="yes"/>
			<point x="73" y="378" type="line" smooth="yes"/>
			<point x="47" y="196"/>
			<point x="108" y="27"/>
			<point x="295" y="-6" type="curve"/>
			<point x="245" y="-92" type="line"/>
			<point x="258" y="-90"/>
			<point x="269" y="-89"/>
			<point x="280" y="-89" type="curve" smooth="yes"/>
			<point x="317" y="-89"/>
			<point x="337" y="-99"/>
			<point x="337" y="-124" type="curve" smooth="yes"/>
			<point x="337" y="-153"/>
			<point x="316" y="-165"/>
			<point x="280" y="-165" type="curve" smooth="yes"/>
			<point x="252" y="-165"/>
			<point x="227" y="-157"/>
			<point x="207" y="-146" type="curve"/>
			<point x="199" y="-203" type="line"/>
			<point x="219" y="-215"/>
			<point x="254" y="-224"/>
		</contour>
	</outline>
</glyph>
<glyph name="Thorn" format="2">
	<unicode hex="00DE"/>
	<advance width="600"/>
	<outline>
		<contour>
			<point x="137" y="695" type="line"/>
			<point x="40" y="0" type="line"/>
			<point x="152" y="0" type="line"/>
			<point x="170" y="121" type="line"/>
			<point x="323" y="121" type="line" smooth="yes"/>
			<point x="474" y="121"/>
			<point x="580" y="219"/>
			<point x="580" y="381" type="curve" smooth="yes"/>
			<point x="580" y="506"/>
			<point x="503" y="589"/>
			<point x="358" y="589" type="curve" smooth="yes"/>
			<point x="235" y="589" type="line"/>
			<point x="250" y="695" type="line"/>
		</contour>
		<contour>
			<point x="338" y="497" type="line" smooth="yes"/>
			<point x="430" y="497"/>
			<point x="466" y="441"/>
			<point x="466" y="371" type="curve" smooth="yes"/>
			<point x="466" y="271"/>
			<point x="408" y="213"/>
			<point x="315" y="213" type="curve" smooth="yes"/>
			<point x="183" y="213" type="line"/>
			<point x="222" y="497" type="line"/>
		</contour>
	</outline>
</glyph>
<glyph name="germandbls" format="2">
	<unicode hex="00DF"/>
	<advance width="600"/>
	<outline>
		<contour>
			<point x="326" y="-9" type="curve" smooth="yes"/>
			<point x="459" y="-9"/>
			<point x="546" y="77"/>
			<point x="546" y="210" type="curve" smooth="yes"/>
			<point x="546" y="301"/>
			<point x="491" y="358"/>
			<point x="406" y="375" type="curve"/>
			<point x="499" y="392"/>
			<point x="572" y="460"/>
			<point x="572" y="578" type="curve" smooth="yes"/>
			<point x="572" y="688"/>
			<point x="499" y="760"/>
			<point x="358" y="760" type="curve" smooth="yes"/>
			<point x="193" y="760"/>
			<point x="118" y="660"/>
			<point x="99" y="526" type="curve" smooth="yes"/>
			<point x="26" y="0" type="line"/>
			<point x="137" y="0" type="line"/>
			<point x="213" y="531" type="line" smooth="yes"/>
			<point x="226" y="625"/>
			<point x="271" y="671"/>
			<point x="351" y="671" type="curve" smooth="yes"/>
			<point x="422" y="671"/>
			<point x="462" y="634"/>
			<point x="462" y="564" type="curve" smooth="yes"/>
			<point x="462" y="475"/>
			<point x="412" y="418"/>
			<point x="330" y="418" type="curve" smooth="yes"/>
			<point x="247" y="418" type="line"/>
			<point x="235" y="328" type="line"/>
			<point x="306" y="328" type="line" smooth="yes"/>
			<point x="392" y="328"/>
			<point x="434" y="289"/>
			<point x="434" y="210" type="curve" smooth="yes"/>
			<point x="434" y="127"/>
			<point x="385" y="75"/>
			<point x="306" y="75" type="curve" smooth="yes"/>
			<point x="264" y="75"/>
			<point x="232" y="86"/>
			<point x="207" y="102" type="curve"/>
			<point x="195" y="21" type="line"/>
			<point x="221" y="5"/>
			<point x="266" y="-9"/>
		</contour>
	</outline>
</glyph>
<glyph name="ccedilla" format="2">
	<unicode hex="00E7"/>
	<advance width="600"/>
	<outline>
		<contour>
			<point x="398" y="-12"/>
			<point x="441.6382978723" y="-4.6382978723"/>
			<point x="475" y="11" type="curve"/>
			<point x="487" y="101" type="line"/>
			<point x="456" y="86"/>
			<point x="414" y="78"/>
			<point x="376" y="78" type="curve" smooth="yes"/>
			<point x="249" y="78"/>
			<point x="187" y="156"/>
			<point x="204" y="282" type="curve" smooth="yes"/>
			<point x="205" y="289" type="line" smooth="yes"/>
			<point x="220" y="391"/>
			<point x="282" y="444"/>
			<point x="388" y="444" type="curve" smooth="yes"/>
			<point x="450" y="444"/>
			<point x="495" y="431"/>
			<point x="531" y="407" type="curve"/>
			<point x="543" y="497" type="line"/>
			<point x="504" y="521"/>
			<point x="442" y="535"/>
			<point x="378" y="535" type="curve" smooth="yes"/>
			<point x="214" y="535"/>
			<point x="113" y="441"/>
			<point x="93" y="299" type="curve" smooth="yes"/>
			<point x="91" y="285" type="line" smooth="yes"/>
			<point x="68" y="129"/>
			<point x="143" y="19"/>
			<point x="288" y="-6" type="curve"/>
			<point x="238" y="-92" type="line"/>
			<point x="251" y="-90"/>
			<point x="262" y="-89"/>
			<point x="273" y="-89" type="curve" smooth="yes"/>
			<point x="310" y="-89"/>
			<point x="330" y="-99"/>
			<point x="330" y="-124" type="curve" smooth="yes"/>
			<point x="330" y="-153"/>
			<point x="309" y="-165"/>
			<point x="273" y="-165" type="curve" smooth="yes"/>
			<point x="245" y="-165"/>
			<point x="220" y="-157"/>
			<point x="200" y="-146" type="curve"/>
			<point x="192" y="-203" type="line"/>
			<point x="212" y="-215"/>
			<point x="247" y="-224"/>
			<point x="282" y="-224" type="curve" smooth="yes"/>
			<point x="358" y="-224"/>
			<point x="404" y="-187"/>
			<point x="405" y="-123" type="curve" smooth="yes"/>
			<point x="406" y="-76"/>
			<point x="380" y="-51"/>
			<point x="328" y="-47" type="curve"/>
			<point x="349" y="-12" type="line"/>
		</contour>
	</outline>
</glyph>
<glyph name="oslash" format="2">
	<unicode hex="00F8"/>
	<advance width="600"/>
	<outline>
		<contour>
			<point x="281" y="-14" type="curve" smooth="yes"/>
			<point x="422" y="-14"/>
			<point x="516" y="79"/>
			<point x="538" y="230" type="curve" smooth="yes"/>
			<point x="540" y="244" type="line" smooth="yes"/>
			<point x="551" y="323"/>
			<point x="540" y="391"/>
			<point x="510" y="441" type="curve"/>
			<point x="606" y="548" type="line"/>
			<point x="511" y="548" type="line"/>
			<point x="462" y="494" type="line"/>
			<point x="426" y="522"/>
			<point x="378" y="537"/>
			<point x="321" y="537" type="curve" smooth="yes"/>
			<point x="185" y="537"/>
			<point x="84" y="444"/>
			<point x="62" y="294" type="curve" smooth="yes"/>
			<point x="60" y="280" type="line" smooth="yes"/>
			<point x="48" y="199"/>
			<point x="60" y="131"/>
			<point x="90" y="82" type="curve"/>
			<point x="-4" y="-23" type="line"/>
			<point x="92" y="-23" type="line"/>
			<point x="138" y="29" type="line"/>
			<point x="175" y="1"/>
			<point x="223" y="-14"/>
		</contour>
		<contour>
			<point x="174" y="273" type="curve" smooth="yes"/>
			<point x="175" y="280" type="line" smooth="yes"/>
			<point x="191" y="394"/>
			<point x="244" y="449"/>
			<point x="315" y="449" type="curve" smooth="yes"/>
			<point x="347" y="449"/>
			<point x="374" y="439"/>
			<point x="394" y="418" type="curve"/>
			<point x="174" y="174" type="line"/>
			<point x="169" y="202"/>
			<point x="168" y="235"/>
		</contour>
		<contour>
			<point x="285" y="75" type="curve" smooth="yes"/>
			<point x="253" y="75"/>
			<point x="226" y="85"/>
			<point x="206" y="105" type="curve"/>
			<point x="426" y="349" type="line"/>
			<point x="431" y="322"/>
			<point x="432" y="289"/>
			<point x="426" y="251" type="curve" smooth="yes"/>
			<point x="425" y="244" type="line" smooth="yes"/>
			<point x="409" y="130"/>
			<point x="357" y="75"/>
		</contour>
	</outline>
</glyph>
<glyph name="aogonek" format="2">
	<unicode hex="0105"/>
	<advance width="600"/>
	<outline>
		<contour>
			<point x="204" y="-14" type="curve" smooth="yes"/>
			<point x="283" y="-14"/>
			<point x="336" y="28"/>
			<point x="375" y="90" type="curve"/>
			<point x="363" y="0" type="line"/>
			<point x="389" y="0" type="line"/>
			<point x="318" y="-24"/>
			<point x="277" y="-67"/>
			<point x="277" y="-121" type="curve" smooth="yes"/>
			<point x="277" y="-178"/>
			<point x="319" y="-203"/>
			<point x="390" y="-203" type="curve" smooth="yes"/>
			<point x="414" y="-203"/>
			<point x="439" y="-198"/>
			<point x="452" y="-193" type="curve"/>
			<point x="462" y="-121" type="line"/>
			<point x="454" y="-124"/>
			<point x="439" y="-126"/>
			<point x="424" y="-126" type="curve" smooth="yes"/>
			<point x="393" y="-126"/>
			<point x="372" y="-116"/>
			<point x="372" y="-88" type="curve" smooth="yes"/>
			<point x="372" y="-55"/>
			<point x="398" y="-24"/>
			<point x="470" y="0" type="curve"/>
			<point x="516" y="322" type="line" smooth="yes"/>
			<point x="537" y="475"/>
			<point x="453" y="537"/>
			<point x="318" y="537" type="curve" smooth="yes"/>
			<point x="243" y="537"/>
			<point x="173" y="518"/>
			<point x="122" y="492" type="curve"/>
			<point x="108" y="395" type="line"/>
			<point x="168" y="432"/>
			<point x="232" y="448"/>
			<point x="295" y="448" type="curve" smooth="yes"/>
			<point x="381" y="448"/>
			<point x="417" y="406"/>
			<point x="407" y="328" type="curve"/>
			<point x="295" y="312" type="line" smooth="yes"/>
			<point x="137" y="289"/>
			<point x="57" y="230"/>
			<point x="57" y="114" type="curve" smooth="yes"/>
			<point x="58" y="36"/>
			<point x="112" y="-14"/>
		</contour>
		<contour>
			<point x="252" y="67" type="curve" smooth="yes"/>
			<point x="200" y="67"/>
			<point x="165" y="94"/>
			<point x="165" y="139" type="curve" smooth="yes"/>
			<point x="164" y="195"/>
			<point x="206" y="226"/>
			<point x="301" y="241" type="curve" smooth="yes"/>
			<point x="396" y="255" type="line"/>
			<point x="387" y="193" type="line" smooth="yes"/>
			<point x="376" y="119"/>
			<point x="325" y="67"/>
		</contour>
	</outline>
</glyph>
<glyph name="dcaron" format="2">
	<unicode hex="010F"/>
	<advance width="600"/>
	<outline>
		<contour>
			<point x="208" y="-14" type="curve" smooth="yes"/>
			<point x="275" y="-14"/>
			<point x="334" y="21"/>
			<point x="375" y="103" type="curve"/>
			<point x="360" y="0" type="line"/>
			<point x="462" y="0" type="line"/>
			<point x="568" y="750" type="line"/>
			<point x="462" y="750" type="line"/>
			<point x="430" y="523" type="line"/>
			<point x="363" y="523" type="line" smooth="yes"/>
			<point x="189" y="523"/>
			<point x="82" y="424"/>
			<point x="59" y="262" type="curve" smooth="yes"/>
			<point x="57" y="248" type="line" smooth="yes"/>
			<point x="33" y="83"/>
			<point x="95" y="-14"/>
		</contour>
		<contour>
			<point x="593" y="568" type="line"/>
			<point x="654" y="568" type="line"/>
			<point x="737" y="750" type="line"/>
			<point x="638" y="750" type="line"/>
		</contour>
		<contour>
			<point x="260" y="71" type="curve" smooth="yes"/>
			<point x="187" y="71"/>
			<point x="149" y="137"/>
			<point x="165" y="252" type="curve" smooth="yes"/>
			<point x="166" y="259" type="line" smooth="yes"/>
			<point x="184" y="382"/>
			<point x="246" y="440"/>
			<point x="353" y="440" type="curve" smooth="yes"/>
			<point x="419" y="440" type="line"/>
			<point x="387" y="214" type="line" smooth="yes"/>
			<point x="376" y="130"/>
			<point x="328" y="71"/>
		</contour>
	</outline>
</glyph>
<glyph name="Eogonek" format="2">
	<unicode hex="0118"/>
	<advance width="600"/>
	<outline>
		<contour>
			<point x="420" y="-203" type="curve" smooth="yes"/>
			<point x="444" y="-203"/>
			<point x="469" y="-198"/>
			<point x="482" y="-193" type="curve"/>
			<point x="492" y="-121" type="line"/>
			<point x="484" y="-124"/>
			<point x="469" y="-126"/>
			<point x="454" y="-126" type="curve" smooth="yes"/>
			<point x="423" y="-126"/>
			<point x="402" y="-116"/>
			<point x="402" y="-88" type="curve" smooth="yes"/>
			<point x="402" y="-55"/>
			<point x="428" y="-24"/>
			<point x="500" y="0" type="curve"/>
			<point x="514" y="94" type="line"/>
			<point x="172" y="94" type="line"/>
			<point x="201" y="296" type="line"/>
			<point x="497" y="296" type="line"/>
			<point x="511" y="389" type="line"/>
			<point x="215" y="389" type="line"/>
			<point x="243" y="591" type="line"/>
			<point x="577" y="591" type="line"/>
			<point x="591" y="684" type="line"/>
			<point x="143" y="684" type="line"/>
			<point x="47" y="0" type="line"/>
			<point x="419" y="0" type="line"/>
			<point x="348" y="-24"/>
			<point x="307" y="-67"/>
			<point x="307" y="-121" type="curve" smooth="yes"/>
			<point x="307" y="-178"/>
			<point x="349" y="-203"/>
		</contour>
	</outline>
</glyph>
<glyph name="eogonek" format="2">
	<unicode hex="0119"/>
	<advance width="600"/>
	<outline>
		<contour>
			<point x="345" y="-203" type="curve" smooth="yes"/>
			<point x="369" y="-203"/>
			<point x="394" y="-198"/>
			<point x="407" y="-193" type="curve"/>
			<point x="417" y="-121" type="line"/>
			<point x="409" y="-124"/>
			<point x="394" y="-126"/>
			<point x="379" y="-126" type="curve" smooth="yes"/>
			<point x="348" y="-126"/>
			<point x="327" y="-116"/>
			<point x="327" y="-88" type="curve" smooth="yes"/>
			<point x="327" y="-55"/>
			<point x="353" y="-24"/>
			<point x="425" y="0" type="curve"/>
			<point x="424" y="0" type="line"/>
			<point x="448" y="6"/>
			<point x="467" y="14"/>
			<point x="483" y="23" type="curve"/>
			<point x="495" y="112" type="line"/>
			<point x="456" y="92"/>
			<point x="402" y="77"/>
			<point x="339" y="77" type="curve" smooth="yes"/>
			<point x="227" y="77"/>
			<point x="172" y="133"/>
			<point x="173" y="231" type="curve"/>
			<point x="531" y="231" type="line"/>
			<point x="537" y="271" type="line" smooth="yes"/>
			<point x="560" y="435"/>
			<point x="478" y="537"/>
			<point x="329" y="537" type="curve" smooth="yes"/>
			<point x="196" y="537"/>
			<point x="90" y="444"/>
			<point x="69" y="296" type="curve" smooth="yes"/>
			<point x="67" y="282" type="line" smooth="yes"/>
			<point x="44" y="118"/>
			<point x="116" y="-13"/>
			<point x="311" y="-14" type="curve"/>
			<point x="260" y="-40"/>
			<point x="232" y="-77"/>
			<point x="232" y="-121" type="curve" smooth="yes"/>
			<point x="232" y="-178"/>
			<point x="274" y="-203"/>
		</contour>
		<contour>
			<point x="323" y="456" type="curve" smooth="yes"/>
			<point x="399" y="456"/>
			<point x="442" y="402"/>
			<point x="433" y="307" type="curve"/>
			<point x="179" y="307" type="line"/>
			<point x="195" y="401"/>
			<point x="250" y="456"/>
		</contour>
	</outline>
</glyph>
<glyph name="Hbar" format="2">
	<unicode hex="0126"/>
	<advance width="600"/>
	<outline>
		<contour>
			<point x="31" y="0" type="line"/>
			<point x="143" y="0" type="line"/>
			<point x="183" y="287" type="line"/>
			<point x="423" y="287" type="line"/>
			<point x="383" y="0" type="line"/>
			<point x="495" y="0" type="line"/>
			<point x="563" y="488" type="line"/>
			<point x="632" y="488" type="line"/>
			<point x="642" y="559" type="line"/>
			<point x="573" y="559" type="line"/>
			<point x="591" y="684" type="line"/>
			<point x="479" y="684" type="line"/>
			<point x="461" y="559" type="line"/>
			<point x="221" y="559" type="line"/>
			<point x="239" y="684" type="line"/>
			<point x="127" y="684" type="line"/>
			<point x="109" y="559" type="line"/>
			<point x="42" y="559" type="line"/>
			<point x="32" y="488" type="line"/>
			<point x="99" y="488" type="line"/>
		</contour>
		<contour>
			<point x="197" y="382" type="line"/>
			<point x="211" y="488" type="line"/>
			<point x="451" y="488" type="line"/>
			<point x="437" y="382" type="line"/>
		</contour>
	</outline>
	<anchor name="center" x="337" y="528"/>
	<anchor name="bottom" x="284" y="0"/>
	<anchor name="top" x="359" y="684"/>
</glyph>
<glyph name="Iogonek" format="2">
	<unicode hex="012E"/>
	<advance width="600"/>
	<outline>
		<contour>
			<point x="41" y="0" type="line"/>
			<point x="403" y="0" type="line"/>
			<point x="332" y="-24"/>
			<point x="291" y="-67"/>
			<point x="291" y="-121" type="curve" smooth="yes"/>
			<point x="291" y="-178"/>
			<point x="333" y="-203"/>
			<point x="404" y="-203" type="curve" smooth="yes"/>
			<point x="428" y="-203"/>
			<point x="453" y="-198"/>
			<point x="466" y="-193" type="curve"/>
			<point x="476" y="-121" type="line"/>
			<point x="468" y="-124"/>
			<point x="453" y="-126"/>
			<point x="438" y="-126" type="curve" smooth="yes"/>
			<point x="407" y="-126"/>
			<point x="386" y="-116"/>
			<point x="386" y="-88" type="curve" smooth="yes"/>
			<point x="386" y="-55"/>
			<point x="412" y="-24"/>
			<point x="484" y="0" type="curve"/>
			<point x="498" y="91" type="line"/>
			<point x="332" y="91" type="line"/>
			<point x="403" y="593" type="line"/>
			<point x="568" y="593" type="line"/>
			<point x="581" y="684" type="line"/>
			<point x="137" y="684" type="line"/>
			<point x="124" y="593" type="line"/>
			<point x="290" y="593" type="line"/>
			<point x="219" y="91" type="line"/>
			<point x="54" y="91" type="line"/>
		</contour>
	</outline>
</glyph>
<glyph name="iogonek" format="2">
	<unicode hex="012F"/>
	<advance width="600"/>
	<outline>
		<contour>
			<point x="373" y="623" type="curve" smooth="yes"/>
			<point x="425" y="623"/>
			<point x="446" y="643"/>
			<point x="451" y="684" type="curve" smooth="yes"/>
			<point x="456" y="726"/>
			<point x="435" y="747"/>
			<point x="382" y="747" type="curve" smooth="yes"/>
			<point x="329" y="747"/>
			<point x="308" y="727"/>
			<point x="304" y="686" type="curve" smooth="yes"/>
			<point x="299" y="644"/>
			<point x="319" y="623"/>
		</contour>
		<contour>
			<point x="43" y="0" type="line"/>
			<point x="430" y="0" type="line"/>
			<point x="359" y="-24"/>
			<point x="318" y="-67"/>
			<point x="318" y="-121" type="curve" smooth="yes"/>
			<point x="318" y="-178"/>
			<point x="360" y="-203"/>
			<point x="431" y="-203" type="curve" smooth="yes"/>
			<point x="455" y="-203"/>
			<point x="480" y="-198"/>
			<point x="493" y="-193" type="curve"/>
			<point x="503" y="-121" type="line"/>
			<point x="495" y="-124"/>
			<point x="480" y="-126"/>
			<point x="465" y="-126" type="curve" smooth="yes"/>
			<point x="434" y="-126"/>
			<point x="413" y="-116"/>
			<point x="413" y="-88" type="curve" smooth="yes"/>
			<point x="413" y="-55"/>
			<point x="439" y="-24"/>
			<point x="511" y="0" type="curve"/>
			<point x="524" y="89" type="line"/>
			<point x="351" y="89" type="line"/>
			<point x="412" y="523" type="line"/>
			<point x="118" y="523" type="line"/>
			<point x="105" y="434" type="line"/>
			<point x="288" y="434" type="line"/>
			<point x="240" y="89" type="line"/>
			<point x="57" y="89" type="line"/>
		</contour>
	</outline>
</glyph>
<glyph name="dotlessi" format="2">
	<unicode hex="0131"/>
	<advance width="600"/>
	<outline>
		<contour>
			<point x="43" y="0" type="line"/>
			<point x="511" y="0" type="line"/>
			<point x="524" y="89" type="line"/>
			<point x="351" y="89" type="line"/>
			<point x="412" y="523" type="line"/>
			<point x="118" y="523" type="line"/>
			<point x="105" y="434" type="line"/>
			<point x="288" y="434" type="line"/>
			<point x="240" y="89" type="line"/>
			<point x="57" y="89" type="line"/>
		</contour>
	</outline>
	<anchor name="ogonek" x="511" y="0"/>
	<anchor name="top" x="356" y="523"/>
</glyph>
<glyph name="ij" format="2">
	<unicode hex="0133"/>
	<advance width="600"/>
	<outline>
		<contour>
			<point x="213" y="623" type="curve" smooth="yes"/>
			<point x="265" y="623"/>
			<point x="286" y="643"/>
			<point x="291" y="684" type="curve" smooth="yes"/>
			<point x="295" y="726"/>
			<point x="275" y="747"/>
			<point x="222" y="747" type="curve" smooth="yes"/>
			<point x="169" y="747"/>
			<point x="148" y="727"/>
			<point x="143" y="686" type="curve" smooth="yes"/>
			<point x="139" y="644"/>
			<point x="159" y="623"/>
		</contour>
		<contour>
			<point x="498" y="623" type="curve" smooth="yes"/>
			<point x="550" y="623"/>
			<point x="571" y="643"/>
			<point x="576" y="684" type="curve" smooth="yes"/>
			<point x="580" y="726"/>
			<point x="560" y="747"/>
			<point x="507" y="747" type="curve" smooth="yes"/>
			<point x="454" y="747"/>
			<point x="433" y="727"/>
			<point x="428" y="686" type="curve" smooth="yes"/>
			<point x="424" y="644"/>
			<point x="444" y="623"/>
		</contour>
		<contour>
			<point x="241" y="-204" type="curve" smooth="yes"/>
			<point x="349" y="-204"/>
			<point x="439" y="-161"/>
			<point x="459" y="-22" type="curve" smooth="yes"/>
			<point x="535" y="523" type="line"/>
			<point x="424" y="523" type="line"/>
			<point x="351" y="1" type="line" smooth="yes"/>
			<point x="340" y="-77"/>
			<point x="301" y="-112"/>
			<point x="225" y="-112" type="curve" smooth="yes"/>
			<point x="177" y="-112"/>
			<point x="136" y="-101"/>
			<point x="108" y="-88" type="curve"/>
			<point x="96" y="-175" type="line"/>
			<point x="125" y="-190"/>
			<point x="182" y="-204"/>
		</contour>
		<contour>
			<point x="65" y="0" type="line"/>
			<point x="176" y="0" type="line"/>
			<point x="250" y="523" type="line"/>
			<point x="139" y="523" type="line"/>
		</contour>
	</outline>
</glyph>
<glyph name="ldot" format="2">
	<unicode hex="0140"/>
	<advance width="600"/>
	<outline>
		<contour>
			<point x="34" y="0" type="line"/>
			<point x="501" y="0" type="line"/>
			<point x="514" y="89" type="line"/>
			<point x="341" y="89" type="line"/>
			<point x="435" y="750" type="line"/>
			<point x="142" y="750" type="line"/>
			<point x="129" y="661" type="line"/>
			<point x="312" y="661" type="line"/>
			<point x="230" y="89" type="line"/>
			<point x="47" y="89" type="line"/>
		</contour>
		<contour>
			<point x="610" y="295" type="curve" smooth="yes"/>
			<point x="665" y="295"/>
			<point x="685" y="324"/>
			<point x="692" y="372" type="curve" smooth="yes"/>
			<point x="701" y="426"/>
			<point x="680" y="458"/>
			<point x="624" y="458" type="curve" smooth="yes"/>
			<point x="570" y="458"/>
			<point x="549" y="431"/>
			<point x="542" y="382" type="curve" smooth="yes"/>
			<point x="534" y="328"/>
			<point x="553" y="295"/>
		</contour>
	</outline>
</glyph>
<glyph name="lslash" format="2">
	<unicode hex="0142"/>
	<advance width="600"/>
	<outline>
		<contour>
			<point x="34" y="0" type="line"/>
			<point x="501" y="0" type="line"/>
			<point x="514" y="89" type="line"/>
			<point x="341" y="89" type="line"/>
			<point x="379" y="356" type="line"/>
			<point x="546" y="416" type="line"/>
			<point x="557" y="500" type="line"/>
			<point x="391" y="440" type="line"/>
			<point x="435" y="750" type="line"/>
			<point x="142" y="750" type="line"/>
			<point x="129" y="661" type="line"/>
			<point x="312" y="661" type="line"/>
			<point x="274" y="398" type="line"/>
			<point x="107" y="337" type="line"/>
			<point x="95" y="253" type="line"/>
			<point x="262" y="313" type="line"/>
			<point x="230" y="89" type="line"/>
			<point x="47" y="89" type="line"/>
		</contour>
	</outline>
</glyph>
<glyph name="oe" format="2">
	<unicode hex="0153"/>
	<advance width="600"/>
	<outline>
		<contour>
			<point x="117" y="-14" type="curve" smooth="yes"/>
			<point x="178" y="-14"/>
			<point x="225" y="24"/>
			<point x="253" y="118" type="curve"/>
			<point x="269" y="25"/>
			<point x="325" y="-14"/>
			<point x="416" y="-14" type="curve" smooth="yes"/>
			<point x="467" y="-14"/>
			<point x="512" y="3"/>
			<point x="538" y="21" type="curve"/>
			<point x="550" y="108" type="line"/>
			<point x="512" y="83"/>
			<point x="474" y="72"/>
			<point x="437" y="72" type="curve" smooth="yes"/>
			<point x="363" y="72"/>
			<point x="332" y="117"/>
			<point x="345" y="235" type="curve"/>
			<point x="584" y="235" type="line"/>
			<point x="591" y="281" type="line" smooth="yes"/>
			<point x="611" y="428"/>
			<point x="579" y="537"/>
			<point x="460" y="537" type="curve" smooth="yes"/>
			<point x="407" y="537"/>
			<point x="363" y="510"/>
			<point x="329" y="454" type="curve"/>
			<point x="311" y="506"/>
			<point x="270" y="537"/>
			<point x="208" y="537" type="curve" smooth="yes"/>
			<point x="102" y="537"/>
			<point x="38" y="446"/>
			<point x="14" y="280" type="curve" smooth="yes"/>
			<point x="12" y="266" type="line" smooth="yes"/>
			<point x="-14" y="86"/>
			<point x="24" y="-14"/>
		</contour>
		<contour>
			<point x="449" y="457" type="curve" smooth="yes"/>
			<point x="499" y="457"/>
			<point x="510" y="391"/>
			<point x="500" y="301" type="curve"/>
			<point x="352" y="301" type="line"/>
			<point x="367" y="405"/>
			<point x="396" y="457"/>
		</contour>
		<contour>
			<point x="161" y="73" type="curve" smooth="yes"/>
			<point x="108" y="73"/>
			<point x="93" y="140"/>
			<point x="111" y="266" type="curve" smooth="yes"/>
			<point x="112" y="273" type="line" smooth="yes"/>
			<point x="130" y="405"/>
			<point x="159" y="455"/>
			<point x="206" y="455" type="curve" smooth="yes"/>
			<point x="259" y="455"/>
			<point x="273" y="394"/>
			<point x="253" y="257" type="curve" smooth="yes"/>
			<point x="252" y="250" type="line" smooth="yes"/>
			<point x="235" y="129"/>
			<point x="208" y="73"/>
		</contour>
	</outline>
</glyph>
<glyph name="Scedilla" format="2">
	<unicode hex="015E"/>
	<advance width="600"/>
	<outline>
		<contour>
			<point x="236" y="-224" type="curve" smooth="yes"/>
			<point x="312" y="-224"/>
			<point x="358" y="-187"/>
			<point x="359" y="-123" type="curve" smooth="yes"/>
			<point x="360" y="-76"/>
			<point x="334" y="-51"/>
			<point x="282" y="-47" type="curve"/>
			<point x="302" y="-14" type="line"/>
			<point x="443" y="-7"/>
			<point x="536" y="81"/>
			<point x="536" y="216" type="curve" smooth="yes"/>
			<point x="536" y="337"/>
			<point x="457" y="366"/>
			<point x="333" y="395" type="curve" smooth="yes"/>
			<point x="248" y="415"/>
			<point x="203" y="431"/>
			<point x="203" y="496" type="curve" smooth="yes"/>
			<point x="203" y="565"/>
			<point x="251" y="606"/>
			<point x="337" y="606" type="curve" smooth="yes"/>
			<point x="416" y="606"/>
			<point x="507" y="577"/>
			<point x="562" y="530" type="curve"/>
			<point x="577" y="629" type="line"/>
			<point x="526" y="667"/>
			<point x="443" y="697"/>
			<point x="338" y="697" type="curve" smooth="yes"/>
			<point x="181" y="697"/>
			<point x="90" y="608"/>
			<point x="90" y="474" type="curve" smooth="yes"/>
			<point x="90" y="341"/>
			<point x="186" y="313"/>
			<point x="294" y="289" type="curve" smooth="yes"/>
			<point x="373" y="272"/>
			<point x="423" y="262"/>
			<point x="423" y="194" type="curve" smooth="yes"/>
			<point x="423" y="123"/>
			<point x="369" y="79"/>
			<point x="285" y="79" type="curve" smooth="yes"/>
			<point x="203" y="79"/>
			<point x="119" y="111"/>
			<point x="58" y="173" type="curve"/>
			<point x="43" y="70" type="line"/>
			<point x="92" y="27"/>
			<point x="159" y="-3"/>
			<point x="239" y="-12" type="curve"/>
			<point x="192" y="-92" type="line"/>
			<point x="205" y="-90"/>
			<point x="216" y="-89"/>
			<point x="227" y="-89" type="curve" smooth="yes"/>
			<point x="264" y="-89"/>
			<point x="284" y="-99"/>
			<point x="284" y="-124" type="curve" smooth="yes"/>
			<point x="284" y="-153"/>
			<point x="263" y="-165"/>
			<point x="227" y="-165" type="curve" smooth="yes"/>
			<point x="199" y="-165"/>
			<point x="174" y="-157"/>
			<point x="154" y="-146" type="curve"/>
			<point x="146" y="-203" type="line"/>
			<point x="166" y="-215"/>
			<point x="201" y="-224"/>
		</contour>
	</outline>
</glyph>
<glyph name="scedilla" format="2">
	<unicode hex="015F"/>
	<advance width="600"/>
	<outline>
		<contour>
			<point x="232" y="-224" type="curve" smooth="yes"/>
			<point x="308" y="-224"/>
			<point x="354" y="-187"/>
			<point x="355" y="-123" type="curve" smooth="yes"/>
			<point x="356" y="-76"/>
			<point x="330" y="-51"/>
			<point x="278" y="-47" type="curve"/>
			<point x="298" y="-13" type="line"/>
			<point x="428" y="-6"/>
			<point x="500" y="60"/>
			<point x="500" y="168" type="curve" smooth="yes"/>
			<point x="500" y="270"/>
			<point x="421" y="291"/>
			<point x="317" y="312" type="curve" smooth="yes"/>
			<point x="242" y="328"/>
			<point x="209" y="336"/>
			<point x="209" y="380" type="curve" smooth="yes"/>
			<point x="209" y="427"/>
			<point x="249" y="453"/>
			<point x="317" y="453" type="curve" smooth="yes"/>
			<point x="388" y="453"/>
			<point x="476" y="430"/>
			<point x="528" y="389" type="curve"/>
			<point x="540" y="485" type="line"/>
			<point x="487" y="518"/>
			<point x="405" y="538"/>
			<point x="326" y="538" type="curve" smooth="yes"/>
			<point x="177" y="538"/>
			<point x="100" y="463"/>
			<point x="100" y="357" type="curve" smooth="yes"/>
			<point x="100" y="256"/>
			<point x="179" y="231"/>
			<point x="283" y="212" type="curve" smooth="yes"/>
			<point x="362" y="199"/>
			<point x="393" y="189"/>
			<point x="393" y="146" type="curve" smooth="yes"/>
			<point x="393" y="95"/>
			<point x="350" y="72"/>
			<point x="279" y="72" type="curve" smooth="yes"/>
			<point x="215" y="72"/>
			<point x="132" y="91"/>
			<point x="72" y="141" type="curve"/>
			<point x="59" y="47" type="line"/>
			<point x="98" y="17"/>
			<point x="161" y="-6"/>
			<point x="235" y="-12" type="curve"/>
			<point x="188" y="-92" type="line"/>
			<point x="201" y="-90"/>
			<point x="212" y="-89"/>
			<point x="223" y="-89" type="curve" smooth="yes"/>
			<point x="260" y="-89"/>
			<point x="280" y="-99"/>
			<point x="280" y="-124" type="curve" smooth="yes"/>
			<point x="280" y="-153"/>
			<point x="259" y="-165"/>
			<point x="223" y="-165" type="curve" smooth="yes"/>
			<point x="195" y="-165"/>
			<point x="170" y="-157"/>
			<point x="150" y="-146" type="curve"/>
			<point x="142" y="-203" type="line"/>
			<point x="162" y="-215"/>
			<point x="197" y="-224"/>
		</contour>
	</outline>
</glyph>
<glyph name="tcaron" format="2">
	<unicode hex="0165"/>
	<advance width="600"/>
	<outline>
		<contour>
			<point x="478" y="622" type="line"/>
			<point x="542" y="622" type="line"/>
			<point x="628" y="780" type="line"/>
			<point x="517" y="780" type="line"/>
		</contour>
		<contour>
			<point x="354" y="-12" type="curve" smooth="yes"/>
			<point x="406" y="-12"/>
			<point x="451" y="-1"/>
			<point x="475" y="11" type="curve"/>
			<point x="486" y="96" type="line"/>
			<point x="463" y="86"/>
			<point x="426" y="78"/>
			<point x="391" y="78" type="curve" smooth="yes"/>
			<point x="315" y="78"/>
			<point x="284" y="107"/>
			<point x="296" y="194" type="curve" smooth="yes"/>
			<point x="329" y="434" type="line"/>
			<point x="536" y="434" type="line"/>
			<point x="549" y="523" type="line"/>
			<point x="343" y="523" type="line"/>
			<point x="367" y="692" type="line"/>
			<point x="271" y="692" type="line"/>
			<point x="248" y="584" type="line" smooth="yes"/>
			<point x="236" y="528"/>
			<point x="211" y="518"/>
			<point x="172" y="518" type="curve" smooth="yes"/>
			<point x="91" y="518" type="line"/>
			<point x="80" y="434" type="line"/>
			<point x="219" y="434" type="line"/>
			<point x="184" y="181" type="line" smooth="yes"/>
			<point x="164" y="39"/>
			<point x="233" y="-12"/>
		</contour>
	</outline>
</glyph>
<glyph name="Tbar" format="2">
	<unicode hex="0166"/>
	<advance width="600"/>
	<outline>
		<contour>
			<point x="206" y="0" type="line"/>
			<point x="319" y="0" type="line"/>
			<point x="363" y="313" type="line"/>
			<point x="486" y="313" type="line"/>
			<point x="497" y="388" type="line"/>
			<point x="373" y="388" type="line"/>
			<point x="401" y="586" type="line"/>
			<point x="605" y="586" type="line"/>
			<point x="619" y="684" type="line"/>
			<point x="99" y="684" type="line"/>
			<point x="86" y="586" type="line"/>
			<point x="288" y="586" type="line"/>
			<point x="260" y="388" type="line"/>
			<point x="136" y="388" type="line"/>
			<point x="125" y="313" type="line"/>
			<point x="250" y="313" type="line"/>
		</contour>
	</outline>
</glyph>
<glyph name="uogonek" format="2">
	<unicode hex="0173"/>
	<advance width="600"/>
	<outline>
		<contour>
			<point x="400" y="-203" type="curve" smooth="yes"/>
			<point x="424" y="-203"/>
			<point x="449" y="-198"/>
			<point x="462" y="-193" type="curve"/>
			<point x="472" y="-121" type="line"/>
			<point x="464" y="-124"/>
			<point x="449" y="-126"/>
			<point x="434" y="-126" type="curve" smooth="yes"/>
			<point x="403" y="-126"/>
			<point x="382" y="-116"/>
			<point x="382" y="-88" type="curve" smooth="yes"/>
			<point x="382" y="-55"/>
			<point x="408" y="-24"/>
			<point x="480" y="0" type="curve"/>
			<point x="554" y="523" type="line"/>
			<point x="443" y="523" type="line"/>
			<point x="400" y="217" type="line" smooth="yes"/>
			<point x="395" y="182"/>
			<point x="384" y="152"/>
			<point x="368" y="128" type="curve" smooth="yes"/>
			<point x="346" y="96"/>
			<point x="314" y="77"/>
			<point x="270" y="77" type="curve" smooth="yes"/>
			<point x="203" y="77"/>
			<point x="170" y="119"/>
			<point x="182" y="205" type="curve" smooth="yes"/>
			<point x="227" y="523" type="line"/>
			<point x="116" y="523" type="line"/>
			<point x="69" y="187" type="line" smooth="yes"/>
			<point x="51" y="59"/>
			<point x="105" y="-14"/>
			<point x="211" y="-14" type="curve" smooth="yes"/>
			<point x="288" y="-14"/>
			<point x="349" y="28"/>
			<point x="388" y="101" type="curve"/>
			<point x="373" y="0" type="line"/>
			<point x="399" y="0" type="line"/>
			<point x="328" y="-24"/>
			<point x="287" y="-67"/>
			<point x="287" y="-121" type="curve" smooth="yes"/>
			<point x="287" y="-178"/>
			<point x="329" y="-203"/>
		</contour>
	</outline>
</glyph>
<glyph name="breve" format="2">
	<unicode hex="02D8"/>
	<advance width="600"/>
	<outline>
		<contour>
			<point x="350" y="593" type="curve" smooth="yes"/>
			<point x="458" y="593"/>
			<point x="509" y="635"/>
			<point x="524" y="750" type="curve"/>
			<point x="441" y="750" type="line"/>
			<point x="432" y="689"/>
			<point x="419" y="657"/>
			<point x="360" y="657" type="curve" smooth="yes"/>
			<point x="298" y="657"/>
			<point x="289" y="689"/>
			<point x="297" y="750" type="curve"/>
			<point x="214" y="750" type="line"/>
			<point x="198" y="640"/>
			<point x="244" y="593"/>
		</contour>
	</outline>
	<anchor name="_top" x="338" y="523"/>
</glyph>
<glyph name="dotaccent" format="2">
	<unicode hex="02D9"/>
	<advance width="600"/>
	<outline>
		<contour>
			<point x="353" y="615" type="curve" smooth="yes"/>
			<point x="406" y="615"/>
			<point x="427" y="635"/>
			<point x="432" y="677" type="curve" smooth="yes"/>
			<point x="437" y="719"/>
			<point x="416" y="740"/>
			<point x="365" y="740" type="curve" smooth="yes"/>
			<point x="311" y="740"/>
			<point x="289" y="720"/>
			<point x="285" y="679" type="curve" smooth="yes"/>
			<point x="280" y="637"/>
			<point x="301" y="615"/>
		</contour>
	</outline>
	<anchor name="_top" x="337" y="523"/>
</glyph>
<glyph name="ring" format="2">
	<unicode hex="02DA"/>
	<advance width="600"/>
	<outline>
		<contour>
			<point x="357" y="592" type="curve" smooth="yes"/>
			<point x="440" y="592"/>
			<point x="491" y="642"/>
			<point x="491" y="722" type="curve" smooth="yes"/>
			<point x="491" y="792"/>
			<point x="447" y="832"/>
			<point x="370" y="832" type="curve" smooth="yes"/>
			<point x="287" y="832"/>
			<point x="236" y="781"/>
			<point x="236" y="702" type="curve" smooth="yes"/>
			<point x="236" y="631"/>
			<point x="278" y="592"/>
		</contour>
		<contour>
			<point x="359" y="646" type="curve" smooth="yes"/>
			<point x="317" y="646"/>
			<point x="298" y="669"/>
			<point x="298" y="705" type="curve" smooth="yes"/>
			<point x="298" y="752"/>
			<point x="322" y="778"/>
			<point x="369" y="778" type="curve" smooth="yes"/>
			<point x="411" y="778"/>
			<point x="428" y="755"/>
			<point x="428" y="720" type="curve" smooth="yes"/>
			<point x="428" y="672"/>
			<point x="405" y="646"/>
		</contour>
	</outline>
	<anchor name="_top" x="337" y="523"/>
</glyph>
<glyph name="quoteleft" format="2">
	<unicode hex="2018"/>
	<advance width="600"/>
	<outline>
		<contour>
			<point x="370" y="459" type="line"/>
			<point x="461" y="750" type="line"/>
			<point x="385" y="750" type="line"/>
			<point x="233" y="459" type="line"/>
		</contour>
	</outline>
</glyph>
<glyph name="quoteright" format="2">
	<unicode hex="2019"/>
	<advance width="600"/>
	<outline>
		<contour>
			<point x="326" y="750" type="line"/>
			<point x="236" y="459" type="line"/>
			<point x="312" y="459" type="line"/>
			<point x="464" y="750" type="line"/>
		</contour>
	</outline>
</glyph>
<glyph name="quotesinglbase" format="2">
	<unicode hex="201A"/>
	<advance width="600"/>
	<outline>
		<contour>
			<point x="240" y="133" type="line"/>
			<point x="150" y="-158" type="line"/>
			<point x="226" y="-158" type="line"/>
			<point x="377" y="133" type="line"/>
		</contour>
	</outline>
</glyph>
<glyph name="quotedblleft" format="2">
	<unicode hex="201C"/>
	<advance width="600"/>
	<outline>
		<contour>
			<point x="457" y="459" type="line"/>
			<point x="547" y="750" type="line"/>
			<point x="472" y="750" type="line"/>
			<point x="323" y="459" type="line"/>
		</contour>
		<contour>
			<point x="260" y="459" type="line"/>
			<point x="349" y="750" type="line"/>
			<point x="275" y="750" type="line"/>
			<point x="125" y="459" type="line"/>
		</contour>
	</outline>
</glyph>
<glyph name="dagger" format="2">
	<unicode hex="2020"/>
	<advance width="600"/>
	<outline>
		<contour>
			<point x="113" y="570" type="line"/>
			<point x="99" y="470" type="line"/>
			<point x="274" y="470" type="line"/>
			<point x="188" y="-143" type="line"/>
			<point x="297" y="-143" type="line"/>
			<point x="383" y="470" type="line"/>
			<point x="559" y="470" type="line"/>
			<point x="573" y="570" type="line"/>
			<point x="398" y="570" type="line"/>
			<point x="425" y="765" type="line"/>
			<point x="316" y="765" type="line"/>
			<point x="289" y="570" type="line"/>
		</contour>
	</outline>
</glyph>
<glyph name="perthousand" format="2">
	<unicode hex="2030"/>
	<advance width="600"/>
	<outline>
		<contour>
			<point x="177" y="393" type="curve" smooth="yes"/>
			<point x="255" y="393"/>
			<point x="308" y="444"/>
			<point x="321" y="533" type="curve" smooth="yes"/>
			<point x="337" y="644"/>
			<point x="279" y="691"/>
			<point x="199" y="691" type="curve" smooth="yes"/>
			<point x="122" y="691"/>
			<point x="69" y="640"/>
			<point x="57" y="552" type="curve" smooth="yes"/>
			<point x="40" y="441"/>
			<point x="97" y="393"/>
		</contour>
		<contour>
			<point x="180" y="451" type="curve" smooth="yes"/>
			<point x="133" y="451"/>
			<point x="118" y="484"/>
			<point x="127" y="545" type="curve" smooth="yes"/>
			<point x="134" y="601"/>
			<point x="156" y="634"/>
			<point x="197" y="634" type="curve" smooth="yes"/>
			<point x="243" y="634"/>
			<point x="258" y="600"/>
			<point x="250" y="539" type="curve" smooth="yes"/>
			<point x="242" y="484"/>
			<point x="221" y="451"/>
		</contour>
		<contour>
			<point x="19" y="263" type="line"/>
			<point x="589" y="406" type="line"/>
			<point x="598" y="469" type="line"/>
			<point x="28" y="325" type="line"/>
		</contour>
		<contour>
			<point x="224" y="-7" type="curve" smooth="yes"/>
			<point x="265" y="-7"/>
			<point x="300" y="8"/>
			<point x="325" y="36" type="curve"/>
			<point x="346" y="7"/>
			<point x="381" y="-7"/>
			<point x="422" y="-7" type="curve" smooth="yes"/>
			<point x="499" y="-7"/>
			<point x="553" y="44"/>
			<point x="565" y="133" type="curve" smooth="yes"/>
			<point x="582" y="244"/>
			<point x="526" y="291"/>
			<point x="448" y="291" type="curve" smooth="yes"/>
			<point x="407" y="291"/>
			<point x="372" y="276"/>
			<point x="347" y="248" type="curve"/>
			<point x="325" y="278"/>
			<point x="291" y="291"/>
			<point x="249" y="291" type="curve" smooth="yes"/>
			<point x="171" y="291"/>
			<point x="119" y="240"/>
			<point x="106" y="152" type="curve" smooth="yes"/>
			<point x="90" y="41"/>
			<point x="146" y="-7"/>
		</contour>
		<contour>
			<point x="229" y="51" type="curve" smooth="yes"/>
			<point x="182" y="51"/>
			<point x="167" y="84"/>
			<point x="176" y="145" type="curve" smooth="yes"/>
			<point x="184" y="201"/>
			<point x="205" y="234"/>
			<point x="246" y="234" type="curve" smooth="yes"/>
			<point x="292" y="234"/>
			<point x="307" y="200"/>
			<point x="298" y="139" type="curve" smooth="yes"/>
			<point x="291" y="84"/>
			<point x="270" y="51"/>
		</contour>
		<contour>
			<point x="424" y="51" type="curve" smooth="yes"/>
			<point x="378" y="51"/>
			<point x="363" y="84"/>
			<point x="371" y="145" type="curve" smooth="yes"/>
			<point x="380" y="201"/>
			<point x="400" y="234"/>
			<point x="441" y="234" type="curve" smooth="yes"/>
			<point x="488" y="234"/>
			<point x="503" y="200"/>
			<point x="494" y="139" type="curve" smooth="yes"/>
			<point x="487" y="84"/>
			<point x="466" y="51"/>
		</contour>
	</outline>
</glyph>
<glyph name="Euro" format="2">
	<unicode hex="20AC"/>
	<advance width="600"/>
	<outline>
		<contour>
			<point x="21" y="235" type="line"/>
			<point x="110" y="235" type="line"/>
			<point x="128" y="87"/>
			<point x="220" y="-12"/>
			<point x="390" y="-12" type="curve" smooth="yes"/>
			<point x="445" y="-12"/>
			<point x="486" y="-2"/>
			<point x="519" y="14" type="curve"/>
			<point x="532" y="111" type="line"/>
			<point x="493" y="92"/>
			<point x="451" y="84"/>
			<point x="406" y="84" type="curve" smooth="yes"/>
			<point x="302" y="84"/>
			<point x="246" y="143"/>
			<point x="229" y="235" type="curve"/>
			<point x="451" y="235" type="line"/>
			<point x="461" y="307" type="line"/>
			<point x="225" y="307" type="line"/>
			<point x="225" y="327"/>
			<point x="227" y="348"/>
			<point x="230" y="370" type="curve" smooth="yes"/>
			<point x="231" y="377" type="line" smooth="yes"/>
			<point x="471" y="377" type="line"/>
			<point x="481" y="448" type="line"/>
			<point x="246" y="448" type="line"/>
			<point x="278" y="552"/>
			<point x="346" y="601"/>
			<point x="445" y="601" type="curve" smooth="yes"/>
			<point x="500" y="601"/>
			<point x="552" y="588"/>
			<point x="596" y="558" type="curve"/>
			<point x="609" y="653" type="line"/>
			<point x="571" y="677"/>
			<point x="514" y="695"/>
			<point x="440" y="695" type="curve" smooth="yes"/>
			<point x="275" y="695"/>
			<point x="167" y="604"/>
			<point x="126" y="448" type="curve"/>
			<point x="52" y="448" type="line"/>
			<point x="41" y="377" type="line"/>
			<point x="113" y="377" type="line"/>
			<point x="113" y="376" type="line" smooth="yes"/>
			<point x="110" y="352"/>
			<point x="108" y="329"/>
			<point x="107" y="307" type="curve"/>
			<point x="31" y="307" type="line"/>
		</contour>
	</outline>
</glyph>
<glyph name="servicemark" format="2">
	<unicode hex="2120"/>
	<advance width="600"/>
	<outline>
		<contour>
			<point x="154" y="337" type="curve" smooth="yes"/>
			<point x="230" y="337"/>
			<point x="283" y="383"/>
			<point x="283" y="453" type="curve" smooth="yes"/>
			<point x="283" y="512"/>
			<point x="246" y="525"/>
			<point x="191" y="541" type="curve" smooth="yes"/>
			<point x="147" y="554"/>
			<point x="130" y="561"/>
			<point x="130" y="589" type="curve" smooth="yes"/>
			<point x="130" y="621"/>
			<point x="151" y="639"/>
			<point x="192" y="639" type="curve" smooth="yes"/>
			<point x="238" y="639"/>
			<point x="275" y="623"/>
			<point x="298" y="602" type="curve"/>
			<point x="306" y="659" type="line"/>
			<point x="292" y="671"/>
			<point x="252" y="689"/>
			<point x="198" y="689" type="curve" smooth="yes"/>
			<point x="113" y="689"/>
			<point x="69" y="640"/>
			<point x="69" y="575" type="curve" smooth="yes"/>
			<point x="69" y="511"/>
			<point x="114" y="498"/>
			<point x="165" y="485" type="curve" smooth="yes"/>
			<point x="200" y="476"/>
			<point x="222" y="468"/>
			<point x="222" y="439" type="curve" smooth="yes"/>
			<point x="222" y="408"/>
			<point x="197" y="388"/>
			<point x="157" y="388" type="curve" smooth="yes"/>
			<point x="118" y="388"/>
			<point x="80" y="404"/>
			<point x="53" y="428" type="curve"/>
			<point x="44" y="371" type="line"/>
			<point x="61" y="358"/>
			<point x="100" y="337"/>
		</contour>
		<contour>
			<point x="304" y="342" type="line"/>
			<point x="358" y="342" type="line"/>
			<point x="379" y="492" type="line" smooth="yes"/>
			<point x="385" y="540"/>
			<point x="389" y="580"/>
			<point x="390" y="622" type="curve"/>
			<point x="395" y="622" type="line"/>
			<point x="421" y="432" type="line"/>
			<point x="475" y="432" type="line"/>
			<point x="557" y="622" type="line"/>
			<point x="561" y="622" type="line"/>
			<point x="550" y="576"/>
			<point x="542" y="536"/>
			<point x="536" y="492" type="curve" smooth="yes"/>
			<point x="516" y="342" type="line"/>
			<point x="570" y="342" type="line"/>
			<point x="618" y="684" type="line"/>
			<point x="533" y="684" type="line"/>
			<point x="457" y="495" type="line"/>
			<point x="455" y="495" type="line"/>
			<point x="433" y="684" type="line"/>
			<point x="352" y="684" type="line"/>
		</contour>
	</outline>
</glyph>
<glyph name="arrowright" format="2">
	<unicode hex="2192"/>
	<advance width="600"/>
	<outline>
		<contour>
			<point x="286" y="580" type="line"/>
			<point x="443" y="400" type="line"/>
			<point x="56" y="400" type="line"/>
			<point x="43" y="308" type="line"/>
			<point x="430" y="308" type="line"/>
			<point x="224" y="129" type="line"/>
			<point x="340" y="129" type="line"/>
			<point x="597" y="354" type="line"/>
			<point x="402" y="580" type="line"/>
		</contour>
	</outline>
</glyph>
<glyph name="uni2197" format="2">
	<unicode hex="2197"/>
	<advance width="600"/>
	<outline>
		<contour>
			<point x="60" y="68" type="line"/>
			<point x="505" y="460" type="line"/>
			<point x="466" y="193" type="line"/>
			<point x="561" y="276" type="line"/>
			<point x="608" y="610" type="line"/>
			<point x="273" y="610" type="line"/>
			<point x="179" y="528" type="line"/>
			<point x="448" y="530" type="line"/>
			<point x="1" y="137" type="line"/>
		</contour>
	</outline>
</glyph>
<glyph name="uni2199" format="2">
	<unicode hex="2199"/>
	<advance width="600"/>
	<outline>
		<contour>
			<point x="14" y="70" type="line"/>
			<point x="349" y="70" type="line"/>
			<point x="443" y="151" type="line"/>
			<point x="174" y="149" type="line"/>
			<point x="621" y="542" type="line"/>
			<point x="562" y="610" type="line"/>
			<point x="117" y="218" type="line"/>
			<point x="156" y="486" type="line"/>
			<point x="61" y="404" type="line"/>
		</contour>
	</outline>
</glyph>
<glyph name="summation" format="2">
	<unicode hex="2211"/>
	<advance width="600"/>
	<outline>
		<contour>
			<point x="26" y="0" type="line"/>
			<point x="502" y="0" type="line"/>
			<point x="515" y="94" type="line"/>
			<point x="183" y="94" type="line"/>
			<point x="439" y="304" type="line"/>
			<point x="450" y="383" type="line"/>
			<point x="253" y="591" type="line"/>
			<point x="580" y="591" type="line"/>
			<point x="592" y="684" type="line"/>
			<point x="123" y="684" type="line"/>
			<point x="111" y="593" type="line"/>
			<point x="347" y="347" type="line"/>
			<point x="40" y="96" type="line"/>
		</contour>
	</outline>
</glyph>
<glyph name="minus" format="2">
	<unicode hex="2212"/>
	<advance width="600"/>
	<outline>
		<contour>
			<point x="69" y="251" type="line"/>
			<point x="527" y="251" type="line"/>
			<point x="540" y="346" type="line"/>
			<point x="83" y="346" type="line"/>
		</contour>
	</outline>
</glyph>
<glyph name="integral" format="2">
	<unicode hex="222B"/>
	<advance width="600"/>
	<outline>
		<contour>
			<point x="103" y="-204" type="curve" smooth="yes"/>
			<point x="204" y="-204"/>
			<point x="285" y="-158"/>
			<point x="303" y="-30" type="curve" smooth="yes"/>
			<point x="377" y="499" type="line" smooth="yes"/>
			<point x="388" y="581"/>
			<point x="428" y="609"/>
			<point x="489" y="609" type="curve" smooth="yes"/>
			<point x="522" y="609"/>
			<point x="547" y="602"/>
			<point x="561" y="597" type="curve"/>
			<point x="572" y="679" type="line"/>
			<point x="553" y="689"/>
			<point x="517" y="696"/>
			<point x="471" y="696" type="curve" smooth="yes"/>
			<point x="369" y="696"/>
			<point x="288" y="650"/>
			<point x="269" y="514" type="curve" smooth="yes"/>
			<point x="194" y="-20" type="line" smooth="yes"/>
			<point x="185" y="-89"/>
			<point x="154" y="-120"/>
			<point x="86" y="-120" type="curve" smooth="yes"/>
			<point x="60" y="-120"/>
			<point x="32" y="-115"/>
			<point x="9" y="-107" type="curve"/>
			<point x="-2" y="-185" type="line"/>
			<point x="19" y="-195"/>
			<point x="60" y="-204"/>
		</contour>
	</outline>
</glyph>
<glyph name="greaterequal" format="2">
	<unicode hex="2265"/>
	<advance width="600"/>
	<outline>
		<contour>
			<point x="55" y="143" type="line"/>
			<point x="538" y="326" type="line"/>
			<point x="555" y="447" type="line"/>
			<point x="124" y="630" type="line"/>
			<point x="109" y="528" type="line"/>
			<point x="454" y="389" type="line"/>
			<point x="70" y="249" type="line"/>
		</contour>
		<contour>
			<point x="34" y="0" type="line"/>
			<point x="492" y="0" type="line"/>
			<point x="505" y="95" type="line"/>
			<point x="48" y="95" type="line"/>
		</contour>
	</outline>
</glyph>
<glyph name="lozenge" format="2">
	<unicode hex="25CA"/>
	<advance width="600"/>
	<outline>
		<contour>
			<point x="194" y="0" type="line"/>
			<point x="334" y="0" type="line"/>
			<point x="584" y="337" type="line"/>
			<point x="430" y="684" type="line"/>
			<point x="290" y="684" type="line"/>
			<point x="38" y="343" type="line"/>
		</contour>
		<contour>
			<point x="159" y="340" type="line"/>
			<point x="352" y="606" type="line"/>
			<point x="464" y="344" type="line"/>
			<point x="273" y="79" type="line"/>
		</contour>
	</outline>
</glyph>
<glyph name="anglebracketleft" format="2">
	<unicode hex="3008"/>
	<advance width="600"/>
	<outline>
		<contour>
			<point x="359" y="-163" type="line"/>
			<point x="475" y="-163" type="line"/>
			<point x="250" y="310" type="line"/>
			<point x="613" y="792" type="line"/>
			<point x="491" y="792" type="line"/>
			<point x="134" y="316" type="line"/>
		</contour>
	</outline>
</glyph>
<glyph name="commaaccent" format="2">
	<unicode hex="F6C3"/>
	<advance width="600"/>
	<outline>
		<contour>
			<point x="165" y="-276" type="curve"/>
			<point x="237" y="-276" type="line"/>
			<point x="273" y="-245"/>
			<point x="303" y="-197"/>
			<point x="312" y="-143" type="curve" smooth="yes"/>
			<point x="322" y="-83"/>
			<point x="303" y="-58"/>
			<point x="248" y="-58" type="curve" smooth="yes"/>
			<point x="203" y="-58"/>
			<point x="184" y="-75"/>
			<point x="179" y="-113" type="curve" smooth="yes"/>
			<point x="175" y="-150"/>
			<point x="189" y="-170"/>
			<point x="224" y="-173" type="curve"/>
			<point x="213" y="-207"/>
			<point x="190" y="-244"/>
		</contour>
	</outline>
	<anchor name="_bottom" x="264" y="0"/>
</glyph>
<glyph name="Anocross" format="2">
	<advance width="600"/>
	<outline>
		<contour>
			<point x="-19" y="0" type="line"/>
			<point x="100" y="0" type="line"/>
			<point x="348" y="599" type="line"/>
			<point x="430" y="0" type="line"/>
			<point x="545" y="0" type="line"/>
			<point x="436" y="686" type="line"/>
			<point x="281" y="686" type="line"/>
		</contour>
	</outline>
	<anchor name="ogonek" x="545" y="0"/>
	<anchor name="bottom" x="288" y="0"/>
	<anchor name="top" x="358" y="684"/>
</glyph>
<glyph name="Lslashcomb" format="2">
	<advance width="600"/>
	<outline>
		<contour>
			<point x="22" y="398" type="line"/>
			<point x="10" y="314" type="line"/>
			<point x="397" y="457" type="line"/>
			<point x="409" y="542" type="line"/>
		</contour>
	</outline>
	<anchor name="_center" x="157" y="403"/>
</glyph>
<glyph name="a.ss01" format="2">
	<advance width="600"/>
	<outline>
		<contour>
			<point x="218" y="-14" type="curve" smooth="yes"/>
			<point x="287" y="-14"/>
			<point x="348" y="22"/>
			<point x="390" y="106" type="curve"/>
			<point x="374" y="0" type="line"/>
			<point x="482" y="0" type="line"/>
			<point x="555" y="523" type="line"/>
			<point x="374" y="523" type="line" smooth="yes"/>
			<point x="197" y="523"/>
			<point x="84" y="424"/>
			<point x="61" y="262" type="curve" smooth="yes"/>
			<point x="59" y="248" type="line" smooth="yes"/>
			<point x="35" y="82"/>
			<point x="99" y="-14"/>
		</contour>
		<contour>
			<point x="172" y="252" type="curve" smooth="yes"/>
			<point x="173" y="259" type="line"/>
			<point x="191" y="379"/>
			<point x="256" y="435"/>
			<point x="364" y="435" type="curve" smooth="yes"/>
			<point x="432" y="435" type="line"/>
			<point x="402" y="218" type="line" smooth="yes"/>
			<point x="390" y="134"/>
			<point x="343" y="75"/>
			<point x="270" y="75" type="curve" smooth="yes"/>
			<point x="194" y="75"/>
			<point x="156" y="139"/>
		</contour>
	</outline>
	<anchor name="ogonek" x="482" y="0"/>
	<anchor name="bottom" x="259" y="-2"/>
	<anchor name="top" x="362" y="523"/>
</glyph>
<glyph name="acute.cap" format="2">
	<advance width="600"/>
	<outline>
		<contour>
			<point x="276" y="746" type="line"/>
			<point x="365" y="746" type="line"/>
			<point x="479" y="884" type="line"/>
			<point x="355" y="884" type="line"/>
		</contour>
	</outline>
	<anchor name="_top" x="312" y="684"/>
</glyph>
<glyph name="ampersand_ampersand_ampersand.rem" format="2">
	<advance width="600"/>
	<outline>
		<contour>
			<point x="-851" y="-14" type="curve" smooth="yes"/>
			<point x="-759" y="-14"/>
			<point x="-676" y="23"/>
			<point x="-614" y="86" type="curve"/>
			<point x="-583" y="24"/>
			<point x="-515" y="-14"/>
			<point x="-420" y="-14" type="curve" smooth="yes"/>
			<point x="-327" y="-14"/>
			<point x="-244" y="23"/>
			<point x="-181" y="85" type="curve"/>
			<point x="-151" y="23"/>
			<point x="-83" y="-14"/>
			<point x="12" y="-14" type="curve" smooth="yes"/>
			<point x="103" y="-14"/>
			<point x="180" y="18"/>
			<point x="242" y="71" type="curve"/>
			<point x="303" y="0" type="line"/>
			<point x="429" y="0" type="line"/>
			<point x="308" y="144" type="line"/>
			<point x="359" y="212"/>
			<point x="396" y="298"/>
			<point x="421" y="394" type="curve"/>
			<point x="327" y="394" type="line"/>
			<point x="308" y="321"/>
			<point x="283" y="260"/>
			<point x="252" y="210" type="curve"/>
			<point x="108" y="383" type="line" smooth="yes"/>
			<point x="71" y="426"/>
			<point x="55" y="459"/>
			<point x="56" y="503" type="curve" smooth="yes"/>
			<point x="58" y="565"/>
			<point x="100" y="607"/>
			<point x="170" y="607" type="curve" smooth="yes"/>
			<point x="227" y="607"/>
			<point x="284" y="580"/>
			<point x="321" y="550" type="curve"/>
			<point x="335" y="647" type="line"/>
			<point x="300" y="674"/>
			<point x="236" y="698"/>
			<point x="169" y="698" type="curve" smooth="yes"/>
			<point x="38" y="698"/>
			<point x="-42" y="616"/>
			<point x="-48" y="508" type="curve" smooth="yes"/>
			<point x="-50" y="473"/>
			<point x="-44" y="440"/>
			<point x="-30" y="409" type="curve"/>
			<point x="-104" y="376"/>
			<point x="-169" y="315"/>
			<point x="-192" y="230" type="curve"/>
			<point x="-329" y="383" type="line" smooth="yes"/>
			<point x="-365" y="423"/>
			<point x="-381" y="459"/>
			<point x="-380" y="503" type="curve" smooth="yes"/>
			<point x="-378" y="565"/>
			<point x="-336" y="607"/>
			<point x="-268" y="607" type="curve" smooth="yes"/>
			<point x="-214" y="607"/>
			<point x="-161" y="582"/>
			<point x="-127" y="554" type="curve"/>
			<point x="-113" y="650" type="line"/>
			<point x="-146" y="676"/>
			<point x="-203" y="698"/>
			<point x="-269" y="698" type="curve" smooth="yes"/>
			<point x="-398" y="698"/>
			<point x="-478" y="616"/>
			<point x="-484" y="508" type="curve" smooth="yes"/>
			<point x="-486" y="472"/>
			<point x="-480" y="438"/>
			<point x="-466" y="406" type="curve"/>
			<point x="-539" y="374"/>
			<point x="-604" y="313"/>
			<point x="-625" y="229" type="curve"/>
			<point x="-763" y="383" type="line" smooth="yes"/>
			<point x="-800" y="423"/>
			<point x="-816" y="460"/>
			<point x="-815" y="503" type="curve" smooth="yes"/>
			<point x="-813" y="566"/>
			<point x="-771" y="607"/>
			<point x="-703" y="607" type="curve" smooth="yes"/>
			<point x="-649" y="607"/>
			<point x="-597" y="582"/>
			<point x="-562" y="554" type="curve"/>
			<point x="-544" y="650" type="line"/>
			<point x="-578" y="676"/>
			<point x="-639" y="698"/>
			<point x="-704" y="698" type="curve" smooth="yes"/>
			<point x="-834" y="698"/>
			<point x="-913" y="616"/>
			<point x="-919" y="509" type="curve" smooth="yes"/>
			<point x="-921" y="472"/>
			<point x="-915" y="437"/>
			<point x="-901" y="405" type="curve"/>
			<point x="-986" y="366"/>
			<point x="-1057" y="292"/>
			<point x="-1063" y="182" type="curve" smooth="yes"/>
			<point x="-1070" y="67"/>
			<point x="-987" y="-14"/>
		</contour>
		<contour>
			<point x="-100" y="188" type="curve" smooth="yes"/>
			<point x="-98" y="259"/>
			<point x="-51" y="315"/>
			<point x="14" y="338" type="curve"/>
			<point x="17" y="334"/>
			<point x="20" y="330"/>
			<point x="24" y="326" type="curve" smooth="yes"/>
			<point x="189" y="133" type="line"/>
			<point x="145" y="94"/>
			<point x="93" y="73"/>
			<point x="34" y="73" type="curve" smooth="yes"/>
			<point x="-59" y="73"/>
			<point x="-103" y="120"/>
		</contour>
		<contour>
			<point x="-532" y="189" type="curve" smooth="yes"/>
			<point x="-530" y="260"/>
			<point x="-485" y="313"/>
			<point x="-423" y="337" type="curve"/>
			<point x="-420" y="333"/>
			<point x="-417" y="330"/>
			<point x="-413" y="326" type="curve" smooth="yes"/>
			<point x="-239" y="140" type="line"/>
			<point x="-285" y="96"/>
			<point x="-341" y="73"/>
			<point x="-401" y="73" type="curve" smooth="yes"/>
			<point x="-492" y="73"/>
			<point x="-535" y="122"/>
		</contour>
		<contour>
			<point x="-963" y="190" type="curve" smooth="yes"/>
			<point x="-962" y="260"/>
			<point x="-917" y="313"/>
			<point x="-857" y="337" type="curve"/>
			<point x="-854" y="333"/>
			<point x="-851" y="330"/>
			<point x="-847" y="326" type="curve" smooth="yes"/>
			<point x="-672" y="140" type="line"/>
			<point x="-718" y="96"/>
			<point x="-773" y="73"/>
			<point x="-833" y="73" type="curve" smooth="yes"/>
			<point x="-921" y="73"/>
			<point x="-966" y="122"/>
		</contour>
	</outline>
</glyph>
<glyph name="asciicircum_equal.cLig" format="2">
	<advance width="600"/>
	<outline>
		<contour>
			<point x="-439" y="360" type="line"/>
			<point x="-336" y="360" type="line"/>
			<point x="-169" y="619" type="line"/>
			<point x="-78" y="360" type="line"/>
			<point x="-26" y="360" type="line"/>
			<point x="-27" y="355" type="line"/>
			<point x="431" y="355" type="line"/>
			<point x="444" y="450" type="line"/>
			<point x="-11" y="450" type="line"/>
			<point x="-108" y="706" type="line"/>
			<point x="-211" y="706" type="line"/>
		</contour>
		<contour>
			<point x="-57" y="138" type="line"/>
			<point x="401" y="138" type="line"/>
			<point x="414" y="233" type="line"/>
			<point x="-43" y="233" type="line"/>
		</contour>
	</outline>
</glyph>
<glyph name="asciitilde_asciitilde.cLig" format="2">
	<advance width="600"/>
	<outline>
		<contour>
			<point x="-100" y="203" type="curve"/>
			<point x="16" y="203"/>
			<point x="32" y="328"/>
			<point x="109" y="328" type="curve"/>
			<point x="188" y="328"/>
			<point x="189" y="203"/>
			<point x="318" y="203" type="curve"/>
			<point x="411" y="203"/>
			<point x="475" y="283"/>
			<point x="508" y="423" type="curve"/>
			<point x="418" y="423" type="line"/>
			<point x="396" y="348"/>
			<point x="368" y="305"/>
			<point x="319" y="304" type="curve"/>
			<point x="235" y="305"/>
			<point x="245" y="428"/>
			<point x="115" y="428" type="curve"/>
			<point x="-7" y="428"/>
			<point x="-19" y="304"/>
			<point x="-95" y="304" type="curve"/>
			<point x="-170" y="304"/>
			<point x="-168" y="428"/>
			<point x="-293" y="428" type="curve"/>
			<point x="-391" y="428"/>
			<point x="-458" y="349"/>
			<point x="-491" y="209" type="curve"/>
			<point x="-401" y="209" type="line"/>
			<point x="-380" y="284"/>
			<point x="-350" y="327"/>
			<point x="-296" y="327" type="curve"/>
			<point x="-217" y="327"/>
			<point x="-221" y="203"/>
		</contour>
	</outline>
</glyph>
<glyph name="asciitilde_at.cLig" format="2">
	<advance width="600"/>
	<outline>
		<contour>
			<point x="351" y="-16" type="curve"/>
			<point x="453" y="-16"/>
			<point x="516" y="78"/>
			<point x="542" y="261" type="curve" smooth="yes"/>
			<point x="544" y="275" type="line" smooth="yes"/>
			<point x="583" y="550"/>
			<point x="470" y="698"/>
			<point x="240" y="698" type="curve"/>
			<point x="9" y="698"/>
			<point x="-91" y="571"/>
			<point x="-156" y="381" type="curve" smooth="yes"/>
			<point x="-175" y="327"/>
			<point x="-187" y="295"/>
			<point x="-222" y="295" type="curve" smooth="yes"/>
			<point x="-283" y="295"/>
			<point x="-303" y="414"/>
			<point x="-405" y="414" type="curve" smooth="yes"/>
			<point x="-496" y="414"/>
			<point x="-540" y="339"/>
			<point x="-559" y="202" type="curve"/>
			<point x="-470" y="202" type="line"/>
			<point x="-460" y="277"/>
			<point x="-442" y="315"/>
			<point x="-401" y="315" type="curve" smooth="yes"/>
			<point x="-337" y="315"/>
			<point x="-318" y="193"/>
			<point x="-216" y="193" type="curve" smooth="yes"/>
			<point x="-142" y="193"/>
			<point x="-108" y="245"/>
			<point x="-75" y="350" type="curve" smooth="yes"/>
			<point x="-20" y="523"/>
			<point x="68" y="615"/>
			<point x="234" y="615" type="curve"/>
			<point x="424" y="615"/>
			<point x="486" y="490"/>
			<point x="457" y="283" type="curve" smooth="yes"/>
			<point x="456" y="276" type="line" smooth="yes"/>
			<point x="433" y="117"/>
			<point x="398" y="62"/>
			<point x="359" y="62" type="curve"/>
			<point x="327" y="62"/>
			<point x="317" y="81"/>
			<point x="326" y="142" type="curve" smooth="yes"/>
			<point x="374" y="481" type="line"/>
			<point x="288" y="481" type="line"/>
			<point x="275" y="392" type="line"/>
			<point x="260" y="456"/>
			<point x="227" y="492"/>
			<point x="163" y="492" type="curve" smooth="yes"/>
			<point x="80" y="492"/>
			<point x="19" y="420"/>
			<point x="-1" y="278" type="curve" smooth="yes"/>
			<point x="-20" y="146"/>
			<point x="23" y="62"/>
			<point x="115" y="62" type="curve" smooth="yes"/>
			<point x="180" y="62"/>
			<point x="222" y="108"/>
			<point x="246" y="162" type="curve"/>
			<point x="241" y="129" type="line" smooth="yes"/>
			<point x="227" y="28"/>
			<point x="271" y="-16"/>
		</contour>
		<contour>
			<point x="156" y="137" type="curve" smooth="yes"/>
			<point x="100" y="137"/>
			<point x="74" y="187"/>
			<point x="87" y="280" type="curve" smooth="yes"/>
			<point x="100" y="375"/>
			<point x="137" y="416"/>
			<point x="188" y="416" type="curve" smooth="yes"/>
			<point x="240" y="416"/>
			<point x="273" y="366"/>
			<point x="259" y="274" type="curve" smooth="yes"/>
			<point x="246" y="182"/>
			<point x="211" y="137"/>
		</contour>
	</outline>
</glyph>
<glyph name="asciitilde_equal.cLig.x" format="2">
	<advance width="600"/>
	<outline>
		<contour>
			<point x="-311" y="325" type="line"/>
			<point x="-259" y="389"/>
			<point x="-198" y="415"/>
			<point x="-137" y="415" type="curve" smooth="yes"/>
			<point x="-30" y="415"/>
			<point x="31" y="315"/>
			<point x="165" y="315" type="curve" smooth="yes"/>
			<point x="239" y="315"/>
			<point x="300" y="344"/>
			<point x="339" y="392" type="curve"/>
			<point x="353" y="500" type="line"/>
			<point x="290" y="427"/>
			<point x="237" y="409"/>
			<point x="171" y="410" type="curve" smooth="yes"/>
			<point x="70" y="413"/>
			<point x="1" y="510"/>
			<point x="-126" y="510" type="curve" smooth="yes"/>
			<point x="-193" y="510"/>
			<point x="-257" y="481"/>
			<point x="-295" y="434" type="curve"/>
		</contour>
		<contour>
			<point x="-337" y="143" type="line"/>
			<point x="303" y="143" type="line"/>
			<point x="317" y="238" type="line"/>
			<point x="-323" y="238" type="line"/>
		</contour>
	</outline>
</glyph>
<glyph name="asciitilde_greater.cLig" format="2">
	<advance width="600"/>
	<outline>
		<contour>
			<point x="153" y="629" type="line"/>
			<point x="353" y="364" type="line"/>
			<point x="312" y="364" type="line"/>
			<point x="312" y="365" type="line"/>
			<point x="-94" y="365" type="line"/>
			<point x="-105" y="322"/>
			<point x="-124" y="294"/>
			<point x="-162" y="294" type="curve" smooth="yes"/>
			<point x="-229" y="294"/>
			<point x="-248" y="420"/>
			<point x="-353" y="420" type="curve" smooth="yes"/>
			<point x="-433" y="420"/>
			<point x="-492" y="368"/>
			<point x="-512" y="212" type="curve"/>
			<point x="-422" y="212" type="line"/>
			<point x="-414" y="285"/>
			<point x="-393" y="319"/>
			<point x="-354" y="319" type="curve" smooth="yes"/>
			<point x="-291" y="319"/>
			<point x="-266" y="195"/>
			<point x="-159" y="195" type="curve" smooth="yes"/>
			<point x="-111" y="195"/>
			<point x="-71" y="216"/>
			<point x="-45" y="264" type="curve"/>
			<point x="-18" y="264" type="line"/>
			<point x="331" y="263" type="line"/>
			<point x="60" y="0" type="line"/>
			<point x="193" y="0" type="line"/>
			<point x="511" y="314" type="line"/>
			<point x="276" y="629" type="line"/>
		</contour>
	</outline>
</glyph>
<glyph name="asciitilde_hyphen.cLig" format="2">
	<advance width="600"/>
	<outline>
		<contour>
			<point x="415" y="360" type="line"/>
			<point x="9" y="360" type="line"/>
			<point x="-2" y="317"/>
			<point x="-21" y="289"/>
			<point x="-59" y="289" type="curve" smooth="yes"/>
			<point x="-126" y="289"/>
			<point x="-145" y="415"/>
			<point x="-250" y="415" type="curve" smooth="yes"/>
			<point x="-330" y="415"/>
			<point x="-389" y="363"/>
			<point x="-409" y="207" type="curve"/>
			<point x="-319" y="207" type="line"/>
			<point x="-311" y="280"/>
			<point x="-290" y="314"/>
			<point x="-251" y="314" type="curve" smooth="yes"/>
			<point x="-188" y="314"/>
			<point x="-163" y="190"/>
			<point x="-56" y="190" type="curve" smooth="yes"/>
			<point x="-8" y="190"/>
			<point x="32" y="211"/>
			<point x="58" y="259" type="curve"/>
			<point x="401" y="259" type="line"/>
		</contour>
	</outline>
</glyph>
<glyph name="asterisk_asterisk_asterisk.cLig" format="2">
	<advance width="600"/>
	<outline>
		<contour>
			<point x="-1061" y="76" type="line"/>
			<point x="-883" y="202" type="line"/>
			<point x="-940" y="0" type="line"/>
			<point x="-834" y="0" type="line"/>
			<point x="-835" y="200" type="line"/>
			<point x="-693" y="76" type="line"/>
			<point x="-628" y="167" type="line"/>
			<point x="-804" y="242" type="line"/>
			<point x="-606" y="318" type="line"/>
			<point x="-645" y="409" type="line"/>
			<point x="-822" y="285" type="line"/>
			<point x="-766" y="486" type="line"/>
			<point x="-871" y="486" type="line"/>
			<point x="-871" y="284" type="line"/>
			<point x="-1014" y="410" type="line"/>
			<point x="-1080" y="319" type="line"/>
			<point x="-900" y="243" type="line"/>
			<point x="-1101" y="167" type="line"/>
		</contour>
		<contour>
			<point x="-488" y="275" type="line"/>
			<point x="-310" y="401" type="line"/>
			<point x="-367" y="199" type="line"/>
			<point x="-261" y="199" type="line"/>
			<point x="-262" y="399" type="line"/>
			<point x="-120" y="275" type="line"/>
			<point x="-55" y="366" type="line"/>
			<point x="-231" y="441" type="line"/>
			<point x="-33" y="517" type="line"/>
			<point x="-72" y="608" type="line"/>
			<point x="-249" y="484" type="line"/>
			<point x="-193" y="685" type="line"/>
			<point x="-298" y="685" type="line"/>
			<point x="-298" y="483" type="line"/>
			<point x="-441" y="609" type="line"/>
			<point x="-507" y="518" type="line"/>
			<point x="-327" y="442" type="line"/>
			<point x="-528" y="366" type="line"/>
		</contour>
		<contour>
			<point x="49" y="76" type="line"/>
			<point x="227" y="202" type="line"/>
			<point x="170" y="0" type="line"/>
			<point x="276" y="0" type="line"/>
			<point x="275" y="200" type="line"/>
			<point x="417" y="76" type="line"/>
			<point x="482" y="167" type="line"/>
			<point x="306" y="242" type="line"/>
			<point x="504" y="318" type="line"/>
			<point x="465" y="409" type="line"/>
			<point x="288" y="285" type="line"/>
			<point x="344" y="486" type="line"/>
			<point x="239" y="486" type="line"/>
			<point x="239" y="284" type="line"/>
			<point x="96" y="410" type="line"/>
			<point x="30" y="319" type="line"/>
			<point x="210" y="243" type="line"/>
			<point x="9" y="167" type="line"/>
		</contour>
	</outline>
</glyph>
<glyph name="asterisk_asterisk_slash.rem" format="2">
	<advance width="600"/>
	<outline>
		<contour>
			<point x="-1028" y="154" type="line"/>
			<point x="-850" y="280" type="line"/>
			<point x="-907" y="78" type="line"/>
			<point x="-801" y="78" type="line"/>
			<point x="-802" y="278" type="line"/>
			<point x="-660" y="154" type="line"/>
			<point x="-595" y="245" type="line"/>
			<point x="-771" y="320" type="line"/>
			<point x="-573" y="396" type="line"/>
			<point x="-612" y="487" type="line"/>
			<point x="-789" y="363" type="line"/>
			<point x="-733" y="564" type="line"/>
			<point x="-838" y="564" type="line"/>
			<point x="-838" y="362" type="line"/>
			<point x="-981" y="488" type="line"/>
			<point x="-1047" y="397" type="line"/>
			<point x="-867" y="321" type="line"/>
			<point x="-1068" y="245" type="line"/>
		</contour>
		<contour>
			<point x="-448" y="154" type="line"/>
			<point x="-270" y="280" type="line"/>
			<point x="-327" y="78" type="line"/>
			<point x="-221" y="78" type="line"/>
			<point x="-222" y="278" type="line"/>
			<point x="-80" y="154" type="line"/>
			<point x="-15" y="245" type="line"/>
			<point x="-191" y="320" type="line"/>
			<point x="7" y="396" type="line"/>
			<point x="-32" y="487" type="line"/>
			<point x="-209" y="363" type="line"/>
			<point x="-153" y="564" type="line"/>
			<point x="-258" y="564" type="line"/>
			<point x="-258" y="362" type="line"/>
			<point x="-401" y="488" type="line"/>
			<point x="-467" y="397" type="line"/>
			<point x="-287" y="321" type="line"/>
			<point x="-488" y="245" type="line"/>
		</contour>
		<contour>
			<point x="444" y="792" type="line"/>
			<point x="-52" y="-163" type="line"/>
			<point x="60" y="-163" type="line"/>
			<point x="557" y="792" type="line"/>
		</contour>
	</outline>
</glyph>
<glyph name="asterisk_greater.cLig" format="2">
	<advance width="600"/>
	<outline>
		<contour>
			<point x="102" y="637" type="line"/>
			<point x="86" y="530" type="line"/>
			<point x="422" y="318" type="line"/>
			<point x="27" y="110" type="line"/>
			<point x="10" y="-8" type="line"/>
			<point x="493" y="254" type="line"/>
			<point x="510" y="376" type="line"/>
		</contour>
		<contour>
			<point x="-40" y="479" type="line"/>
			<point x="-219" y="353" type="line"/>
			<point x="-161" y="555" type="line"/>
			<point x="-267" y="555" type="line"/>
			<point x="-266" y="355" type="line"/>
			<point x="-408" y="479" type="line"/>
			<point x="-473" y="388" type="line"/>
			<point x="-298" y="313" type="line"/>
			<point x="-495" y="237" type="line"/>
			<point x="-456" y="146" type="line"/>
			<point x="-279" y="270" type="line"/>
			<point x="-335" y="69" type="line"/>
			<point x="-230" y="69" type="line"/>
			<point x="-230" y="272" type="line"/>
			<point x="-87" y="145" type="line"/>
			<point x="-21" y="236" type="line"/>
			<point x="-201" y="312" type="line"/>
			<point x="0" y="388" type="line"/>
		</contour>
	</outline>
</glyph>
<glyph name="asterisk_slash.cLig" format="2">
	<advance width="600"/>
	<outline>
		<contour>
			<point x="-448" y="154" type="line"/>
			<point x="-270" y="280" type="line"/>
			<point x="-327" y="78" type="line"/>
			<point x="-221" y="78" type="line"/>
			<point x="-222" y="278" type="line"/>
			<point x="-80" y="154" type="line"/>
			<point x="-15" y="245" type="line"/>
			<point x="-191" y="320" type="line"/>
			<point x="7" y="396" type="line"/>
			<point x="-32" y="487" type="line"/>
			<point x="-209" y="363" type="line"/>
			<point x="-153" y="564" type="line"/>
			<point x="-258" y="564" type="line"/>
			<point x="-258" y="362" type="line"/>
			<point x="-401" y="488" type="line"/>
			<point x="-467" y="397" type="line"/>
			<point x="-287" y="321" type="line"/>
			<point x="-488" y="245" type="line"/>
		</contour>
		<contour>
			<point x="444" y="792" type="line"/>
			<point x="-52" y="-163" type="line"/>
			<point x="60" y="-163" type="line"/>
			<point x="557" y="792" type="line"/>
		</contour>
	</outline>
</glyph>
<glyph name="bar_bar_bar.cLig" format="2">
	<advance width="600"/>
	<outline>
		<contour>
			<point x="222" y="792" type="line"/>
			<point x="87" y="-163" type="line"/>
			<point x="191" y="-163" type="line"/>
			<point x="325" y="792" type="line"/>
		</contour>
		<contour>
			<point x="-776" y="792" type="line"/>
			<point x="-911" y="-163" type="line"/>
			<point x="-807" y="-163" type="line"/>
			<point x="-673" y="792" type="line"/>
		</contour>
		<contour>
			<point x="-277" y="792" type="line"/>
			<point x="-412" y="-163" type="line"/>
			<point x="-308" y="-163" type="line"/>
			<point x="-174" y="792" type="line"/>
		</contour>
	</outline>
</glyph>
<glyph name="bar_bar_bar_greater.cLig" format="2">
	<advance width="600"/>
	<outline>
		<contour>
			<point x="-362" y="-79" type="line"/>
			<point x="-257" y="-79" type="line"/>
			<point x="325" y="253" type="line"/>
			<point x="342" y="375" type="line"/>
			<point x="-147" y="708" type="line"/>
			<point x="-252" y="708" type="line"/>
		</contour>
		<contour>
			<point x="-933" y="-79" type="line"/>
			<point x="-829" y="-79" type="line"/>
			<point x="-719" y="708" type="line"/>
			<point x="-823" y="708" type="line"/>
		</contour>
		<contour>
			<point x="-1505" y="-79" type="line"/>
			<point x="-1401" y="-79" type="line"/>
			<point x="-1291" y="708" type="line"/>
			<point x="-1395" y="708" type="line"/>
		</contour>
		<contour>
			<point x="-166" y="595" type="line"/>
			<point x="245" y="320" type="line"/>
			<point x="-242" y="45" type="line"/>
		</contour>
	</outline>
</glyph>
<glyph name="bar_bar_equal.fina" format="2">
	<advance width="600"/>
	<outline>
		<contour>
			<point x="-614" y="158" type="line"/>
			<point x="-137" y="158" type="line"/>
			<point x="-167" y="-55" type="line"/>
			<point x="-63" y="-55" type="line"/>
			<point x="41" y="684" type="line"/>
			<point x="-63" y="684" type="line"/>
			<point x="-93" y="471" type="line"/>
			<point x="-570" y="471" type="line"/>
			<point x="-583" y="375" type="line"/>
			<point x="-107" y="375" type="line"/>
			<point x="-124" y="254" type="line"/>
			<point x="-601" y="254" type="line"/>
		</contour>
		<contour>
			<point x="317" y="684" type="line"/>
			<point x="213" y="-55" type="line"/>
			<point x="317" y="-55" type="line"/>
			<point x="421" y="684" type="line"/>
		</contour>
	</outline>
</glyph>
<glyph name="bar_bar_equal.init" format="2">
	<advance width="600"/>
	<outline>
		<contour>
			<point x="-302" y="684" type="line"/>
			<point x="-406" y="-55" type="line"/>
			<point x="-302" y="-55" type="line"/>
			<point x="-198" y="684" type="line"/>
		</contour>
		<contour>
			<point x="78" y="684" type="line"/>
			<point x="-26" y="-55" type="line"/>
			<point x="78" y="-55" type="line"/>
			<point x="108" y="158" type="line"/>
			<point x="585" y="158" type="line"/>
			<point x="599" y="254" type="line"/>
			<point x="122" y="254" type="line"/>
			<point x="139" y="375" type="line"/>
			<point x="616" y="375" type="line"/>
			<point x="630" y="471" type="line"/>
			<point x="152" y="471" type="line"/>
			<point x="182" y="684" type="line"/>
		</contour>
	</outline>
</glyph>
<glyph name="bar_bar_equal.rem" format="2">
	<advance width="600"/>
	<outline>
		<contour>
			<point x="-905" y="684" type="line"/>
			<point x="-1009" y="-55" type="line"/>
			<point x="-905" y="-55" type="line"/>
			<point x="-801" y="684" type="line"/>
		</contour>
		<contour>
			<point x="-523" y="684" type="line"/>
			<point x="-627" y="-55" type="line"/>
			<point x="-522" y="-55" type="line"/>
			<point x="-492" y="158" type="line"/>
			<point x="417" y="158" type="line"/>
			<point x="431" y="254" type="line"/>
			<point x="-479" y="254" type="line"/>
			<point x="-462" y="375" type="line"/>
			<point x="448" y="375" type="line"/>
			<point x="461" y="471" type="line"/>
			<point x="-448" y="471" type="line"/>
			<point x="-418" y="684" type="line"/>
		</contour>
	</outline>
</glyph>
<glyph name="bar_bar_greater.cLig" format="2">
	<advance width="600"/>
	<outline>
		<contour>
			<point x="-803" y="708" type="line"/>
			<point x="-913" y="-79" type="line"/>
			<point x="-809" y="-79" type="line"/>
			<point x="-699" y="708" type="line"/>
		</contour>
		<contour>
			<point x="-353" y="-79" type="line"/>
			<point x="-249" y="-79" type="line"/>
			<point x="333" y="253" type="line"/>
			<point x="350" y="375" type="line"/>
			<point x="-139" y="708" type="line"/>
			<point x="-243" y="708" type="line"/>
		</contour>
		<contour>
			<point x="-158" y="595" type="line"/>
			<point x="253" y="320" type="line"/>
			<point x="-234" y="45" type="line"/>
		</contour>
	</outline>
</glyph>
<glyph name="bar_bar_hyphen.fina" format="2">
	<advance width="600"/>
	<outline>
		<contour>
			<point x="213" y="-55" type="line"/>
			<point x="317" y="-55" type="line"/>
			<point x="421" y="684" type="line"/>
			<point x="317" y="684" type="line"/>
		</contour>
		<contour>
			<point x="-600" y="263" type="line"/>
			<point x="-122" y="263" type="line"/>
			<point x="-167" y="-55" type="line"/>
			<point x="-63" y="-55" type="line"/>
			<point x="41" y="684" type="line"/>
			<point x="-63" y="684" type="line"/>
			<point x="-108" y="364" type="line"/>
			<point x="-586" y="364" type="line"/>
		</contour>
	</outline>
</glyph>
<glyph name="bar_bar_hyphen.init" format="2">
	<advance width="600"/>
	<outline>
		<contour>
			<point x="-27" y="-55" type="line"/>
			<point x="78" y="-55" type="line"/>
			<point x="123" y="263" type="line"/>
			<point x="600" y="263" type="line"/>
			<point x="614" y="364" type="line"/>
			<point x="137" y="364" type="line"/>
			<point x="182" y="684" type="line"/>
			<point x="77" y="684" type="line"/>
		</contour>
		<contour>
			<point x="-407" y="-55" type="line"/>
			<point x="-302" y="-55" type="line"/>
			<point x="-198" y="684" type="line"/>
			<point x="-303" y="684" type="line"/>
		</contour>
	</outline>
</glyph>
<glyph name="bar_bar_hyphen.rem" format="2">
	<advance width="600"/>
	<outline>
		<contour>
			<point x="-627" y="-55" type="line"/>
			<point x="-522" y="-55" type="line"/>
			<point x="-477" y="263" type="line"/>
			<point x="433" y="263" type="line"/>
			<point x="447" y="364" type="line"/>
			<point x="-463" y="364" type="line"/>
			<point x="-418" y="684" type="line"/>
			<point x="-523" y="684" type="line"/>
		</contour>
		<contour>
			<point x="-1009" y="-55" type="line"/>
			<point x="-905" y="-55" type="line"/>
			<point x="-801" y="684" type="line"/>
			<point x="-905" y="684" type="line"/>
		</contour>
	</outline>
</glyph>
<glyph name="bar_braceright.cLig" format="2">
	<advance width="600"/>
	<outline>
		<contour>
			<point x="283" y="792" type="curve" smooth="yes"/>
			<point x="20" y="792" type="line"/>
			<point x="9" y="710" type="line"/>
			<point x="237" y="710" type="line" smooth="yes"/>
			<point x="293" y="710"/>
			<point x="321" y="689"/>
			<point x="321" y="646" type="curve" smooth="yes"/>
			<point x="321" y="558"/>
			<point x="189" y="517"/>
			<point x="189" y="414" type="curve" smooth="yes"/>
			<point x="190" y="366"/>
			<point x="230" y="328"/>
			<point x="286" y="316" type="curve"/>
			<point x="228" y="308"/>
			<point x="158" y="275"/>
			<point x="158" y="195" type="curve" smooth="yes"/>
			<point x="158" y="117"/>
			<point x="231" y="58"/>
			<point x="231" y="-8" type="curve" smooth="yes"/>
			<point x="231" y="-63"/>
			<point x="192" y="-81"/>
			<point x="131" y="-81" type="curve" smooth="yes"/>
			<point x="-102" y="-81" type="line"/>
			<point x="-114" y="-163" type="line"/>
			<point x="168" y="-163" type="line" smooth="yes"/>
			<point x="276" y="-163"/>
			<point x="341" y="-106"/>
			<point x="341" y="-22" type="curve" smooth="yes"/>
			<point x="341" y="63"/>
			<point x="268" y="130"/>
			<point x="268" y="195" type="curve" smooth="yes"/>
			<point x="268" y="235"/>
			<point x="297" y="267"/>
			<point x="345" y="267" type="curve" smooth="yes"/>
			<point x="434" y="267" type="line"/>
			<point x="447" y="364" type="line"/>
			<point x="367" y="364" type="line" smooth="yes"/>
			<point x="320" y="364"/>
			<point x="304" y="394"/>
			<point x="303" y="421" type="curve" smooth="yes"/>
			<point x="303" y="497"/>
			<point x="438" y="543"/>
			<point x="438" y="665" type="curve" smooth="yes"/>
			<point x="438" y="735"/>
			<point x="391" y="792"/>
		</contour>
		<contour>
			<point x="-314" y="-163" type="line"/>
			<point x="-179" y="792" type="line"/>
			<point x="-283" y="792" type="line"/>
			<point x="-417" y="-163" type="line"/>
		</contour>
	</outline>
</glyph>
<glyph name="bar_equal.med" format="2">
	<advance width="600"/>
	<outline>
		<contour>
			<point x="-15" y="158" type="line"/>
			<point x="231" y="158" type="line"/>
			<point x="201" y="-55" type="line"/>
			<point x="306" y="-55" type="line"/>
			<point x="336" y="158" type="line"/>
			<point x="585" y="158" type="line"/>
			<point x="598" y="254" type="line"/>
			<point x="349" y="254" type="line"/>
			<point x="366" y="375" type="line"/>
			<point x="616" y="375" type="line"/>
			<point x="629" y="471" type="line"/>
			<point x="380" y="471" type="line"/>
			<point x="410" y="684" type="line"/>
			<point x="305" y="684" type="line"/>
			<point x="275" y="471" type="line"/>
			<point x="30" y="471" type="line"/>
			<point x="16" y="375" type="line"/>
			<point x="262" y="375" type="line"/>
			<point x="245" y="254" type="line"/>
			<point x="-1" y="254" type="line"/>
		</contour>
	</outline>
</glyph>
<glyph name="bar_equal.rem" format="2">
	<advance width="600"/>
	<outline>
		<contour>
			<point x="-305" y="684" type="line"/>
			<point x="-409" y="-55" type="line"/>
			<point x="-305" y="-55" type="line"/>
			<point x="-275" y="158" type="line"/>
			<point x="417" y="158" type="line"/>
			<point x="431" y="254" type="line"/>
			<point x="-261" y="254" type="line"/>
			<point x="-244" y="375" type="line"/>
			<point x="448" y="375" type="line"/>
			<point x="461" y="471" type="line"/>
			<point x="-231" y="471" type="line"/>
			<point x="-201" y="684" type="line"/>
		</contour>
	</outline>
</glyph>
<glyph name="bar_greater.cLig" format="2">
	<advance width="600"/>
	<outline>
		<contour>
			<point x="-326" y="-79" type="line"/>
			<point x="-221" y="-79" type="line"/>
			<point x="361" y="253" type="line"/>
			<point x="378" y="375" type="line"/>
			<point x="-111" y="708" type="line"/>
			<point x="-216" y="708" type="line"/>
		</contour>
		<contour>
			<point x="-130" y="595" type="line"/>
			<point x="281" y="320" type="line"/>
			<point x="-206" y="45" type="line"/>
		</contour>
	</outline>
</glyph>
<glyph name="bar_hyphen.fina" format="2">
	<advance width="600"/>
	<outline>
		<contour>
			<point x="0" y="263" type="line"/>
			<point x="358" y="263" type="line"/>
			<point x="313" y="-55" type="line"/>
			<point x="417" y="-55" type="line"/>
			<point x="521" y="684" type="line"/>
			<point x="417" y="684" type="line"/>
			<point x="372" y="364" type="line"/>
			<point x="14" y="364" type="line"/>
		</contour>
	</outline>
</glyph>
<glyph name="bar_hyphen.init" format="2">
	<advance width="600"/>
	<outline>
		<contour>
			<point x="93" y="-55" type="line"/>
			<point x="198" y="-55" type="line"/>
			<point x="243" y="263" type="line"/>
			<point x="600" y="263" type="line"/>
			<point x="614" y="364" type="line"/>
			<point x="257" y="364" type="line"/>
			<point x="302" y="684" type="line"/>
			<point x="197" y="684" type="line"/>
		</contour>
	</outline>
</glyph>
<glyph name="bar_hyphen.med" format="2">
	<advance width="600"/>
	<outline>
		<contour>
			<point x="204" y="-55" type="line"/>
			<point x="308" y="-55" type="line"/>
			<point x="353" y="263" type="line"/>
			<point x="600" y="263" type="line"/>
			<point x="614" y="364" type="line"/>
			<point x="367" y="364" type="line"/>
			<point x="412" y="684" type="line"/>
			<point x="308" y="684" type="line"/>
			<point x="263" y="364" type="line"/>
			<point x="14" y="364" type="line"/>
			<point x="0" y="263" type="line"/>
			<point x="249" y="263" type="line"/>
		</contour>
	</outline>
</glyph>
<glyph name="braceleft_braceleft.cLig" format="2">
	<advance width="600"/>
	<outline>
		<contour>
			<point x="-106" y="-163" type="line"/>
			<point x="-95" y="-81" type="line"/>
			<point x="-218" y="-81" type="line" smooth="yes"/>
			<point x="-273" y="-81"/>
			<point x="-301" y="-60"/>
			<point x="-301" y="-17" type="curve" smooth="yes"/>
			<point x="-301" y="71"/>
			<point x="-170" y="112"/>
			<point x="-170" y="215" type="curve" smooth="yes"/>
			<point x="-170" y="263"/>
			<point x="-211" y="302"/>
			<point x="-267" y="313" type="curve"/>
			<point x="-210" y="321"/>
			<point x="-138" y="353"/>
			<point x="-138" y="434" type="curve" smooth="yes"/>
			<point x="-138" y="511"/>
			<point x="-211" y="571"/>
			<point x="-211" y="637" type="curve" smooth="yes"/>
			<point x="-211" y="692"/>
			<point x="-172" y="710"/>
			<point x="-111" y="710" type="curve" smooth="yes"/>
			<point x="222" y="710" type="line"/>
			<point x="168" y="696"/>
			<point x="142" y="666"/>
			<point x="142" y="620" type="curve" smooth="yes"/>
			<point x="142" y="548"/>
			<point x="216" y="492"/>
			<point x="216" y="430" type="curve" smooth="yes"/>
			<point x="216" y="390"/>
			<point x="187" y="362"/>
			<point x="132" y="362" type="curve" smooth="yes"/>
			<point x="33" y="362" type="line"/>
			<point x="20" y="265" type="line"/>
			<point x="108" y="265" type="line" smooth="yes"/>
			<point x="163" y="265"/>
			<point x="181" y="239"/>
			<point x="181" y="211" type="curve"/>
			<point x="181" y="134"/>
			<point x="46" y="86"/>
			<point x="46" y="-36" type="curve" smooth="yes"/>
			<point x="46" y="-106"/>
			<point x="92" y="-163"/>
			<point x="201" y="-163" type="curve" smooth="yes"/>
			<point x="390" y="-163" type="line"/>
			<point x="401" y="-81" type="line"/>
			<point x="246" y="-81" type="line" smooth="yes"/>
			<point x="191" y="-81"/>
			<point x="163" y="-60"/>
			<point x="163" y="-17" type="curve" smooth="yes"/>
			<point x="163" y="69"/>
			<point x="295" y="115"/>
			<point x="295" y="217" type="curve"/>
			<point x="295" y="265"/>
			<point x="254" y="302"/>
			<point x="197" y="313" type="curve"/>
			<point x="255" y="320"/>
			<point x="326" y="349"/>
			<point x="326" y="431" type="curve" smooth="yes"/>
			<point x="326" y="508"/>
			<point x="253" y="565"/>
			<point x="253" y="634" type="curve" smooth="yes"/>
			<point x="253" y="687"/>
			<point x="292" y="710"/>
			<point x="357" y="710" type="curve" smooth="yes"/>
			<point x="512" y="710" type="line"/>
			<point x="524" y="792" type="line"/>
			<point x="-149" y="792" type="line" smooth="yes"/>
			<point x="-256" y="792"/>
			<point x="-322" y="735"/>
			<point x="-322" y="651" type="curve" smooth="yes"/>
			<point x="-322" y="566"/>
			<point x="-249" y="499"/>
			<point x="-249" y="434" type="curve" smooth="yes"/>
			<point x="-249" y="394"/>
			<point x="-277" y="362"/>
			<point x="-325" y="362" type="curve" smooth="yes"/>
			<point x="-425" y="362" type="line"/>
			<point x="-439" y="265" type="line"/>
			<point x="-348" y="265" type="line" smooth="yes"/>
			<point x="-300" y="265"/>
			<point x="-284" y="235"/>
			<point x="-284" y="208" type="curve" smooth="yes"/>
			<point x="-284" y="132"/>
			<point x="-418" y="86"/>
			<point x="-418" y="-36" type="curve" smooth="yes"/>
			<point x="-418" y="-106"/>
			<point x="-372" y="-163"/>
			<point x="-263" y="-163" type="curve" smooth="yes"/>
		</contour>
	</outline>
</glyph>
<glyph name="braceright_braceright.cLig" format="2">
	<advance width="600"/>
	<outline>
		<contour>
			<point x="112" y="792" type="line"/>
			<point x="101" y="710" type="line"/>
			<point x="224" y="710" type="line" smooth="yes"/>
			<point x="279" y="710"/>
			<point x="307" y="689"/>
			<point x="307" y="646" type="curve" smooth="yes"/>
			<point x="307" y="558"/>
			<point x="176" y="517"/>
			<point x="176" y="414" type="curve" smooth="yes"/>
			<point x="176" y="366"/>
			<point x="217" y="327"/>
			<point x="273" y="316" type="curve"/>
			<point x="216" y="308"/>
			<point x="144" y="276"/>
			<point x="144" y="195" type="curve" smooth="yes"/>
			<point x="144" y="118"/>
			<point x="217" y="58"/>
			<point x="217" y="-8" type="curve" smooth="yes"/>
			<point x="217" y="-63"/>
			<point x="178" y="-81"/>
			<point x="117" y="-81" type="curve" smooth="yes"/>
			<point x="-216" y="-81" type="line"/>
			<point x="-162" y="-67"/>
			<point x="-136" y="-37"/>
			<point x="-136" y="9" type="curve" smooth="yes"/>
			<point x="-136" y="81"/>
			<point x="-210" y="137"/>
			<point x="-210" y="199" type="curve" smooth="yes"/>
			<point x="-210" y="239"/>
			<point x="-181" y="267"/>
			<point x="-126" y="267" type="curve" smooth="yes"/>
			<point x="-27" y="267" type="line"/>
			<point x="-14" y="364" type="line"/>
			<point x="-102" y="364" type="line" smooth="yes"/>
			<point x="-157" y="364"/>
			<point x="-175" y="390"/>
			<point x="-175" y="418" type="curve"/>
			<point x="-175" y="495"/>
			<point x="-40" y="543"/>
			<point x="-40" y="665" type="curve" smooth="yes"/>
			<point x="-40" y="735"/>
			<point x="-86" y="792"/>
			<point x="-195" y="792" type="curve" smooth="yes"/>
			<point x="-384" y="792" type="line"/>
			<point x="-395" y="710" type="line"/>
			<point x="-240" y="710" type="line" smooth="yes"/>
			<point x="-185" y="710"/>
			<point x="-157" y="689"/>
			<point x="-157" y="646" type="curve" smooth="yes"/>
			<point x="-157" y="560"/>
			<point x="-289" y="514"/>
			<point x="-289" y="412" type="curve"/>
			<point x="-289" y="364"/>
			<point x="-248" y="327"/>
			<point x="-191" y="316" type="curve"/>
			<point x="-249" y="309"/>
			<point x="-320" y="280"/>
			<point x="-320" y="198" type="curve" smooth="yes"/>
			<point x="-320" y="121"/>
			<point x="-247" y="64"/>
			<point x="-247" y="-5" type="curve" smooth="yes"/>
			<point x="-247" y="-58"/>
			<point x="-286" y="-81"/>
			<point x="-351" y="-81" type="curve" smooth="yes"/>
			<point x="-506" y="-81" type="line"/>
			<point x="-518" y="-163" type="line"/>
			<point x="155" y="-163" type="line" smooth="yes"/>
			<point x="262" y="-163"/>
			<point x="328" y="-106"/>
			<point x="328" y="-22" type="curve" smooth="yes"/>
			<point x="328" y="63"/>
			<point x="255" y="130"/>
			<point x="255" y="195" type="curve" smooth="yes"/>
			<point x="255" y="235"/>
			<point x="283" y="267"/>
			<point x="331" y="267" type="curve" smooth="yes"/>
			<point x="431" y="267" type="line"/>
			<point x="445" y="364" type="line"/>
			<point x="354" y="364" type="line" smooth="yes"/>
			<point x="306" y="364"/>
			<point x="290" y="394"/>
			<point x="290" y="421" type="curve" smooth="yes"/>
			<point x="290" y="497"/>
			<point x="424" y="543"/>
			<point x="424" y="665" type="curve" smooth="yes"/>
			<point x="424" y="735"/>
			<point x="378" y="792"/>
			<point x="269" y="792" type="curve" smooth="yes"/>
		</contour>
	</outline>
</glyph>
<glyph name="braceright_numbersign.cLig" format="2">
	<advance width="600"/>
	<outline>
		<contour>
			<point x="-560" y="-163" type="line"/>
			<point x="-384" y="-163" type="line" smooth="yes"/>
			<point x="-276" y="-163"/>
			<point x="-211" y="-107"/>
			<point x="-211" y="-22" type="curve" smooth="yes"/>
			<point x="-211" y="63"/>
			<point x="-284" y="130"/>
			<point x="-284" y="195" type="curve" smooth="yes"/>
			<point x="-284" y="235"/>
			<point x="-255" y="267"/>
			<point x="-207" y="267" type="curve" smooth="yes"/>
			<point x="-147" y="267" type="line"/>
			<point x="-133" y="364" type="line"/>
			<point x="-184" y="364" type="line" smooth="yes"/>
			<point x="-232" y="364"/>
			<point x="-249" y="394"/>
			<point x="-249" y="421" type="curve" smooth="yes"/>
			<point x="-249" y="497"/>
			<point x="-114" y="543"/>
			<point x="-114" y="665" type="curve" smooth="yes"/>
			<point x="-114" y="735"/>
			<point x="-161" y="792"/>
			<point x="-269" y="792" type="curve" smooth="yes"/>
			<point x="-426" y="792" type="line"/>
			<point x="-437" y="710" type="line"/>
			<point x="-315" y="710" type="line" smooth="yes"/>
			<point x="-259" y="710"/>
			<point x="-231" y="689"/>
			<point x="-231" y="646" type="curve" smooth="yes"/>
			<point x="-230" y="558"/>
			<point x="-362" y="517"/>
			<point x="-362" y="414" type="curve" smooth="yes"/>
			<point x="-362" y="365"/>
			<point x="-322" y="327"/>
			<point x="-266" y="316" type="curve"/>
			<point x="-321" y="308"/>
			<point x="-395" y="277"/>
			<point x="-395" y="195" type="curve" smooth="yes"/>
			<point x="-394" y="117"/>
			<point x="-321" y="58"/>
			<point x="-321" y="-8" type="curve" smooth="yes"/>
			<point x="-322" y="-63"/>
			<point x="-360" y="-81"/>
			<point x="-420" y="-81" type="curve" smooth="yes"/>
			<point x="-548" y="-81" type="line"/>
		</contour>
		<contour>
			<point x="-57" y="249" type="line"/>
			<point x="-70" y="163" type="line"/>
			<point x="54" y="163" type="line"/>
			<point x="16" y="0" type="line"/>
			<point x="106" y="0" type="line"/>
			<point x="144" y="163" type="line"/>
			<point x="272" y="163" type="line"/>
			<point x="234" y="0" type="line"/>
			<point x="322" y="0" type="line"/>
			<point x="360" y="163" type="line"/>
			<point x="470" y="163" type="line"/>
			<point x="483" y="249" type="line"/>
			<point x="381" y="249" type="line"/>
			<point x="427" y="444" type="line"/>
			<point x="534" y="444" type="line"/>
			<point x="546" y="531" type="line"/>
			<point x="447" y="531" type="line"/>
			<point x="483" y="684" type="line"/>
			<point x="394" y="684" type="line"/>
			<point x="359" y="531" type="line"/>
			<point x="230" y="531" type="line"/>
			<point x="266" y="684" type="line"/>
			<point x="177" y="684" type="line"/>
			<point x="141" y="531" type="line"/>
			<point x="-18" y="531" type="line"/>
			<point x="-30" y="444" type="line"/>
			<point x="121" y="444" type="line"/>
			<point x="75" y="249" type="line"/>
		</contour>
		<contour>
			<point x="164" y="249" type="line"/>
			<point x="210" y="444" type="line"/>
			<point x="338" y="444" type="line"/>
			<point x="292" y="249" type="line"/>
		</contour>
	</outline>
</glyph>
<glyph name="bracketleft_bracketleft.cLig" format="2">
	<advance width="600"/>
	<outline>
		<contour>
			<point x="379" y="-81" type="line"/>
			<point x="150" y="-81" type="line"/>
			<point x="261" y="710" type="line"/>
			<point x="491" y="710" type="line"/>
			<point x="502" y="792" type="line"/>
			<point x="168" y="792" type="line"/>
			<point x="33" y="-163" type="line"/>
			<point x="367" y="-163" type="line"/>
		</contour>
		<contour>
			<point x="-38" y="-81" type="line"/>
			<point x="-327" y="-81" type="line"/>
			<point x="-216" y="710" type="line"/>
			<point x="73" y="710" type="line"/>
			<point x="85" y="792" type="line"/>
			<point x="-309" y="792" type="line"/>
			<point x="-444" y="-163" type="line"/>
			<point x="-50" y="-163" type="line"/>
		</contour>
	</outline>
</glyph>
<glyph name="breve.cap" format="2">
	<advance width="600"/>
	<outline>
		<contour>
			<point x="370" y="739" type="curve" smooth="yes"/>
			<point x="477" y="739"/>
			<point x="525" y="780"/>
			<point x="541" y="884" type="curve"/>
			<point x="459" y="884" type="line"/>
			<point x="450" y="821"/>
			<point x="430" y="798"/>
			<point x="376" y="798" type="curve" smooth="yes"/>
			<point x="322" y="798"/>
			<point x="307" y="830"/>
			<point x="315" y="884" type="curve"/>
			<point x="234" y="884" type="line"/>
			<point x="218" y="783"/>
			<point x="271" y="739"/>
		</contour>
	</outline>
	<anchor name="_top" x="360" y="684"/>
</glyph>
<glyph name="caron.cap" format="2">
	<advance width="600"/>
	<outline>
		<contour>
			<point x="564" y="884" type="line"/>
			<point x="460" y="884" type="line"/>
			<point x="371" y="793" type="line"/>
			<point x="308" y="884" type="line"/>
			<point x="209" y="884" type="line"/>
			<point x="309" y="746" type="line"/>
			<point x="423" y="746" type="line"/>
		</contour>
	</outline>
	<anchor name="_top" x="357" y="684"/>
</glyph>
<glyph name="circumflex.cap" format="2">
	<advance width="600"/>
	<outline>
		<contour>
			<point x="190" y="746" type="line"/>
			<point x="294" y="746" type="line"/>
			<point x="384" y="837" type="line"/>
			<point x="448" y="746" type="line"/>
			<point x="545" y="746" type="line"/>
			<point x="445" y="884" type="line"/>
			<point x="331" y="884" type="line"/>
		</contour>
	</outline>
	<anchor name="_top" x="362" y="684"/>
</glyph>
<glyph name="colon_colon_colon.cLig" format="2">
	<advance width="600"/>
	<outline>
		<contour>
			<point x="-787" y="-12" type="curve" smooth="yes"/>
			<point x="-730" y="-12"/>
			<point x="-703" y="11"/>
			<point x="-696" y="60" type="curve" smooth="yes"/>
			<point x="-688" y="115"/>
			<point x="-713" y="144"/>
			<point x="-775" y="144" type="curve" smooth="yes"/>
			<point x="-833" y="144"/>
			<point x="-860" y="120"/>
			<point x="-866" y="71" type="curve" smooth="yes"/>
			<point x="-875" y="16"/>
			<point x="-850" y="-12"/>
		</contour>
		<contour>
			<point x="-734" y="369" type="curve" smooth="yes"/>
			<point x="-677" y="369"/>
			<point x="-650" y="392"/>
			<point x="-643" y="441" type="curve" smooth="yes"/>
			<point x="-635" y="496"/>
			<point x="-660" y="525"/>
			<point x="-722" y="525" type="curve" smooth="yes"/>
			<point x="-780" y="525"/>
			<point x="-807" y="501"/>
			<point x="-813" y="452" type="curve" smooth="yes"/>
			<point x="-822" y="397"/>
			<point x="-797" y="369"/>
		</contour>
		<contour>
			<point x="-333" y="-12" type="curve" smooth="yes"/>
			<point x="-276" y="-12"/>
			<point x="-249" y="11"/>
			<point x="-242" y="60" type="curve" smooth="yes"/>
			<point x="-234" y="115"/>
			<point x="-259" y="144"/>
			<point x="-321" y="144" type="curve" smooth="yes"/>
			<point x="-379" y="144"/>
			<point x="-406" y="120"/>
			<point x="-412" y="71" type="curve" smooth="yes"/>
			<point x="-421" y="16"/>
			<point x="-396" y="-12"/>
		</contour>
		<contour>
			<point x="-280" y="369" type="curve" smooth="yes"/>
			<point x="-223" y="369"/>
			<point x="-196" y="392"/>
			<point x="-189" y="441" type="curve" smooth="yes"/>
			<point x="-181" y="496"/>
			<point x="-206" y="525"/>
			<point x="-268" y="525" type="curve" smooth="yes"/>
			<point x="-326" y="525"/>
			<point x="-353" y="501"/>
			<point x="-359" y="452" type="curve" smooth="yes"/>
			<point x="-368" y="397"/>
			<point x="-343" y="369"/>
		</contour>
		<contour>
			<point x="121" y="-12" type="curve" smooth="yes"/>
			<point x="178" y="-12"/>
			<point x="205" y="11"/>
			<point x="212" y="60" type="curve" smooth="yes"/>
			<point x="220" y="115"/>
			<point x="195" y="144"/>
			<point x="133" y="144" type="curve" smooth="yes"/>
			<point x="75" y="144"/>
			<point x="48" y="120"/>
			<point x="42" y="71" type="curve" smooth="yes"/>
			<point x="33" y="16"/>
			<point x="58" y="-12"/>
		</contour>
		<contour>
			<point x="174" y="369" type="curve" smooth="yes"/>
			<point x="231" y="369"/>
			<point x="258" y="392"/>
			<point x="265" y="441" type="curve" smooth="yes"/>
			<point x="273" y="496"/>
			<point x="248" y="525"/>
			<point x="186" y="525" type="curve" smooth="yes"/>
			<point x="128" y="525"/>
			<point x="101" y="501"/>
			<point x="95" y="452" type="curve" smooth="yes"/>
			<point x="86" y="397"/>
			<point x="111" y="369"/>
		</contour>
	</outline>
</glyph>
<glyph name="colon_colon_equal.cLig" format="2">
	<advance width="600"/>
	<outline>
		<contour>
			<point x="-845" y="363" type="curve" smooth="yes"/>
			<point x="-788" y="363"/>
			<point x="-761" y="386"/>
			<point x="-754" y="435" type="curve" smooth="yes"/>
			<point x="-746" y="490"/>
			<point x="-771" y="519"/>
			<point x="-833" y="519" type="curve" smooth="yes"/>
			<point x="-891" y="519"/>
			<point x="-918" y="495"/>
			<point x="-924" y="446" type="curve" smooth="yes"/>
			<point x="-933" y="391"/>
			<point x="-908" y="363"/>
		</contour>
		<contour>
			<point x="-466" y="363" type="curve" smooth="yes"/>
			<point x="-409" y="363"/>
			<point x="-382" y="386"/>
			<point x="-375" y="435" type="curve" smooth="yes"/>
			<point x="-367" y="490"/>
			<point x="-392" y="519"/>
			<point x="-454" y="519" type="curve" smooth="yes"/>
			<point x="-512" y="519"/>
			<point x="-539" y="495"/>
			<point x="-545" y="446" type="curve" smooth="yes"/>
			<point x="-554" y="391"/>
			<point x="-529" y="363"/>
		</contour>
		<contour>
			<point x="-151" y="360" type="line"/>
			<point x="372" y="360" type="line"/>
			<point x="385" y="456" type="line"/>
			<point x="-138" y="456" type="line"/>
		</contour>
		<contour>
			<point x="-181" y="143" type="line"/>
			<point x="342" y="143" type="line"/>
			<point x="355" y="238" type="line"/>
			<point x="-168" y="238" type="line"/>
		</contour>
		<contour>
			<point x="-885" y="74" type="curve" smooth="yes"/>
			<point x="-828" y="74"/>
			<point x="-801" y="97"/>
			<point x="-794" y="146" type="curve" smooth="yes"/>
			<point x="-786" y="201"/>
			<point x="-811" y="230"/>
			<point x="-873" y="230" type="curve" smooth="yes"/>
			<point x="-931" y="230"/>
			<point x="-958" y="206"/>
			<point x="-964" y="157" type="curve" smooth="yes"/>
			<point x="-973" y="102"/>
			<point x="-948" y="74"/>
		</contour>
		<contour>
			<point x="-507" y="74" type="curve" smooth="yes"/>
			<point x="-450" y="74"/>
			<point x="-423" y="97"/>
			<point x="-416" y="146" type="curve" smooth="yes"/>
			<point x="-408" y="201"/>
			<point x="-433" y="230"/>
			<point x="-495" y="230" type="curve" smooth="yes"/>
			<point x="-553" y="230"/>
			<point x="-580" y="206"/>
			<point x="-586" y="157" type="curve" smooth="yes"/>
			<point x="-595" y="102"/>
			<point x="-570" y="74"/>
		</contour>
	</outline>
</glyph>
<glyph name="colon_equal.cLig" format="2">
	<advance width="600"/>
	<outline>
		<contour>
			<point x="-317" y="363" type="curve" smooth="yes"/>
			<point x="-260" y="363"/>
			<point x="-233" y="386"/>
			<point x="-226" y="435" type="curve" smooth="yes"/>
			<point x="-218" y="490"/>
			<point x="-243" y="519"/>
			<point x="-305" y="519" type="curve" smooth="yes"/>
			<point x="-363" y="519"/>
			<point x="-390" y="495"/>
			<point x="-396" y="446" type="curve" smooth="yes"/>
			<point x="-405" y="391"/>
			<point x="-380" y="363"/>
		</contour>
		<contour>
			<point x="-58" y="360" type="line"/>
			<point x="439" y="360" type="line"/>
			<point x="453" y="456" type="line"/>
			<point x="-44" y="456" type="line"/>
		</contour>
		<contour>
			<point x="-88" y="143" type="line"/>
			<point x="409" y="143" type="line"/>
			<point x="422" y="238" type="line"/>
			<point x="-74" y="238" type="line"/>
		</contour>
		<contour>
			<point x="-357" y="74" type="curve" smooth="yes"/>
			<point x="-300" y="74"/>
			<point x="-273" y="97"/>
			<point x="-266" y="146" type="curve" smooth="yes"/>
			<point x="-258" y="201"/>
			<point x="-283" y="230"/>
			<point x="-345" y="230" type="curve" smooth="yes"/>
			<point x="-403" y="230"/>
			<point x="-430" y="206"/>
			<point x="-436" y="157" type="curve" smooth="yes"/>
			<point x="-445" y="102"/>
			<point x="-420" y="74"/>
		</contour>
	</outline>
</glyph>
<glyph name="colon_less.cLig.x" format="2">
	<advance width="600"/>
	<outline>
		<contour>
			<point x="389" y="-8" type="line"/>
			<point x="405" y="100" type="line"/>
			<point x="73" y="312" type="line"/>
			<point x="464" y="519" type="line"/>
			<point x="481" y="637" type="line"/>
			<point x="-2" y="376" type="line"/>
			<point x="-19" y="253" type="line"/>
		</contour>
		<contour>
			<point x="-273" y="423" type="curve" smooth="yes"/>
			<point x="-216" y="423"/>
			<point x="-189" y="446"/>
			<point x="-182" y="495" type="curve" smooth="yes"/>
			<point x="-174" y="550"/>
			<point x="-199" y="579"/>
			<point x="-261" y="579" type="curve" smooth="yes"/>
			<point x="-319" y="579"/>
			<point x="-346" y="555"/>
			<point x="-352" y="506" type="curve" smooth="yes"/>
			<point x="-361" y="451"/>
			<point x="-336" y="423"/>
		</contour>
		<contour>
			<point x="-326" y="42" type="curve" smooth="yes"/>
			<point x="-269" y="42"/>
			<point x="-242" y="65"/>
			<point x="-235" y="114" type="curve" smooth="yes"/>
			<point x="-227" y="169"/>
			<point x="-252" y="198"/>
			<point x="-314" y="198" type="curve" smooth="yes"/>
			<point x="-372" y="198"/>
			<point x="-399" y="174"/>
			<point x="-405" y="125" type="curve" smooth="yes"/>
			<point x="-414" y="70"/>
			<point x="-389" y="42"/>
		</contour>
	</outline>
</glyph>
<glyph name="cordinal" format="2">
	<advance width="600"/>
	<outline>
		<contour>
			<point x="377" y="225" type="curve" smooth="yes"/>
			<point x="420" y="225"/>
			<point x="454" y="233"/>
			<point x="479" y="242" type="curve"/>
			<point x="487" y="316" type="line"/>
			<point x="466" y="308"/>
			<point x="433" y="299"/>
			<point x="394" y="299" type="curve" smooth="yes"/>
			<point x="291" y="299"/>
			<point x="225" y="361"/>
			<point x="241" y="476" type="curve" smooth="yes"/>
			<point x="255" y="573"/>
			<point x="319" y="621"/>
			<point x="408" y="621" type="curve" smooth="yes"/>
			<point x="456" y="621"/>
			<point x="500" y="609"/>
			<point x="527" y="594" type="curve"/>
			<point x="537" y="668" type="line"/>
			<point x="511" y="682"/>
			<point x="459" y="695"/>
			<point x="400" y="695" type="curve" smooth="yes"/>
			<point x="260" y="695"/>
			<point x="165" y="614"/>
			<point x="147" y="485" type="curve" smooth="yes"/>
			<point x="122" y="318"/>
			<point x="227" y="225"/>
		</contour>
	</outline>
</glyph>
<glyph name="dieresis.cap" format="2">
	<advance width="600"/>
	<outline>
		<contour>
			<point x="481" y="867" type="curve" smooth="yes"/>
			<point x="434" y="867"/>
			<point x="418" y="848"/>
			<point x="413" y="811" type="curve" smooth="yes"/>
			<point x="408" y="776"/>
			<point x="424" y="755"/>
			<point x="471" y="755" type="curve" smooth="yes"/>
			<point x="519" y="755"/>
			<point x="534" y="773"/>
			<point x="539" y="809" type="curve" smooth="yes"/>
			<point x="544" y="848"/>
			<point x="527" y="867"/>
		</contour>
		<contour>
			<point x="273" y="755" type="curve" smooth="yes"/>
			<point x="322" y="755"/>
			<point x="336" y="774"/>
			<point x="341" y="810" type="curve" smooth="yes"/>
			<point x="346" y="847"/>
			<point x="330" y="867"/>
			<point x="283" y="867" type="curve" smooth="yes"/>
			<point x="236" y="867"/>
			<point x="219" y="849"/>
			<point x="215" y="812" type="curve" smooth="yes"/>
			<point x="211" y="775"/>
			<point x="226" y="755"/>
		</contour>
	</outline>
	<anchor name="_top" x="360" y="684"/>
</glyph>
<glyph name="dollar_greater.cLig" format="2">
	<advance width="600"/>
	<outline>
		<contour>
			<point x="-437" y="-93" type="line"/>
			<point x="-358" y="-93" type="line"/>
			<point x="-332" y="-9" type="line"/>
			<point x="-318" y="-11"/>
			<point x="-303" y="-12"/>
			<point x="-287" y="-12" type="curve" smooth="yes"/>
			<point x="-136" y="-12"/>
			<point x="-32" y="72"/>
			<point x="-32" y="213" type="curve" smooth="yes"/>
			<point x="-32" y="325"/>
			<point x="-101" y="359"/>
			<point x="-218" y="388" type="curve"/>
			<point x="-154" y="598" type="line"/>
			<point x="-81" y="585"/>
			<point x="-14" y="554"/>
			<point x="73" y="509" type="curve" smooth="yes"/>
			<point x="439" y="318" type="line"/>
			<point x="73" y="151" type="line"/>
			<point x="58" y="38" type="line"/>
			<point x="513" y="253" type="line"/>
			<point x="530" y="375" type="line"/>
			<point x="115" y="595" type="line" smooth="yes"/>
			<point x="22" y="643"/>
			<point x="-46" y="672"/>
			<point x="-119" y="686" type="curve"/>
			<point x="-92" y="774" type="line"/>
			<point x="-171" y="774" type="line"/>
			<point x="-196" y="695" type="line"/>
			<point x="-207" y="695"/>
			<point x="-219" y="696"/>
			<point x="-231" y="696" type="curve" smooth="yes"/>
			<point x="-397" y="696"/>
			<point x="-490" y="610"/>
			<point x="-490" y="478" type="curve" smooth="yes"/>
			<point x="-490" y="356"/>
			<point x="-408" y="321"/>
			<point x="-310" y="298" type="curve"/>
			<point x="-372" y="92" type="line"/>
			<point x="-426" y="106"/>
			<point x="-480" y="133"/>
			<point x="-523" y="174" type="curve"/>
			<point x="-538" y="71" type="line"/>
			<point x="-505" y="42"/>
			<point x="-459" y="19"/>
			<point x="-407" y="5" type="curve"/>
		</contour>
		<contour>
			<point x="-379" y="494" type="curve" smooth="yes"/>
			<point x="-379" y="565"/>
			<point x="-328" y="606"/>
			<point x="-236" y="606" type="curve" smooth="yes"/>
			<point x="-230" y="606"/>
			<point x="-223" y="605"/>
			<point x="-217" y="605" type="curve"/>
			<point x="-278" y="403" type="line"/>
			<point x="-344" y="420"/>
			<point x="-379" y="438"/>
		</contour>
		<contour>
			<point x="-142" y="194" type="curve" smooth="yes"/>
			<point x="-142" y="121"/>
			<point x="-200" y="81"/>
			<point x="-289" y="81" type="curve" smooth="yes"/>
			<point x="-296" y="81"/>
			<point x="-303" y="82"/>
			<point x="-311" y="82" type="curve"/>
			<point x="-249" y="285" type="line"/>
			<point x="-182" y="270"/>
			<point x="-142" y="254"/>
		</contour>
	</outline>
</glyph>
<glyph name="dotaccent.cap" format="2">
	<advance width="600"/>
	<outline>
		<contour>
			<point x="374" y="755" type="curve" smooth="yes"/>
			<point x="428" y="755"/>
			<point x="445" y="775"/>
			<point x="449" y="816" type="curve" smooth="yes"/>
			<point x="454" y="857"/>
			<point x="431" y="875"/>
			<point x="382" y="875" type="curve" smooth="yes"/>
			<point x="328" y="875"/>
			<point x="310" y="855"/>
			<point x="306" y="813" type="curve" smooth="yes"/>
			<point x="303" y="775"/>
			<point x="323" y="755"/>
		</contour>
	</outline>
	<anchor name="_top" x="360" y="684"/>
</glyph>
<glyph name="eight.den" format="2">
	<advance width="600"/>
	<outline>
		<contour>
			<point x="271" y="-8" type="curve" smooth="yes"/>
			<point x="381" y="-8"/>
			<point x="440" y="43"/>
			<point x="440" y="119" type="curve" smooth="yes"/>
			<point x="440" y="169"/>
			<point x="409" y="196"/>
			<point x="361" y="207" type="curve"/>
			<point x="422" y="220"/>
			<point x="461" y="255"/>
			<point x="461" y="317" type="curve" smooth="yes"/>
			<point x="461" y="383"/>
			<point x="405" y="418"/>
			<point x="311" y="418" type="curve" smooth="yes"/>
			<point x="215" y="418"/>
			<point x="154" y="376"/>
			<point x="154" y="299" type="curve" smooth="yes"/>
			<point x="154" y="252"/>
			<point x="181" y="223"/>
			<point x="226" y="212" type="curve"/>
			<point x="158" y="204"/>
			<point x="117" y="164"/>
			<point x="117" y="100" type="curve" smooth="yes"/>
			<point x="117" y="24"/>
			<point x="183" y="-8"/>
		</contour>
		<contour>
			<point x="302" y="238" type="curve" smooth="yes"/>
			<point x="258" y="238"/>
			<point x="230" y="259"/>
			<point x="230" y="294" type="curve" smooth="yes"/>
			<point x="230" y="339"/>
			<point x="257" y="362"/>
			<point x="310" y="362" type="curve" smooth="yes"/>
			<point x="354" y="362"/>
			<point x="385" y="345"/>
			<point x="385" y="307" type="curve" smooth="yes"/>
			<point x="385" y="262"/>
			<point x="355" y="238"/>
		</contour>
		<contour>
			<point x="274" y="50" type="curve" smooth="yes"/>
			<point x="230" y="50"/>
			<point x="196" y="69"/>
			<point x="196" y="111" type="curve" smooth="yes"/>
			<point x="196" y="156"/>
			<point x="225" y="180"/>
			<point x="282" y="180" type="curve" smooth="yes"/>
			<point x="333" y="180"/>
			<point x="360" y="162"/>
			<point x="360" y="124" type="curve" smooth="yes"/>
			<point x="360" y="78"/>
			<point x="330" y="50"/>
		</contour>
	</outline>
</glyph>
<glyph name="eight.numr" format="2">
	<advance width="600"/>
	<outline>
		<contour>
			<point x="322" y="366" type="curve" smooth="yes"/>
			<point x="413" y="366"/>
			<point x="466" y="408"/>
			<point x="466" y="473" type="curve" smooth="yes"/>
			<point x="466" y="515"/>
			<point x="439" y="537"/>
			<point x="400" y="546" type="curve"/>
			<point x="450" y="557"/>
			<point x="485" y="587"/>
			<point x="485" y="639" type="curve" smooth="yes"/>
			<point x="485" y="694"/>
			<point x="437" y="724"/>
			<point x="358" y="724" type="curve" smooth="yes"/>
			<point x="277" y="724"/>
			<point x="224" y="689"/>
			<point x="224" y="622" type="curve" smooth="yes"/>
			<point x="224" y="586"/>
			<point x="248" y="560"/>
			<point x="281" y="550" type="curve"/>
			<point x="228" y="543"/>
			<point x="191" y="508"/>
			<point x="191" y="455" type="curve" smooth="yes"/>
			<point x="191" y="391"/>
			<point x="248" y="366"/>
		</contour>
		<contour>
			<point x="349" y="574" type="curve" smooth="yes"/>
			<point x="312" y="574"/>
			<point x="291" y="592"/>
			<point x="291" y="620" type="curve" smooth="yes"/>
			<point x="291" y="657"/>
			<point x="315" y="674"/>
			<point x="357" y="674" type="curve" smooth="yes"/>
			<point x="392" y="674"/>
			<point x="417" y="663"/>
			<point x="417" y="630" type="curve" smooth="yes"/>
			<point x="417" y="595"/>
			<point x="391" y="574"/>
		</contour>
		<contour>
			<point x="324" y="417" type="curve" smooth="yes"/>
			<point x="288" y="417"/>
			<point x="261" y="430"/>
			<point x="261" y="465" type="curve" smooth="yes"/>
			<point x="261" y="502"/>
			<point x="286" y="522"/>
			<point x="333" y="522" type="curve" smooth="yes"/>
			<point x="374" y="522"/>
			<point x="396" y="507"/>
			<point x="396" y="478" type="curve" smooth="yes"/>
			<point x="396" y="439"/>
			<point x="370" y="417"/>
		</contour>
	</outline>
</glyph>
<glyph name="equal.den" format="2">
	<advance width="600"/>
	<outline>
		<contour>
			<point x="150" y="288" type="line"/>
			<point x="141" y="225" type="line"/>
			<point x="449" y="225" type="line"/>
			<point x="458" y="288" type="line"/>
		</contour>
		<contour>
			<point x="131" y="153" type="line"/>
			<point x="122" y="90" type="line"/>
			<point x="430" y="90" type="line"/>
			<point x="439" y="153" type="line"/>
		</contour>
	</outline>
</glyph>
<glyph name="equal.fina" format="2">
	<advance width="600"/>
	<outline>
		<contour>
			<point x="17" y="375" type="line"/>
			<point x="449" y="375" type="line"/>
			<point x="462" y="471" type="line"/>
			<point x="30" y="471" type="line"/>
		</contour>
		<contour>
			<point x="-14" y="158" type="line"/>
			<point x="418" y="158" type="line"/>
			<point x="432" y="254" type="line"/>
			<point x="-1" y="254" type="line"/>
		</contour>
	</outline>
</glyph>
<glyph name="equal_bar.rem" format="2">
	<advance width="600"/>
	<outline>
		<contour>
			<point x="320" y="-55" type="line"/>
			<point x="424" y="684" type="line"/>
			<point x="320" y="684" type="line"/>
			<point x="290" y="471" type="line"/>
			<point x="-402" y="471" type="line"/>
			<point x="-416" y="375" type="line"/>
			<point x="276" y="375" type="line"/>
			<point x="259" y="254" type="line"/>
			<point x="-433" y="254" type="line"/>
			<point x="-446" y="158" type="line"/>
			<point x="246" y="158" type="line"/>
			<point x="216" y="-55" type="line"/>
		</contour>
	</outline>
</glyph>
<glyph name="equal_colon_equal.rem" format="2">
	<advance width="600"/>
	<outline>
		<contour>
			<point x="-281" y="363" type="curve" smooth="yes"/>
			<point x="-224" y="363"/>
			<point x="-197" y="386"/>
			<point x="-190" y="435" type="curve" smooth="yes"/>
			<point x="-182" y="490"/>
			<point x="-207" y="519"/>
			<point x="-269" y="519" type="curve" smooth="yes"/>
			<point x="-327" y="519"/>
			<point x="-354" y="495"/>
			<point x="-360" y="446" type="curve" smooth="yes"/>
			<point x="-369" y="391"/>
			<point x="-344" y="363"/>
		</contour>
		<contour>
			<point x="-39" y="360" type="line"/>
			<point x="445" y="360" type="line"/>
			<point x="459" y="456" type="line"/>
			<point x="-25" y="456" type="line"/>
		</contour>
		<contour>
			<point x="-1019" y="360" type="line"/>
			<point x="-535" y="360" type="line"/>
			<point x="-521" y="456" type="line"/>
			<point x="-1005" y="456" type="line"/>
		</contour>
		<contour>
			<point x="-1049" y="143" type="line"/>
			<point x="-565" y="143" type="line"/>
			<point x="-551" y="238" type="line"/>
			<point x="-1035" y="238" type="line"/>
		</contour>
		<contour>
			<point x="-69" y="143" type="line"/>
			<point x="415" y="143" type="line"/>
			<point x="429" y="238" type="line"/>
			<point x="-55" y="238" type="line"/>
		</contour>
		<contour>
			<point x="-321" y="74" type="curve" smooth="yes"/>
			<point x="-264" y="74"/>
			<point x="-237" y="97"/>
			<point x="-230" y="146" type="curve" smooth="yes"/>
			<point x="-222" y="201"/>
			<point x="-247" y="230"/>
			<point x="-309" y="230" type="curve" smooth="yes"/>
			<point x="-367" y="230"/>
			<point x="-394" y="206"/>
			<point x="-400" y="157" type="curve" smooth="yes"/>
			<point x="-409" y="102"/>
			<point x="-384" y="74"/>
		</contour>
	</outline>
</glyph>
<glyph name="equal_equal_greater.rem" format="2">
	<advance width="600"/>
	<outline>
		<contour>
			<point x="-1046" y="158" type="line"/>
			<point x="191" y="158" type="line"/>
			<point x="32" y="0" type="line"/>
			<point x="166" y="0" type="line"/>
			<point x="477" y="312" type="line"/>
			<point x="246" y="629" type="line"/>
			<point x="123" y="629" type="line"/>
			<point x="238" y="471" type="line"/>
			<point x="-1002" y="471" type="line"/>
			<point x="-1016" y="375" type="line"/>
			<point x="308" y="375" type="line"/>
			<point x="351" y="317" type="line"/>
			<point x="287" y="254" type="line"/>
			<point x="-1032" y="254" type="line"/>
		</contour>
	</outline>
</glyph>
<glyph name="equal_greater.rem" format="2">
	<advance width="600"/>
	<outline>
		<contour>
			<point x="-446" y="158" type="line"/>
			<point x="201" y="158" type="line"/>
			<point x="42" y="0" type="line"/>
			<point x="177" y="0" type="line"/>
			<point x="487" y="312" type="line"/>
			<point x="256" y="629" type="line"/>
			<point x="133" y="629" type="line"/>
			<point x="249" y="471" type="line"/>
			<point x="-402" y="471" type="line"/>
			<point x="-416" y="375" type="line"/>
			<point x="319" y="375" type="line"/>
			<point x="361" y="317" type="line"/>
			<point x="297" y="254" type="line"/>
			<point x="-433" y="254" type="line"/>
		</contour>
	</outline>
</glyph>
<glyph name="equal_greater_greater.rem" format="2">
	<advance width="600"/>
	<outline>
		<contour>
			<point x="31" y="0" type="line"/>
			<point x="167" y="0" type="line"/>
			<point x="474" y="313" type="line"/>
			<point x="238" y="629" type="line"/>
			<point x="114" y="629" type="line"/>
			<point x="345" y="318" type="line"/>
		</contour>
		<contour>
			<point x="-1046" y="158" type="line"/>
			<point x="-194" y="158" type="line"/>
			<point x="-353" y="0" type="line"/>
			<point x="-218" y="0" type="line"/>
			<point x="93" y="312" type="line"/>
			<point x="-139" y="629" type="line"/>
			<point x="-262" y="629" type="line"/>
			<point x="-146" y="471" type="line"/>
			<point x="-1002" y="471" type="line"/>
			<point x="-1016" y="375" type="line"/>
			<point x="-76" y="375" type="line"/>
			<point x="-34" y="317" type="line"/>
			<point x="-97" y="254" type="line"/>
			<point x="-1033" y="254" type="line"/>
		</contour>
	</outline>
</glyph>
<glyph name="exclam_asciitilde.cLig" format="2">
	<advance width="600"/>
	<outline>
		<contour>
			<point x="-330" y="-68" type="line"/>
			<point x="-225" y="-68" type="line"/>
			<point x="-61" y="143" type="line"/>
			<point x="303" y="143" type="line"/>
			<point x="316" y="238" type="line"/>
			<point x="13" y="238" type="line"/>
			<point x="83" y="328" type="line"/>
			<point x="107" y="320"/>
			<point x="134" y="315"/>
			<point x="164" y="315" type="curve" smooth="yes"/>
			<point x="239" y="315"/>
			<point x="300" y="344"/>
			<point x="338" y="392" type="curve"/>
			<point x="353" y="500" type="line"/>
			<point x="289" y="427"/>
			<point x="236" y="409"/>
			<point x="170" y="410" type="curve" smooth="yes"/>
			<point x="163" y="411"/>
			<point x="155" y="411"/>
			<point x="148" y="412" type="curve"/>
			<point x="331" y="648" type="line"/>
			<point x="226" y="648" type="line"/>
			<point x="67" y="442" type="line"/>
			<point x="10" y="471"/>
			<point x="-47" y="510"/>
			<point x="-126" y="510" type="curve" smooth="yes"/>
			<point x="-193" y="510"/>
			<point x="-258" y="481"/>
			<point x="-296" y="434" type="curve"/>
			<point x="-312" y="325" type="line"/>
			<point x="-259" y="389"/>
			<point x="-198" y="415"/>
			<point x="-137" y="415" type="curve" smooth="yes"/>
			<point x="-83" y="415"/>
			<point x="-41" y="389"/>
			<point x="6" y="364" type="curve"/>
			<point x="-92" y="238" type="line"/>
			<point x="-324" y="238" type="line"/>
			<point x="-337" y="143" type="line"/>
			<point x="-166" y="143" type="line"/>
		</contour>
	</outline>
</glyph>
<glyph name="exclam_equal.cLig" format="2">
	<advance width="600"/>
	<outline>
		<contour>
			<point x="-450" y="138" type="line"/>
			<point x="-164" y="138" type="line"/>
			<point x="-328" y="-76" type="line"/>
			<point x="-220" y="-76" type="line"/>
			<point x="-56" y="138" type="line"/>
			<point x="414" y="138" type="line"/>
			<point x="427" y="233" type="line"/>
			<point x="17" y="233" type="line"/>
			<point x="110" y="355" type="line"/>
			<point x="444" y="355" type="line"/>
			<point x="457" y="450" type="line"/>
			<point x="183" y="450" type="line"/>
			<point x="334" y="648" type="line"/>
			<point x="227" y="648" type="line"/>
			<point x="75" y="450" type="line"/>
			<point x="-406" y="450" type="line"/>
			<point x="-420" y="355" type="line"/>
			<point x="2" y="355" type="line"/>
			<point x="-91" y="233" type="line"/>
			<point x="-436" y="233" type="line"/>
		</contour>
	</outline>
</glyph>
<glyph name="exclam_equal.med" format="2">
	<advance width="600"/>
	<outline>
		<contour>
			<point x="252" y="212" type="line"/>
			<point x="332" y="212" type="line"/>
			<point x="400" y="547" type="line"/>
			<point x="420" y="684" type="line"/>
			<point x="297" y="684" type="line"/>
			<point x="278" y="548" type="line"/>
		</contour>
		<contour>
			<point x="514" y="376" type="line"/>
			<point x="616" y="376" type="line"/>
			<point x="629" y="472" type="line"/>
			<point x="527" y="472" type="line"/>
		</contour>
		<contour>
			<point x="16" y="376" type="line"/>
			<point x="117" y="376" type="line"/>
			<point x="131" y="472" type="line"/>
			<point x="29" y="472" type="line"/>
		</contour>
		<contour>
			<point x="484" y="160" type="line"/>
			<point x="585" y="160" type="line"/>
			<point x="599" y="255" type="line"/>
			<point x="497" y="255" type="line"/>
		</contour>
		<contour>
			<point x="-15" y="160" type="line"/>
			<point x="87" y="160" type="line"/>
			<point x="100" y="255" type="line"/>
			<point x="-1" y="255" type="line"/>
		</contour>
		<contour>
			<point x="267" y="-12" type="curve" smooth="yes"/>
			<point x="320" y="-12"/>
			<point x="343" y="8"/>
			<point x="349" y="53" type="curve" smooth="yes"/>
			<point x="356" y="103"/>
			<point x="332" y="129"/>
			<point x="276" y="129" type="curve" smooth="yes"/>
			<point x="224" y="129"/>
			<point x="200" y="108"/>
			<point x="194" y="64" type="curve" smooth="yes"/>
			<point x="187" y="13"/>
			<point x="211" y="-12"/>
		</contour>
	</outline>
</glyph>
<glyph name="exclam_equal_equal.cLig" format="2">
	<advance width="600"/>
	<outline>
		<contour>
			<point x="-1082" y="70" type="line"/>
			<point x="-523" y="70" type="line"/>
			<point x="-630" y="-78" type="line"/>
			<point x="-523" y="-78" type="line"/>
			<point x="-415" y="70" type="line"/>
			<point x="417" y="70" type="line"/>
			<point x="430" y="160" type="line"/>
			<point x="-350" y="160" type="line"/>
			<point x="-267" y="275" type="line"/>
			<point x="446" y="275" type="line"/>
			<point x="459" y="365" type="line"/>
			<point x="-202" y="365" type="line"/>
			<point x="-119" y="480" type="line"/>
			<point x="475" y="480" type="line"/>
			<point x="488" y="570" type="line"/>
			<point x="-54" y="570" type="line"/>
			<point x="31" y="688" type="line"/>
			<point x="-76" y="688" type="line"/>
			<point x="-161" y="570" type="line"/>
			<point x="-1012" y="570" type="line"/>
			<point x="-1024" y="480" type="line"/>
			<point x="-226" y="480" type="line"/>
			<point x="-310" y="365" type="line"/>
			<point x="-1040" y="365" type="line"/>
			<point x="-1053" y="275" type="line"/>
			<point x="-375" y="275" type="line"/>
			<point x="-458" y="160" type="line"/>
			<point x="-1069" y="160" type="line"/>
		</contour>
	</outline>
</glyph>
<glyph name="exclam_exclam.cLig" format="2">
	<advance width="600"/>
	<outline>
		<contour>
			<point x="-275" y="212" type="line"/>
			<point x="-195" y="212" type="line"/>
			<point x="-127" y="547" type="line"/>
			<point x="-107" y="684" type="line"/>
			<point x="-230" y="684" type="line"/>
			<point x="-249" y="548" type="line"/>
		</contour>
		<contour>
			<point x="-260" y="-12" type="curve" smooth="yes"/>
			<point x="-207" y="-12"/>
			<point x="-184" y="8"/>
			<point x="-178" y="53" type="curve" smooth="yes"/>
			<point x="-171" y="103"/>
			<point x="-195" y="129"/>
			<point x="-251" y="129" type="curve" smooth="yes"/>
			<point x="-303" y="129"/>
			<point x="-327" y="108"/>
			<point x="-333" y="64" type="curve" smooth="yes"/>
			<point x="-340" y="13"/>
			<point x="-316" y="-12"/>
		</contour>
		<contour>
			<point x="179" y="212" type="line"/>
			<point x="259" y="212" type="line"/>
			<point x="327" y="547" type="line"/>
			<point x="347" y="684" type="line"/>
			<point x="224" y="684" type="line"/>
			<point x="205" y="548" type="line"/>
		</contour>
		<contour>
			<point x="194" y="-12" type="curve" smooth="yes"/>
			<point x="247" y="-12"/>
			<point x="270" y="8"/>
			<point x="276" y="53" type="curve" smooth="yes"/>
			<point x="283" y="103"/>
			<point x="259" y="129"/>
			<point x="203" y="129" type="curve" smooth="yes"/>
			<point x="151" y="129"/>
			<point x="127" y="108"/>
			<point x="121" y="64" type="curve" smooth="yes"/>
			<point x="114" y="13"/>
			<point x="138" y="-12"/>
		</contour>
	</outline>
</glyph>
<glyph name="grave.cap" format="2">
	<advance width="600"/>
	<outline>
		<contour>
			<point x="456" y="746" type="line"/>
			<point x="417" y="884" type="line"/>
			<point x="297" y="884" type="line"/>
			<point x="374" y="746" type="line"/>
		</contour>
	</outline>
	<anchor name="_top" x="410" y="684"/>
</glyph>
<glyph name="greater_colon.cLig.x" format="2">
	<advance width="600"/>
	<outline>
		<contour>
			<point x="-464" y="-8" type="line"/>
			<point x="18" y="253" type="line"/>
			<point x="35" y="376" type="line"/>
			<point x="-373" y="637" type="line"/>
			<point x="-389" y="530" type="line"/>
			<point x="-56" y="319" type="line"/>
			<point x="-448" y="109" type="line"/>
		</contour>
		<contour>
			<point x="334" y="423" type="curve" smooth="yes"/>
			<point x="391" y="423"/>
			<point x="418" y="446"/>
			<point x="425" y="495" type="curve" smooth="yes"/>
			<point x="433" y="550"/>
			<point x="408" y="579"/>
			<point x="346" y="579" type="curve" smooth="yes"/>
			<point x="288" y="579"/>
			<point x="261" y="555"/>
			<point x="255" y="506" type="curve" smooth="yes"/>
			<point x="246" y="451"/>
			<point x="271" y="423"/>
		</contour>
		<contour>
			<point x="281" y="42" type="curve" smooth="yes"/>
			<point x="338" y="42"/>
			<point x="365" y="65"/>
			<point x="372" y="114" type="curve" smooth="yes"/>
			<point x="380" y="169"/>
			<point x="355" y="198"/>
			<point x="293" y="198" type="curve" smooth="yes"/>
			<point x="235" y="198"/>
			<point x="208" y="174"/>
			<point x="202" y="125" type="curve" smooth="yes"/>
			<point x="193" y="70"/>
			<point x="218" y="42"/>
		</contour>
	</outline>
</glyph>
<glyph name="greater_equal.cLig" format="2">
	<advance width="600"/>
	<outline>
		<contour>
			<point x="-303" y="175" type="line"/>
			<point x="321" y="397" type="line"/>
			<point x="339" y="520" type="line"/>
			<point x="-223" y="744" type="line"/>
			<point x="-237" y="644" type="line"/>
			<point x="240" y="464" type="line"/>
			<point x="-288" y="281" type="line"/>
		</contour>
		<contour>
			<point x="-336" y="-67" type="line"/>
			<point x="287" y="155" type="line"/>
			<point x="301" y="254" type="line"/>
			<point x="-323" y="33" type="line"/>
		</contour>
	</outline>
</glyph>
<glyph name="greater_equal.fina" format="2">
	<advance width="600"/>
	<outline>
		<contour>
			<point x="-14" y="158" type="line"/>
			<point x="256" y="158" type="line"/>
			<point x="97" y="0" type="line"/>
			<point x="232" y="0" type="line"/>
			<point x="542" y="312" type="line"/>
			<point x="311" y="629" type="line"/>
			<point x="188" y="629" type="line"/>
			<point x="304" y="471" type="line"/>
			<point x="30" y="471" type="line"/>
			<point x="16" y="375" type="line"/>
			<point x="374" y="375" type="line"/>
			<point x="416" y="317" type="line"/>
			<point x="352" y="254" type="line"/>
			<point x="-1" y="254" type="line"/>
		</contour>
	</outline>
</glyph>
<glyph name="greater_equal.init" format="2">
	<advance width="600"/>
	<outline>
		<contour>
			<point x="282" y="375" type="line"/>
			<point x="615" y="375" type="line"/>
			<point x="629" y="471" type="line"/>
			<point x="337" y="471" type="line"/>
			<point x="223" y="629" type="line"/>
			<point x="102" y="629" type="line"/>
		</contour>
		<contour>
			<point x="17" y="0" type="line"/>
			<point x="150" y="0" type="line"/>
			<point x="307" y="158" type="line"/>
			<point x="585" y="158" type="line"/>
			<point x="598" y="254" type="line"/>
			<point x="265" y="254" type="line"/>
		</contour>
	</outline>
</glyph>
<glyph name="greater_equal.med" format="2">
	<advance width="600"/>
	<outline>
		<contour>
			<point x="78" y="0" type="line"/>
			<point x="214" y="0" type="line"/>
			<point x="371" y="158" type="line"/>
			<point x="585" y="158" type="line"/>
			<point x="598" y="254" type="line"/>
			<point x="466" y="254" type="line"/>
			<point x="524" y="312" type="line"/>
			<point x="477" y="375" type="line"/>
			<point x="616" y="375" type="line"/>
			<point x="629" y="471" type="line"/>
			<point x="406" y="471" type="line"/>
			<point x="289" y="629" type="line"/>
			<point x="164" y="629" type="line"/>
			<point x="281" y="471" type="line"/>
			<point x="30" y="471" type="line"/>
			<point x="16" y="375" type="line"/>
			<point x="353" y="375" type="line"/>
			<point x="395" y="318" type="line"/>
			<point x="331" y="254" type="line"/>
			<point x="-1" y="254" type="line"/>
			<point x="-15" y="158" type="line"/>
			<point x="236" y="158" type="line"/>
		</contour>
	</outline>
</glyph>
<glyph name="greater_equal.rem" format="2">
	<advance width="600"/>
	<outline>
		<contour>
			<point x="-264" y="375" type="line"/>
			<point x="466" y="375" type="line"/>
			<point x="479" y="471" type="line"/>
			<point x="-209" y="471" type="line"/>
			<point x="-323" y="629" type="line"/>
			<point x="-444" y="629" type="line"/>
		</contour>
		<contour>
			<point x="-529" y="0" type="line"/>
			<point x="-396" y="0" type="line"/>
			<point x="-239" y="158" type="line"/>
			<point x="435" y="158" type="line"/>
			<point x="449" y="254" type="line"/>
			<point x="-281" y="254" type="line"/>
		</contour>
	</outline>
</glyph>
<glyph name="greater_greater.cLig" format="2">
	<advance width="600"/>
	<outline>
		<contour>
			<point x="-541" y="30" type="line"/>
			<point x="-54" y="238" type="line"/>
			<point x="-37" y="360" type="line"/>
			<point x="-465" y="569" type="line"/>
			<point x="-480" y="464" type="line"/>
			<point x="-137" y="302" type="line"/>
			<point x="-525" y="143" type="line"/>
		</contour>
		<contour>
			<point x="29" y="30" type="line"/>
			<point x="516" y="238" type="line"/>
			<point x="533" y="360" type="line"/>
			<point x="105" y="569" type="line"/>
			<point x="90" y="464" type="line"/>
			<point x="433" y="302" type="line"/>
			<point x="45" y="143" type="line"/>
		</contour>
	</outline>
</glyph>
<glyph name="greater_greater_equal.init" format="2">
	<advance width="600"/>
	<outline>
		<contour>
			<point x="-559" y="0" type="line"/>
			<point x="-424" y="0" type="line"/>
			<point x="-110" y="313" type="line"/>
			<point x="-346" y="629" type="line"/>
			<point x="-471" y="629" type="line"/>
			<point x="-237" y="320" type="line"/>
		</contour>
		<contour>
			<point x="89" y="375" type="line"/>
			<point x="616" y="375" type="line"/>
			<point x="629" y="471" type="line"/>
			<point x="144" y="471" type="line"/>
			<point x="30" y="629" type="line"/>
			<point x="-91" y="629" type="line"/>
		</contour>
		<contour>
			<point x="-176" y="0" type="line"/>
			<point x="-43" y="0" type="line"/>
			<point x="114" y="158" type="line"/>
			<point x="585" y="158" type="line"/>
			<point x="598" y="254" type="line"/>
			<point x="72" y="254" type="line"/>
		</contour>
	</outline>
</glyph>
<glyph name="greater_greater_equal.med" format="2">
	<advance width="600"/>
	<outline>
		<contour>
			<point x="-614" y="158" type="line"/>
			<point x="-344" y="158" type="line"/>
			<point x="-503" y="0" type="line"/>
			<point x="-368" y="0" type="line"/>
			<point x="-58" y="312" type="line"/>
			<point x="-289" y="629" type="line"/>
			<point x="-412" y="629" type="line"/>
			<point x="-296" y="471" type="line"/>
			<point x="-570" y="471" type="line"/>
			<point x="-584" y="375" type="line"/>
			<point x="-226" y="375" type="line"/>
			<point x="-184" y="317" type="line"/>
			<point x="-248" y="254" type="line"/>
			<point x="-601" y="254" type="line"/>
		</contour>
		<contour>
			<point x="143" y="375" type="line"/>
			<point x="616" y="375" type="line"/>
			<point x="630" y="471" type="line"/>
			<point x="198" y="471" type="line"/>
			<point x="85" y="629" type="line"/>
			<point x="-37" y="629" type="line"/>
		</contour>
		<contour>
			<point x="-122" y="0" type="line"/>
			<point x="11" y="0" type="line"/>
			<point x="168" y="158" type="line"/>
			<point x="585" y="158" type="line"/>
			<point x="599" y="254" type="line"/>
			<point x="126" y="254" type="line"/>
		</contour>
	</outline>
</glyph>
<glyph name="greater_greater_equal.rem" format="2">
	<advance width="600"/>
	<outline>
		<contour>
			<point x="-1139" y="0" type="line"/>
			<point x="-1004" y="0" type="line"/>
			<point x="-690" y="313" type="line"/>
			<point x="-926" y="629" type="line"/>
			<point x="-1051" y="629" type="line"/>
			<point x="-817" y="320" type="line"/>
		</contour>
		<contour>
			<point x="-491" y="375" type="line"/>
			<point x="448" y="375" type="line"/>
			<point x="461" y="471" type="line"/>
			<point x="-436" y="471" type="line"/>
			<point x="-550" y="629" type="line"/>
			<point x="-671" y="629" type="line"/>
		</contour>
		<contour>
			<point x="-756" y="0" type="line"/>
			<point x="-623" y="0" type="line"/>
			<point x="-466" y="158" type="line"/>
			<point x="417" y="158" type="line"/>
			<point x="431" y="254" type="line"/>
			<point x="-508" y="254" type="line"/>
		</contour>
	</outline>
</glyph>
<glyph name="greater_greater_hyphen.init" format="2">
	<advance width="600"/>
	<outline>
		<contour>
			<point x="-548" y="0" type="line"/>
			<point x="-412" y="0" type="line"/>
			<point x="-104" y="314" type="line"/>
			<point x="-339" y="629" type="line"/>
			<point x="-463" y="629" type="line"/>
			<point x="-233" y="320" type="line"/>
		</contour>
		<contour>
			<point x="-167" y="0" type="line"/>
			<point x="-31" y="0" type="line"/>
			<point x="229" y="264" type="line"/>
			<point x="600" y="264" type="line"/>
			<point x="614" y="365" type="line"/>
			<point x="241" y="365" type="line"/>
			<point x="42" y="629" type="line"/>
			<point x="-81" y="629" type="line"/>
			<point x="148" y="321" type="line"/>
		</contour>
	</outline>
</glyph>
<glyph name="greater_greater_hyphen.med" format="2">
	<advance width="600"/>
	<outline>
		<contour>
			<point x="-103" y="0" type="line"/>
			<point x="33" y="0" type="line"/>
			<point x="293" y="264" type="line"/>
			<point x="600" y="264" type="line"/>
			<point x="615" y="365" type="line"/>
			<point x="305" y="365" type="line"/>
			<point x="106" y="629" type="line"/>
			<point x="-18" y="629" type="line"/>
			<point x="212" y="320" type="line"/>
		</contour>
		<contour>
			<point x="-392" y="629" type="line"/>
			<point x="-193" y="365" type="line"/>
			<point x="-586" y="365" type="line"/>
			<point x="-600" y="264" type="line"/>
			<point x="-563" y="264" type="line"/>
			<point x="-214" y="263" type="line"/>
			<point x="-485" y="0" type="line"/>
			<point x="-352" y="0" type="line"/>
			<point x="-34" y="314" type="line"/>
			<point x="-269" y="629" type="line"/>
		</contour>
	</outline>
</glyph>
<glyph name="greater_hyphen.rem" format="2">
	<advance width="600"/>
	<outline>
		<contour>
			<point x="-515" y="0" type="line"/>
			<point x="-379" y="0" type="line"/>
			<point x="-119" y="264" type="line"/>
			<point x="468" y="264" type="line"/>
			<point x="482" y="365" type="line"/>
			<point x="-108" y="365" type="line"/>
			<point x="-307" y="629" type="line"/>
			<point x="-430" y="629" type="line"/>
			<point x="-201" y="321" type="line"/>
		</contour>
	</outline>
</glyph>
<glyph name="greater_hyphen_greater.rem" format="2">
	<advance width="600"/>
	<outline>
		<contour>
			<point x="-1103" y="0" type="line"/>
			<point x="-967" y="0" type="line"/>
			<point x="-707" y="264" type="line"/>
			<point x="-52" y="264" type="line"/>
			<point x="297" y="263" type="line"/>
			<point x="26" y="0" type="line"/>
			<point x="159" y="0" type="line"/>
			<point x="477" y="314" type="line"/>
			<point x="242" y="629" type="line"/>
			<point x="119" y="629" type="line"/>
			<point x="319" y="364" type="line"/>
			<point x="38" y="365" type="line"/>
			<point x="-696" y="365" type="line"/>
			<point x="-895" y="629" type="line"/>
			<point x="-1018" y="629" type="line"/>
			<point x="-789" y="321" type="line"/>
		</contour>
	</outline>
</glyph>
<glyph name="hungarumlaut.cap" format="2">
	<advance width="600"/>
	<outline>
		<contour>
			<point x="366" y="746" type="line"/>
			<point x="444" y="746" type="line"/>
			<point x="547" y="884" type="line"/>
			<point x="442" y="884" type="line"/>
		</contour>
		<contour>
			<point x="208" y="746" type="line"/>
			<point x="287" y="746" type="line"/>
			<point x="389" y="884" type="line"/>
			<point x="284" y="884" type="line"/>
		</contour>
	</outline>
	<anchor name="_top" x="317" y="684"/>
</glyph>
<glyph name="hyphen_asciitilde.cLig" format="2">
	<advance width="600"/>
	<outline>
		<contour>
			<point x="-408" y="259" type="line"/>
			<point x="-2" y="259" type="line"/>
			<point x="9" y="302"/>
			<point x="28" y="330"/>
			<point x="66" y="330" type="curve" smooth="yes"/>
			<point x="133" y="330"/>
			<point x="152" y="204"/>
			<point x="257" y="204" type="curve" smooth="yes"/>
			<point x="337" y="204"/>
			<point x="396" y="256"/>
			<point x="416" y="412" type="curve"/>
			<point x="326" y="412" type="line"/>
			<point x="318" y="339"/>
			<point x="297" y="305"/>
			<point x="258" y="305" type="curve" smooth="yes"/>
			<point x="195" y="305"/>
			<point x="170" y="429"/>
			<point x="63" y="429" type="curve" smooth="yes"/>
			<point x="15" y="429"/>
			<point x="-25" y="408"/>
			<point x="-51" y="360" type="curve"/>
			<point x="-394" y="360" type="line"/>
		</contour>
	</outline>
</glyph>
<glyph name="hyphen_less_less.rem" format="2">
	<advance width="600"/>
	<outline>
		<contour>
			<point x="503" y="629" type="line"/>
			<point x="367" y="629" type="line"/>
			<point x="59" y="315" type="line"/>
			<point x="294" y="0" type="line"/>
			<point x="418" y="0" type="line"/>
			<point x="188" y="309" type="line"/>
		</contour>
		<contour>
			<point x="122" y="629" type="line"/>
			<point x="-14" y="629" type="line"/>
			<point x="-274" y="365" type="line"/>
			<point x="-1072" y="365" type="line"/>
			<point x="-1086" y="264" type="line"/>
			<point x="-286" y="264" type="line"/>
			<point x="-87" y="0" type="line"/>
			<point x="36" y="0" type="line"/>
			<point x="-193" y="308" type="line"/>
		</contour>
	</outline>
</glyph>
<glyph name="less_asciitilde.cLig" format="2">
	<advance width="600"/>
	<outline>
		<contour>
			<point x="-297" y="264" type="line"/>
			<point x="109" y="264" type="line"/>
			<point x="120" y="307"/>
			<point x="139" y="335"/>
			<point x="177" y="335" type="curve" smooth="yes"/>
			<point x="244" y="335"/>
			<point x="263" y="209"/>
			<point x="368" y="209" type="curve" smooth="yes"/>
			<point x="448" y="209"/>
			<point x="507" y="261"/>
			<point x="527" y="417" type="curve"/>
			<point x="437" y="417" type="line"/>
			<point x="429" y="344"/>
			<point x="408" y="310"/>
			<point x="369" y="310" type="curve" smooth="yes"/>
			<point x="306" y="310"/>
			<point x="281" y="434"/>
			<point x="174" y="434" type="curve" smooth="yes"/>
			<point x="126" y="434"/>
			<point x="86" y="413"/>
			<point x="60" y="365" type="curve"/>
			<point x="33" y="365" type="line"/>
			<point x="-316" y="366" type="line"/>
			<point x="-45" y="629" type="line"/>
			<point x="-178" y="629" type="line"/>
			<point x="-496" y="315" type="line"/>
			<point x="-261" y="0" type="line"/>
			<point x="-138" y="0" type="line"/>
			<point x="-338" y="265" type="line"/>
			<point x="-297" y="265" type="line"/>
		</contour>
	</outline>
</glyph>
<glyph name="less_asciitilde_asciitilde.cLig" format="2">
	<advance width="600"/>
	<outline>
		<contour>
			<point x="-756" y="0" type="line"/>
			<point x="-956" y="264" type="line"/>
			<point x="-604" y="264" type="line"/>
			<point x="-577" y="218"/>
			<point x="-535" y="196"/>
			<point x="-487" y="196" type="curve" smooth="yes"/>
			<point x="-373" y="196"/>
			<point x="-349" y="329"/>
			<point x="-270" y="329" type="curve" smooth="yes"/>
			<point x="-189" y="329"/>
			<point x="-194" y="199"/>
			<point x="-75" y="199" type="curve" smooth="yes"/>
			<point x="36" y="199"/>
			<point x="64" y="329"/>
			<point x="137" y="329" type="curve"/>
			<point x="220" y="329"/>
			<point x="213" y="198"/>
			<point x="341" y="198" type="curve" smooth="yes"/>
			<point x="429" y="198"/>
			<point x="505" y="270"/>
			<point x="539" y="412" type="curve"/>
			<point x="447" y="412" type="line"/>
			<point x="427" y="343"/>
			<point x="391" y="302"/>
			<point x="342" y="302" type="curve" smooth="yes"/>
			<point x="260" y="302"/>
			<point x="265" y="431"/>
			<point x="144" y="431" type="curve"/>
			<point x="31" y="431"/>
			<point x="9" y="302"/>
			<point x="-70" y="302" type="curve" smooth="yes"/>
			<point x="-152" y="302"/>
			<point x="-140" y="431"/>
			<point x="-262" y="431" type="curve" smooth="yes"/>
			<point x="-377" y="431"/>
			<point x="-397" y="298"/>
			<point x="-476" y="298" type="curve" smooth="yes"/>
			<point x="-514" y="298"/>
			<point x="-535" y="322"/>
			<point x="-547" y="365" type="curve"/>
			<point x="-934" y="365" type="line"/>
			<point x="-663" y="629" type="line"/>
			<point x="-796" y="629" type="line"/>
			<point x="-1114" y="315" type="line"/>
			<point x="-880" y="0" type="line"/>
		</contour>
	</outline>
</glyph>
